/* XPM */
static char *output_onlinepngtools1631979897[] = {
/* columns rows colors chars-per-pixel */
"64 64 46 1 ",
"  c None",
". c #026A22",
"X c #026A23",
"o c #026E25",
"O c #027025",
"+ c #027727",
"@ c #027728",
"# c #027B29",
"$ c #017E2B",
"% c #027E2A",
"& c #027F2A",
"* c #147332",
"= c #02822B",
"- c #02842C",
"; c #02852C",
": c #028C2F",
"> c #028E30",
", c #029030",
"< c #019331",
"1 c #029231",
"2 c #029431",
"3 c #029432",
"4 c #029532",
"5 c #519366",
"6 c #57966B",
"7 c #C3C3C3",
"8 c #C5C5C5",
"9 c #CDCDCD",
"0 c #CECECE",
"q c gray81",
"w c LightGray",
"e c gray83",
"r c #D7D9D8",
"t c gray86",
"y c gainsboro",
"u c #E1E1E1",
"i c #E6E6E5",
"p c #EAEAEA",
"a c gray92",
"s c #ECECEC",
"d c #F2F2F1",
"f c #F3F3F1",
"g c #F4F4F2",
"h c #F8F8F6",
"j c #FAFAF8",
"k c #FBFBF9",
/* pixels */
"4                                                               ",
"                                                                ",
"                                                                ",
"                            4444444444444&                      ",
"                          <44444444444444&                      ",
"                          44444444444444&&                      ",
"                         44444444444444&&                       ",
"                         444444444<44-&&                        ",
"                         44444444<&&&&                          ",
"                         44444444&&                             ",
"                          444444>&                              ",
"                        tttttttt&$                              ",
"                        tttttttt                                ",
"                        tttttttt                                ",
"                        tttttttt                                ",
"                         777777                                 ",
"                         777777                                 ",
"                         tttttt                                 ",
"                         tttttt                                 ",
"                         tttttt                                 ",
"                         tttttt                                 ",
"                         tttttt                                 ",
"                         tttttt                                 ",
"                         tttttt                                 ",
"                         tttttt                                 ",
"                         tttttt                                 ",
"                         tttttt                                 ",
"                         tttttt                                 ",
"                         tttttt            XXXXXX               ",
"          aa             tttttt         XXXXXXXXXXXX            ",
"         aaa             tttttt        XXXXXXXXXXXXXX           ",
"       aaaaa             tttttt       XXXXXXXXXXXXXXXX          ",
"      aaaaaaa            tttttt      XXXXXXXXXXXXXXXXXX         ",
"       aaaaaa            tttttt     XXXXXXXXX4<XXXXXXXXX        ",
"        aaaaaa           tttttt    XXXXXXXXXX44XXXXXXXXXX       ",
"          aaaaa          tttttt    XXXXXXXXX#44#XXXXXXXXX       ",
"          saaaa          tttttt    XXXXXXXXX4444XXXXXXXXX       ",
"           aaaaa         tttttt   XXXXXXXXXX4444XXXXXXXXXX      ",
"            aaaaa        tttttt   XXXX4444@X4444X@4444XXXX      ",
"             aaaaat      tttttt   XXXXX44444-44=44444XXXXX      ",
"             aaau7wt  ttttttttttyyXXXXXX<44444444444XXXXXX      ",
"              a7777ttttttttttttyttt*XXXXX+44444444+XXXXXXX      ",
"              t77777tttttttttttgdttt5XXXXXX444444XXXXXXXXX      ",
"              tt77777ttttttttttjkkttt*XXXo444==<44OXXXXXX       ",
"               t97777wttttttttttkkjtttXXX444X=&X444XXXXXX       ",
"               ty77777tttttttttttkjttttX4:XXX&&XXX:4XXXXX       ",
"                yt77777ttttttttttttttttXXXXXX&&XXXXXXXXX        ",
"                ttt77777ttttttttttttttt6XXXXX&#XXXXXXXX         ",
"                ttt98777wtttttttttykhtttXXXXXXXXXXXXXX          ",
"                tttt77777ttttttttttkjtttXXXXXXXXXXXXX           ",
"                ttttt77777tttttttttjkyttXXXXXXXXXXXX            ",
"                tttttt77777tttttttykjttt   XXXXXX               ",
"                tttttt9777tttttttttjkytt                        ",
"                ttttttt78tttttttttykjttt                        ",
"                 tttttttttttttttttjkitt                         ",
"                 ttttttttttttttttykkttt                         ",
"                 tttttttttttttttttjgttt                         ",
"                  tttttttttttttttttttt                          ",
"                   tttttttttttttttttt                           ",
"                    tttttttttttttttt                            ",
"                     tttttttttttttt                             ",
"                                                                ",
"                                                                ",
"                                                                "
};
