/* XPM */
static char *bong1631983480[] = {
/* columns rows colors chars-per-pixel */
"64 64 156 2 ",
"   c None",
".  c black",
"X  c #000100",
"o  c #010101",
"O  c #020401",
"+  c #030304",
"@  c #040404",
"#  c #050506",
"$  c #050607",
"%  c #060A03",
"&  c #070708",
"*  c #0B0B0C",
"=  c #0C0C0D",
"-  c #091005",
";  c #091105",
":  c #0B1306",
">  c #0B1406",
",  c #0C1607",
"<  c #0D1707",
"1  c #121215",
"2  c #141518",
"3  c #16161A",
"4  c #17171B",
"5  c #18181A",
"6  c #19191B",
"7  c #1A1A1C",
"8  c #1A1B1D",
"9  c #1B1B1D",
"0  c #1B1C1E",
"q  c #13220B",
"w  c #1E3611",
"e  c #1F3711",
"r  c #1F1F24",
"t  c #232326",
"y  c #232427",
"u  c #23242A",
"i  c #27282A",
"p  c gray18",
"a  c #2E2F32",
"s  c #2C2D34",
"d  c #2D2F36",
"f  c gray19",
"g  c #313131",
"h  c #31333B",
"j  c #32333B",
"k  c #333538",
"l  c #35363A",
"z  c #38393D",
"x  c #254315",
"c  c #264515",
"v  c #274616",
"b  c #274716",
"n  c #294A17",
"m  c #2B4D18",
"M  c #2C4F18",
"N  c #2C5019",
"B  c #2E5319",
"V  c #345E1D",
"C  c #36621E",
"Z  c #3E7123",
"A  c #3F7223",
"S  c #407323",
"D  c #467F27",
"F  c #414141",
"G  c gray26",
"H  c #44464A",
"J  c #45474B",
"K  c #47484D",
"L  c #4A4C51",
"P  c #4C4E53",
"I  c #505257",
"U  c #57595F",
"Y  c #5C5E6D",
"T  c #5E6070",
"R  c #61646A",
"E  c #63656C",
"W  c #74777E",
"Q  c #4A8629",
"!  c #4B8729",
"~  c #4A872A",
"^  c #4C892A",
"/  c #4C8A2B",
"(  c #4E8D2C",
")  c #559A30",
"_  c #5BA332",
"`  c #5DA833",
"'  c #62B136",
"]  c #64B437",
"[  c #64B537",
"{  c #67BB3A",
"}  c #68BB39",
"|  c #68BC39",
" . c #68BC3A",
".. c #69BE3A",
"X. c #69BE3B",
"o. c #6ABF3A",
"O. c #6BC13B",
"+. c #6CC23B",
"@. c #6BC13C",
"#. c #6CC43C",
"$. c #6DC43C",
"%. c #6DC63C",
"&. c #6FC93E",
"*. c #6FCA3F",
"=. c #72CF3F",
"-. c #72CE40",
";. c #73D040",
":. c #73D141",
">. c #74D140",
",. c #74D241",
"<. c #75D542",
"1. c #76D642",
"2. c #77D642",
"3. c #76D742",
"4. c #78DB43",
"5. c #79DB44",
"6. c #7ADD44",
"7. c #7BDE45",
"8. c #7BDF45",
"9. c #737588",
"0. c #74778A",
"q. c #878A93",
"w. c #888B94",
"e. c #888C95",
"r. c #8B8E97",
"t. c #8D9099",
"y. c #91959E",
"u. c #92959F",
"i. c #979AA4",
"p. c #989CB4",
"a. c #9CA0B9",
"s. c #A9ADB8",
"d. c #ABAFBA",
"f. c #B7B7B7",
"g. c gray72",
"h. c #B9B9B9",
"j. c #ADB2CD",
"k. c #AFB3CF",
"l. c #BFC4D0",
"z. c #BDC2E0",
"x. c #BEC3E1",
"c. c gray80",
"v. c #CBCFDD",
"b. c #CDD1DF",
"n. c #C7CCEC",
"m. c #C8CDED",
"M. c #CED2E0",
"N. c #CED3E1",
"B. c #CFD4E2",
"V. c #D6DAE8",
"C. c #D8DDEB",
"Z. c #DEE2F1",
"A. c #DFE4F3",
"S. c #E0E5F4",
"D. c #E1E6F5",
"F. c #E2E7F6",
/* pixels */
"                                                                                                                                ",
"                                  . . . .                             . . . . . . . . . . . .                                   ",
"                                . . . . . .                         . . . . . . . . . . . . . .                                 ",
"                              . . G h.h.G . .                       . . d.F.F.F.F.F.F.F.F.d.. .                                 ",
"                            . . . f.c.c.f.. . .                     . . d.F.F.F.F.F.F.F.F.d.. .                                 ",
"                          . . . f c.c.c.c.f . . .                   . . . . . . . . . . . . . .                                 ",
"                        . . G h.c.c.c.c.c.c.f.G . .                   . . . . . . . . . . . .                                   ",
"                        . . h.c.c.c.c.c.c.c.c.f.. .                     . . m.m.m.m.m.m.. .                                     ",
"                        . . h.c.c.c.c.c.c.c.c.f.. .                     . . m.m.m.m.m.m.. .                                     ",
"                        . . G h.c.c.c.c.c.c.f.G . .                   . . . . . . . . . . . .                                   ",
"                          . . . f c.c.c.c.p . . .                   . . . . . . . . . . . . . .                                 ",
"                            . . . f.c.c.f.. . .                     . . d.F.F.F.F.F.F.F.F.d.. .                                 ",
"                              . . G h.f.G . .                       . . d.F.F.F.F.F.F.F.F.d.. .                                 ",
"                                . . . . . .                         . . . z F.F.F.F.F.F.k . . .                                 ",
"                                  . . . .                             . . . F.F.F.F.F.F.. . .                                   ",
"                                                                        . . F.F.F.F.F.F.. .                                     ",
"                                                                        . . F.F.F.F.F.F.. .                                     ",
"                            . . . .                                     . . F.F.F.F.F.F.. .                                     ",
"                          . . . . . .                                   . . F.F.F.F.F.F.. .                                     ",
"                        . . G h.h.G . .                                 . . F.F.F.F.F.F.. .                                     ",
"                      . . . f.c.c.f.. . .                               . . F.F.F.F.F.F.. .                                     ",
"                    . . . f c.c.c.c.f . . .                             . . F.F.F.F.F.F.. .                                     ",
"                  . . G h.c.c.c.c.c.c.h.G . .                           . . F.F.F.F.F.F.. .                                     ",
"                  . . h.c.c.c.c.c.c.c.c.h.. .                           . . F.F.F.F.F.F.. .                                     ",
"                  . . h.c.c.c.c.c.c.c.c.h.. .                           . . F.F.F.F.F.F.. .                                     ",
"                  . . G h.c.c.c.c.c.c.f.G . .                           . . F.F.F.F.F.F.. .                                     ",
"                    . . . f c.c.c.c.p . . .                             . . F.F.F.F.F.F.. .                                     ",
"                      . . . f.c.c.f.. . .         . .                   . . F.F.F.F.F.F.. .                                     ",
"                        . . G h.f.G . .         . . . .                 . . F.F.F.F.F.F.. .                                     ",
"                          . . . . . .         . . 6 . .                 . . F.F.F.F.F.F.. .                                     ",
"                            . . . .         . . i v.. .                 . . F.F.F.F.F.F.. .                                     ",
"                                          . . i N.F.a . .               . . F.F.F.F.F.F.. .                                     ",
"                                        . . i N.F.F.N.i . .           . . # F.F.F.F.F.F.& + .                                   ",
"                                      . . 6 v.F.F.F.F.N.i . .     . . . 9 w.F.F.F.F.F.F.q.r . . .                               ",
"                                      . . . . a N.F.F.F.N.i . . . . 0 i.F.F.F.F.F.F.F.F.A.A.u.r . .                             ",
"                                        . . . . i N.F.F.F.N.i . . I V.F.F.F.F.F.F.F.F.F.A.F.A.C.P . .                           ",
"                                              . . i N.F.F.F.N.H W F.F.F.F.F.F.F.F.F.F.F.F.F.F.F.F.R . .                         ",
"                                                . . i N.F.F.F.F.F.F.F.F.F.F.F.F.F.F.F.F.F.F.F.F.F.F.L . .                       ",
"                                                  . . y b.F.F.F.F.F.F.F.F.F.F.F.F.F.F.F.F.F.F.F.F.F.V.6 .                       ",
"                                                    . . i B.F.F.F.F.F.F.F.F.F.F.F.F.F.F.F.F.F.F.F.F.F.r.. .                     ",
"                                                      . . U F.F.F.F.F.F.F.F.F.F.F.F.F.F.F.F.F.F.F.F.F.Z.6 .                     ",
"                                                      . . E F.F.F.F.F.F.F.F.F.F.F.F.F.F.F.F.F.F.F.F.F.F.E . .                   ",
"                                                      . . i.N.e.K t * * t K e.b.F.F.F.F.A.A.F.F.b.q.K t # . .                   ",
"                                                      . . z @ . . . . . . . . # K e.l.C.V.c.r.K # . . . . . .                   ",
"                                                      . . . O c ^ X.<.<.X.^ c O . . . . . . . . . c / | ' . .                   ",
"                                                      . . Z -.8.8.8.8.8.8.8.8.*.! b q % % q b ~ *.8.8.<.} . .                   ",
"                                                      . . X.8.8.8.8.8.8.8.8.8.8.8.8.8.8.8.8.8.8.8.8.8.;._ . .                   ",
"                                                      . . ) 8.8.8.8.8.8.8.8.8.8.8.8.8.8.8.8.8.8.8.8.8.$.~ . .                   ",
"                                                      . . C 8.8.8.8.8.. . 8.8.8.8.8.8.8.8.8.8.8.8.8.<.+.B . .                   ",
"                                                        . : 5.8.8.8.8.. . 8.8.8.8.8.8.8.8.8.8.. . 8.%.X.- .                     ",
"                                                        . . ( 8.8.8.8.8.8.8.8.8.8.8.8.8.8.8.8.. . >.O.S . .                     ",
"                                                          . > >.8.8.8.8.8.8.8.8.8.8.8.8.8.8.8.8.<.O.[ - .                       ",
"                                                          . . m 8.8.8.8.8.8.8.8.. . 8.8.8.8.8.<.+.O.e . .                       ",
"                                                            . . V 8.8.8.8.8.8.8.. . 8.8.8.8.=.$.X.m . .                         ",
"                                                              . . x -.8.8.8.8.8.8.8.8.8.<.%.O.[ e . .                           ",
"                                                                . . < D >.4.8.8.4.3.=.$.O.X.A - . .                             ",
"                                                                  . . . < B ~ ` [ X._ ~ M - . . .                               ",
"                                                                . . d r . . . . . . . . . . u d . .                             ",
"                                                                . 4 z.m.p.Y h 1 # + 4 j T a.n.z.4 .                             ",
"                                                              . . 0.m.m.m.m.m.m.m.n.n.m.m.m.m.m.9.. .                           ",
"                                                              . . j.m.m.m.m.m.m.m.m.m.m.m.m.m.m.j.. .                           ",
"                                                              . . . . . . . . . . . . . . . . . . . .                           ",
"                                                              . . . . . . . . . . . . . . . . . . . .                           ",
"                                                                                                                                "
};
