/* XPM */
static char *bc0370e8fd6a44c6edc1ca594010b4f5ThrOf2ohVPgVdBGm[] = {
/* columns rows colors chars-per-pixel */
"64 64 8 1 ",
"  c #69B873",
". c #6AB974",
"X c #6BBA74",
"o c #6DBD76",
"O c #6EBE77",
"+ c #6FBF78",
"@ c #72C37A",
"# c #73C47B",
/* pixels */
"################################################################",
"################################################################",
"###########################################@####################",
"#########################################@+@@###################",
"#########################################@X+@#####@#############",
"#########################################+XX+####@@+@###########",
"#########################################@XX@@@##++o@###########",
"#########################################+XX++@@@+ X+###########",
"#########################################@X  o+@o  X@###########",
"#########################################+XX X@+X  ++###########",
"#########################################@@+XX@+XX++@###########",
"###########################################+o++@+X@#############",
"###########################################@@+@@+@@@############",
"################################################################",
"################################################################",
"################################################################",
"################################################################",
"################################################################",
"################################################################",
"################################################################",
"#############@##################################################",
"###########@@@@#######################@+@+######################",
"###########+Xo+######################+oXXo@#####################",
"###########@+X+@@##############@+@+@#+X Xo+#+@++@###############",
"###########@++X+@##############@+XXo+@X ++#++XXo@###############",
"#######@@++@@@XX+@+@@+@########+oX X@+XX+@@+X Xo+###############",
"######@@oXXo@+XX@+oXX++########@++ X+@XX+@o   +@@###############",
"#####@@@oX X+@XX+@X XX@##########@oo@+oo@+ooXX+#################",
"#######@@oXX@+XX@+XX++@############+#@+@@@@++@@#################",
"########@@+X+@oo+@oX@###########################################",
"########@@+@@@@+@@@@@###########################################",
"##############@###@#############################################",
"################################################################",
"################################################################",
"################################################################",
"################################################################",
"################################################################",
"################################################################",
"################################################################",
"################################################################",
"################################################################",
"#####################@@+########################################",
"#####################@X++#######################################",
"#####################+XX++@###+@++@#############################",
"#####################@X  o+##+XXX++#############################",
"################@+@@@+XX X@#+oX Xo+#############################",
"###############@XXXX+#@+XX+@+X Xo###############################",
"##############@++X X++#+XX@+X X++###############################",
"###############@@+XXXX@+XX@@XX+@################################",
"#################+XXXo+++X@+X++@################################",
"##################@++##@@+@@+@@#################################",
"################################################################",
"################################################################",
"################################################################",
"################################################################",
"################################################################",
"################################################################",
"################################################################",
"################################################################",
"################################################################",
"################################################################",
"################################################################",
"################################################################",
"################################################################"
};
