/* XPM */
static char *_e0c58d37c514390c230a78965760f4apz1Aa04JI5MzLuTe[] = {
/* columns rows colors chars-per-pixel */
"64 64 109 2 ",
"   c None",
".  c #5AA687",
"X  c #5BA788",
"o  c #5BA888",
"O  c #5CA889",
"+  c #5DAA8B",
"@  c #5FAA8B",
"#  c #5FAB8C",
"$  c #5FAC8C",
"%  c #60AC8D",
"&  c #60AD8E",
"*  c #61AE8F",
"=  c #62AE8F",
"-  c #63B091",
";  c #64B091",
":  c #65B091",
">  c #65B193",
",  c #66B293",
"<  c #66B294",
"1  c #66B394",
"2  c #66B494",
"3  c #67B494",
"4  c #67B495",
"5  c #67B596",
"6  c #68B394",
"7  c #69B495",
"8  c #68B595",
"9  c #6AB594",
"0  c #68B496",
"q  c #68B596",
"w  c #69B596",
"e  c #69B497",
"r  c #68B597",
"t  c #69B597",
"y  c #6AB596",
"u  c #69B697",
"i  c #6AB697",
"p  c #6BB697",
"a  c #6AB797",
"s  c #6DB795",
"d  c #6BB698",
"f  c #6AB798",
"g  c #6BB798",
"h  c #6BB799",
"j  c #6CB899",
"k  c #6DB99A",
"l  c #6EB89A",
"z  c #6EB99A",
"x  c #6FB99B",
"c  c #6EBA9B",
"v  c #76BD96",
"b  c #70BB9D",
"n  c #72BD9E",
"m  c #74BEA0",
"M  c #74BFA1",
"N  c #75BFA1",
"B  c #77C1A3",
"V  c #77C2A4",
"C  c #77C3A4",
"Z  c #79C3A3",
"A  c #7EC6A3",
"S  c #78C1A4",
"D  c #78C2A4",
"F  c #79C3A4",
"G  c #7EC5A4",
"H  c #82C28F",
"J  c #83C28F",
"K  c #93CF98",
"L  c #B5E49A",
"P  c #B2E49E",
"I  c #B3E49E",
"U  c #B2E49F",
"Y  c #B3E49F",
"T  c #B2E59F",
"R  c #B3E59F",
"E  c #B6E69D",
"W  c #B6E79F",
"Q  c #B7E79F",
"!  c #BAE99F",
"~  c #BEEA9C",
"^  c #BCEA9F",
"/  c #BEEB9F",
"(  c #85CAA3",
")  c #8ACCA3",
"_  c #91D1A2",
"`  c #92D1A2",
"'  c #92D2A2",
"]  c #93D2A2",
"[  c #9CD7A2",
"{  c #9DD8A1",
"}  c #9DD8A2",
"|  c #A5DCA1",
" . c #A9DFA0",
".. c #A8DEA1",
"X. c #B3E5A0",
"o. c #B3E6A0",
"O. c #BBEAA0",
"+. c #BFECA0",
"@. c #C3ED9D",
"#. c #C7F09E",
"$. c #C7F19F",
"%. c #C8F29F",
"&. c #CBF39F",
"*. c #CBF49F",
"=. c #CCF49F",
"-. c #CDF49F",
";. c #CDF59F",
":. c #C1EDA0",
">. c #CDF5A0",
/* pixels */
"                                                              D D D D D                                                         ",
"                                                            D D D D D D D D                                                     ",
"                                                          D D D D D D D D D 4                                                   ",
"                                                        D D D D D D D D D B 4 7                                                 ",
"                                                        D D D D D D D D D D 4 1                                                 ",
"                                                      D D D D D D D D D D D 1 1                                                 ",
"                                                  # . B D D D D D D D D D D j 1 . .                                             ",
"                                              F D o . B D D D D D D D D D D B 1 . . 1 1                                         ",
"                                            D D D m . X D D D D D D D D D D D f . . 1 1 1                                       ",
"                          =.=.=.*.        D D D D D . . D D D D D D D D D D D X . # 1 1 1 1                                     ",
"                          =.=.=.=.=.      D D D D D 7 X D D D D D D D D D D B X . 1 1 1 1 1 1                                   ",
"                          =.=.=.=.=.=.  B D D D D D D D D D D D D D D D D D D D B 1 1 1 1 1 1                                   ",
"                          =.=.=.=.=.=.=.D D D D D D D D D D D D D D D D D D D D B m 1 1 1 1 1                                   ",
"                            =.=.=.=.=.=.D D D D D D D D D D D D D D D D D D D D D D 1 1 1 1 4 4                                 ",
"                            >.=.=.=.=.=.D D D D D D D D D D D D D D D D D D D D D D 1 1 1 1 1 4                                 ",
"                                =.=.=.>.D D D D D D D D D D D D D D D D D D D D D B 1 1 1 1 1                                   ",
"                                    =.=.Z D D D D D D D D D D D D D D D D D D D D f 1 1 1 1 ;   =.=.                            ",
"                                      . . D D D D D D D +.] D D D D D R R  .D D D f 1 1 1 4 6 L =.=.=.                          ",
"                                    D . . 7 D D D D D =.&.=.=.=.[ D D R R R D D D D 1 1 1 1 . =.=.=.=.=.                        ",
"                                    D D . . d D D D D :.=.=.=.=.=.=.R R R R R D D D 1 1 1 . ^ =.=.=.=.=.                        ",
"                                  D D D Z X . B D D D G =.=.=.=.=.=.=.R R R R D D D D 1 # . =.=.=.=.=.=.                        ",
"                                  D D D B D D D D D D D =.=.=.=.=.=.=.^ R R R D D D D D 1 6 =.=.=.=.=.=.  R R R                 ",
"                                  D D D D D D D D D D D *.=.=.=.=.=.=.=.R R o.D D D D D b ; =.=.=.=.=.=.Q R R R                 ",
"                                  D D D D D D D D D D D D =.=.=.=.=.=.=.R R R D D D D D Z 6 =.=.=.=.=.=.R R R R                 ",
"                                  D D D D D D D D D D D D D =.=.=.=.=.=.R R D D D D D D D 7 R &.=.=.=.=.R R R o.                ",
"                                  D D 6 . . @ m D D D D D D D &.=.=.=.&.! ) D D D D D D 1 X . &.=.=.=.^ R R R                   ",
"                                  X X . . . . . . . D D D D D D D D | +.{ D D D D 7 . . X X . J =.=.=.R R R o.                  ",
"                                    X d D D D # . . . D D D D D D D D D D D D D ; . . X z D 1 1 &.=.R R R                       ",
"                        =.=.=.    D D D D D D D D z ; D D D D D D D D D D D D D D X B D D D 1 1 ; 1 f                           ",
"                        =.=.=.X.D D D D D D D D D D D D D D D D D D D D D D D D D D D D D D 1 1 1 1 1 1                         ",
"                      =.=.=.=.=.D D D D D D D D D D D D D D D D D D D D D D D D D D D D D D 1 1 1 1 1 1 ;                       ",
"                      =.=.=.=.=.] D D D D D D D D D D D D D D D D D D D D D D D D D D D D D 1 1 1 1 1 1 2 4                     ",
"                      =.=.=.=.=.>.D D D D D D D D D D D D D D D D D D D D D D D D D D D D D D 4 1 1 1 1 1 1                     ",
"            X.R R R *.=.=.=.=.=.>.D D D D D D D D D D D D D D D D D D D D D D D D D D D D D D 7 1 1 1 1 1 1 7                   ",
"            R R R R $.=.=.=.=.=.>.B D D D D D D D D D D D D D D D D D D D D D D D D D D D D D D 1 1 1 1 1 1 1                   ",
"              R R R Q =.=.=.=.=.>.B D D D D D D D D D D D D D D D D D D D D D D D D D D D D D D 1 1 1 1 1 1 1                   ",
"              R R R R =.=.=.=.=.X . . B D D D D D D D D D D D D D D D D D D D D D D D D D D D D 7 4 1 1 1 1 1                   ",
"              R R R R $.=.=.=.=.. . X B D D D D D D D D D D D D D D D D D D D D D D D D D D D D c 1 1 1 1 1 s =.>.              ",
"                R R R R *.*.>.; D D B B D D D D D D D D D D D D D D D D D D D D D D D D D D D D z 1 1 1 1 *.*.=.*.              ",
"                    R R X.>.G D D D D D D D D D D D D D D D D D ( =.=.D D D D D D D D D D D D D 1 1 1 1 >.*.*.=.=.              ",
"                          D D D D D D D D D D D D D D D D D B D =.=.=. .D D D D D D D D D D D D 1 1 1 =.=.=.=.=.=.              ",
"                        D D D D D D D D D D D D D D D D D D B [ =.=.&.>.D D D D D D D D D D D D 1 1 1 =.=.=.=.=.=.              ",
"                      D D D D D D D D D D D D D D D D D D D D >.=.=.&.=.D D D D D D D D D D ; & 1 1 v =.=.=.=.=.7               ",
"                    B D D D D D D D D D D D D D D D D D D D D >.=.=.=.=.D D D D D D D D D D X X . . K =.=.=.=.1 4               ",
"                    D D D D D D D D D D D D D D D D D D D D B >.=.=.=.=.D D D D D D D D D b 1 & . . . J =.7 1 1 1               ",
"                    D D D D D D D D D D D D D D D D D D D D D ' =.=.=.&.D D D D D D D D 1 1 1 1 1 1 . . - 1 1 1 1 f             ",
"                    D D D D D D D D D D D D D D D D D D D D B D =.=.=.] D D D D D D 1 1 1 1 1 1 1 1 1 . . 1 1 1 1 1             ",
"                    1 1 4 D D D D D D D D D D D D D D D D D B B D @.=.D 7 4 1 1 1 1 1 1 1 1 1 1 1 1 1 X X & 1 1 1 1             ",
"                    1 1 1 1 D D D D D D D D D D D D D D B D X . . X . . X ; 1 1 1 1 1 1 1 1 1 1 1 1 1 1 . . ; 1 1 7             ",
"                    1 1 1 1 1 D D D D D D D D D D D D D B X X X . ; o . X . X 1 1 1 1 1 1 1 1 1 1 1 1 1 & 1 4 4 4               ",
"                      1 1 1 1 b D D D D D D D D D D D D D X & D B B 1 1 1 . $ 1 1 1 1 1 1 1 1 1 1 1 1 1 1 1 1 1 ;               ",
"                      1 1 1 1 1 M D D D D D D D D D D D D D D B D 1 1 1 1 1 1 1 1 1 1 1 1 1 1 1 1 1 1 1 1 1 1 1                 ",
"                        1 1 1 1 1 f B D B F B F D D D D D D D m 1 1 1 1 1 1 1 1 1 1 1 1 1 1 1 1 1 1 1 1 1 1 1 1                 ",
"                          1 1 1 1 1 1 B F B F B D D D D D D 1 1 1 1 1 1 1 1 1 1 1 1 1 1 1 1 1 1 1 1 1 1 1 1 1                   ",
"                            1 1 1 1 1 1 4 f B F D D D f 1 1 1 1 1 1 1 1 1 1 1 1 1 1 1 1 1 1 1 1 1 1 1 4 1 4                     ",
"                                1 1 1 1 1 1 4 4 1 1 1 1 1 1 1 1 1 1 1 1 1 1 1 1 1 1 1 1 4 4 1 1 1 1 1 7                         ",
"                                              4 1 1 1 1 1 1 1 1 1 1 1 1 1 1 1 1 1 1 1 1 1                                       ",
"                                              4 1 1 1 1 1 1 1 1 1 1 1 1 1 1 1 1 1 1 1 1                                         ",
"                                                1 1 1 1 1 1 1 1 1 1 1 1 1 1 1 1 1 1 1 1                                         ",
"                                                f 1 1 1 1 1 1 1 1 1 1 1 1 1 1 1 1 1 1                                           ",
"                                                  7 1 1 1 1 1 1 1 1 1 1 1 1 1 1 4 4                                             ",
"                                                    7 1 1 1 1 1 1 1 1 1 1 1 1 1 4                                               ",
"                                                        1 1 1 1 1 1 1 1 1 1 1 f                                                 ",
"                                                            7 1 1 1 1 1 1                                                       "
};
