/* XPM */
static char *bud1631983307[] = {
/* columns rows colors chars-per-pixel */
"64 64 130 2 ",
"   c None",
".  c #000000",
"X  c #060806",
"o  c #080A07",
"O  c #060A08",
"+  c #090E0B",
"@  c #0C110D",
"#  c #12160E",
"$  c #0C1512",
"%  c #0F1915",
"&  c #131A13",
"*  c #181D13",
"=  c #121E19",
"-  c #1C2116",
";  c #14221D",
":  c #1E2519",
">  c #1F281B",
",  c #21271A",
"<  c #232B1C",
"1  c #172620",
"2  c #172821",
"3  c #1A2C25",
"4  c #1D2F28",
"5  c #1E332B",
"6  c #242F20",
"7  c #2D3724",
"8  c #2C3927",
"9  c #20342C",
"0  c #303925",
"q  c #353F29",
"w  c #233B31",
"e  c #36412B",
"r  c #3C482F",
"t  c #254136",
"y  c #284137",
"u  c #2A453A",
"i  c #2B493D",
"p  c #3F4E34",
"a  c #404D32",
"s  c #475537",
"d  c #4D5C3C",
"f  c #51613F",
"g  c #2D4E41",
"h  c #304E42",
"j  c #2E5243",
"k  c #335245",
"l  c #355649",
"z  c #345B4B",
"x  c #395D4E",
"c  c #3A5E50",
"v  c #3C6353",
"b  c #3D6C5A",
"n  c #4C6143",
"m  c #556542",
"M  c #596A45",
"N  c #546B4A",
"B  c #5E714A",
"V  c #406757",
"C  c #416A59",
"Z  c #43705E",
"A  c #62764D",
"S  c #64784E",
"D  c #617C56",
"F  c #447461",
"G  c #497563",
"H  c #467A65",
"J  c #4B7966",
"K  c #4B7E69",
"L  c #68855C",
"P  c #748B5A",
"I  c #7A915F",
"U  c #4A826C",
"Y  c #51836F",
"T  c #4D8770",
"R  c #4E8A72",
"E  c #528671",
"W  c #558974",
"Q  c #529077",
"!  c #54937A",
"~  c #5C957D",
"^  c #57997E",
"/  c #6D8B61",
"(  c #709064",
")  c #7B9360",
"_  c #759568",
"`  c #7EA270",
"'  c #829B65",
"]  c #86A068",
"[  c #8AA56B",
"{  c #84A975",
"}  c #95B274",
"|  c #9CBB7A",
" . c #A0BF7D",
".. c #A3C37F",
"X. c #5E9780",
"o. c #5A9C81",
"O. c #619D85",
"+. c #5CA286",
"@. c #5EA488",
"#. c #63A087",
"$. c #65A48A",
"%. c #68A78D",
"&. c #62AB8D",
"*. c #68A88E",
"=. c #64AE90",
"-. c #6BAD92",
";. c #66B394",
":. c #6BB496",
">. c #6CB598",
",. c #6DB99A",
"<. c #70B699",
"1. c #72BC9E",
"2. c #75BFA1",
"3. c #77C1A3",
"4. c #78C2A4",
"5. c #93BC82",
"6. c #9EC98C",
"7. c #A7C882",
"8. c #AACB84",
"9. c #AED087",
"0. c #AFD289",
"q. c #B7DB8F",
"w. c #B8DC8F",
"e. c #A2CF90",
"r. c #A5D393",
"t. c #ADDE9A",
"y. c #BEE394",
"u. c #B2E49E",
"i. c #C5EB99",
"p. c #CCF49F",
/* pixels */
"                                                              . . . . .                                                         ",
"                                                            . . . @ + . . .                                                     ",
"                                                        . . O C :.4.4.%.l . .                                                   ",
"                                                        . + #.4.4.4.4.4.4.E . .                                                 ",
"                                                      . . E 4.4.4.4.4.4.4.4.z . .                                               ",
"                                                      . ; 4.4.4.4.4.4.4.4.4.=.. .                                               ",
"                                                  . . . h 4.4.4.4.4.4.4.4.4.,.; . . .                                           ",
"                                                . . . . k 4.4.4.4.4.4.4.4.3.1.3 . . . . .                                       ",
"                          . .                 <.x J ~ . w 4.4.4.4.4.4.4.4.4.2.$ X o.v O . .                                     ",
"                        . . . . . .         4.4.4.4.2.o X -.4.4.4.4.4.4.4.4.W . 3 ;.;.+.; . .                                   ",
"                        . . d m , . . .   . E 4.4.4.4.x . c 4.4.4.4.4.4.4.4.w . K ;.;.;.+.@ .                                   ",
"                          . A p.p.[ @ . . . O.4.4.4.4.<.u ~ 4.4.4.4.4.4.4.4.Y l 2.;.;.;.;.Z . .                                 ",
"                          . 7 p.p.p...X . 3 4.4.4.4.4.4.4.4.4.4.4.4.4.4.4.4.4.4.3.,.;.;.;.;.O .                                 ",
"                          . . | p.p.p.m . k 4.4.4.4.4.4.4.4.4.4.4.4.4.4.4.4.4.4.4.,.;.;.;.;.3 .                                 ",
"                            . * 0.p.p.) . v 4.4.4.4.4.4.4.4.4.4.4.4.4.4.4.4.4.4.4.1.;.;.;.;.w .                                 ",
"                            . . + S  .' . k 4.4.4.4.4.4.4.4.4.4.4.4.4.2.X.2.4.4.4.1.;.;.;.;.1 . . .                             ",
"                              . . . . . . ; 4.4.4.4.4.<.*.2.4.4.4.4.4.u . w 4.4.4.,.;.;.;.@.X . . o .                           ",
"                                    . . . . ~ 4.4.4.O.. . . 1 l O.4.J . . . C 4.4.,.;.;.;.v . . S [ . .                         ",
"                                    . . 9 . ; 1.4.4.Y . # * . . . w o X ( X o <.4.,.;.;.o.O . : i.p.p .                         ",
"                                  . . k 2.w . 3 1.4.~ . s p.w.P - . . n u.N . c 4.3.;.^ $ . . I p.p.| . .                       ",
"                                  . @ 1.4.<.4 . W 4.<.. , p.p.p.i.s . : t.6.. ; 4.4.1.z . . . y.p.p.p.* . . . . .               ",
"                                  . x 4.4.4.1.E 2.4.4.= . 9.p.p.p.p.q . D u.+ o 4.4.4.&.U . @ p.p.p.p.e . . o X .               ",
"                                . . W 4.4.4.4.4.4.4.4.v . m p.p.p.p.8.. - t.. $ 4.4.4.4.:.O X p.p.p.p.7 . ` u.& .               ",
"                                . . O.4.4.4.4.4.4.4.4.<.o . } p.p.p.p.8 . L . w 4.4.4.4.1.1 . 8.p.p.i.+ o u.6.. .               ",
"                                . . W 4.4.4.4.4.4.4.4.4.K . o ) p.p.p.B . X . W 4.4.4.4.4.c . m p.p.) . p u.N . .               ",
"                                  . c 4.4.4.4.4.4.4.4.4.4.C . . - A [ M . . 5 4.4.4.4.4.4.&.X X ..i.& . 5.{ X .                 ",
"                          . .     . $ ~ C l h v E 1.4.4.4.4.~ 9 . . . . . @ -.4.4.4.-.K c i % . - e . 8 n . .                   ",
"                        . . . .   . . . . . . . . X k <.4.4.4.4.%.G k y u $.4.4.%.w X . . . . . . . . . . .                     ",
"                        . , < . . . . 9 V Y W G u o . u 4.4.4.4.4.4.4.4.4.4.4.4.& . $ k J E F z ; . . .                         ",
"                      . . 8.8.X . ; ~ 4.4.4.4.4.4.<.v ~ 4.4.4.4.4.4.4.4.4.4.4.4.J F 2.2.3.,.;.;.;.H $ . .                       ",
"                      . m p.p.M . V 4.4.4.4.4.4.4.4.4.4.4.4.4.4.4.4.4.4.4.4.4.4.4.4.4.4.4.2.;.;.;.;.+.; $                       ",
"                    . . 8.p.p.0.. ; 4.4.4.4.4.4.4.4.4.4.4.4.4.4.4.4.4.4.4.4.4.4.4.4.4.3.3.3.;.;.;.;.;.;.;.                      ",
"            . . . . . @ p.p.p.p.# X 4.4.4.4.4.4.4.4.4.4.4.4.4.4.4.4.4.4.4.4.4.4.4.4.4.4.4.4.,.;.;.;.;.;.;.,.                    ",
"            . o N 6 . , p.p.p.p.< . <.4.4.4.4.4.4.4.4.4.4.4.4.4.4.4.4.4.4.4.4.4.4.4.4.4.4.4.3.,.;.;.;.;.;.z .                   ",
"            . . r.u.X + p.p.p.p.# X 4.4.4.4.4.4.4.4.4.4.4.4.4.4.4.4.4.4.4.4.4.4.4.4.4.4.4.4.4.1.;.;.;.;.;.w .                   ",
"            . . _ u.7 . | p.p. .. 3 4.4.4.4.4.4.4.4.4.4.4.4.4.4.4.4.4.4.4.4.4.4.4.4.4.4.4.4.4.4.;.;.;.;.;.j .                   ",
"              . , t./ . r p.p.a . C -.O.4.4.4.4.4.4.4.4.4.4.4.4.4.4.4.3.4.4.4.4.4.4.4.4.4.4.4.4.,.;.;.;.;.i . . . .             ",
"              . . e e.> . ' ] . . . . . K 4.4.4.4.4.4.4.4.4.4.4.-.3 y 2.4.4.4.4.4.4.4.4.4.4.4.4.:.;.;.^ ; . . . . .             ",
"                . . + , . X o . . $ w k -.4.4.4.4.4.4.4.4.4.4.4.4 . . k 4.4.4.4.4.4.4.4.4.4.4.4.;.;.! @ . 8 [ | . .             ",
"                  . . . . . . 5 ~ 2.4.4.4.4.4.4.4.4.4.4.4.4.4.C . < # . X.4.4.4.4.4.4.4.4.4.4.4.;.;.; . B p.p.[ . .             ",
"                        . . C 4.4.4.4.4.4.4.4.4.4.4.4.4.4.4.1.@ X 7.' . 5 4.4.4.4.4.4.4.4.4.4.1.;.K . 7 p.p.p.d .               ",
"                      . . C 4.4.4.4.4.4.4.4.4.4.4.4.4.4.4.4.E . s p.p.- . -.4.4.4.4.4.4.4.4.4.,.;.g . ' p.p.8.X .               ",
"                      . 9 4.4.4.4.4.4.4.4.4.4.4.4.4.4.4.4.4.v . I p.p.f . W 4.4.4.4.4.4.4.^ ; 5 v ; . ..p.} # . .               ",
"                    . . ~ 4.4.4.4.4.4.4.4.4.4.4.4.4.4.4.4.4.x . ' p.p.M . Y 4.4.4.4.4.4.4.W . . . . . d < . . ; . .             ",
"                    . % 4.4.4.4.4.4.4.4.4.4.4.4.4.4.4.4.4.4.J . M p.p.7 . O.4.4.4.4.3.3.2.;.&.T i . . . . ; F +.. .             ",
"                    . w 4.4.4.4.4.4.4.4.4.4.4.4.4.4.4.4.4.4.-.X + w.| . = 4.4.4.4.4.3.,.;.;.;.;.;.R X . b ;.;.;.@ .             ",
"                    . u 1.4.4.4.4.4.4.4.4.4.4.4.4.4.4.4.4.4.4.k . e - . J 1.1.,.,.:.;.;.;.;.;.;.;.;.F . ; ;.;.;.= .             ",
"                    . 5 ;.:.2.4.4.4.4.4.4.4.4.4.4.4.4.4.4.4.<.v . . . X F =.;.;.;.;.;.;.;.;.;.;.;.;.;.% . ^ ;.;.@ .             ",
"                    . $ ;.;.;.3.4.4.4.4.4.3.9 C 4.4.4.4.4.E @ . . . . . . % Q ;.;.;.;.;.w j ;.;.;.;.;.b O o.;.+.. .             ",
"                    . . ! ;.;.:.3.4.4.4.4.O.. w 4.4.4.4.4.; . u ~ >.+.K 3 . t ;.;.;.;.;.@ X ;.;.;.;.;.;.;.;.;.b . .             ",
"                      % +.;.;.;.,.3.4.3.4.Y . l 4.4.4.4.4.*.$.4.3.>.;.;.;.T +.;.;.;.;.;.3 . o.;.;.;.;.;.;.;.&.$ .               ",
"                        ,.;.;.;.;.,.3.3.4.J . v 4.4.4.4.4.4.4.4.>.;.;.;.;.;.;.;.;.;.;.;.5 . ! ;.;.;.;.;.;.;.t . .               ",
"                          H K ;.;.;.;.3.4.Y . x 4.4.4.4.4.4.1.:.;.;.;.;.;.;.;.;.;.;.;.;.5 . o.;.;.;.;.;.&.u . .                 ",
"                          X . 5 Q ;.;.;.>.! . u 4.4.3.3.,.,.;.;.;.;.;.;.;.;.;.;.;.;.;.;.% . &.;.;.;.;.U ; . .                   ",
"                            . . . % w u w % . $ :.:.;.;.;.;.;.;.;.;.;.;.;.;.;.;.;.;.;.@.. . ; t u 5 @ . . .                     ",
"                                . . . . . . . . R ;.;.;.;.;.;.;.;.;.;.;.;.;.;.;.;.;.;.b . . . . . . . .                         ",
"                                              . w ;.;.;.;.;.;.;.;.;.;.;.;.;.;.;.;.;.;.% .                                       ",
"                                              . . U ;.;.;.;.;.;.;.;.;.;.;.;.;.;.;.;.z . .                                       ",
"                                                . @ o.;.;.;.;.;.;.;.;.;.;.;.;.;.;.U . .                                         ",
"                                                . . $ ^ ;.;.;.;.;.;.;.;.;.;.;.;.U O .                                           ",
"                                                  . . O b =.;.;.;.;.;.;.;.;.&.j . .                                             ",
"                                                      . . $ z Q ;.;.;.=.T j O . .                                               ",
"                                                        . . . . . @ + . . . . .                                                 ",
"                                                              . . . . . .                                                       "
};
