/* XPM */
static char *_e7ee95988234b71a497afa0d2d9bfdaZvZu0VYW69JVeiJG[] = {
/* columns rows colors chars-per-pixel */
"64 64 141 2 ",
"   c None",
".  c black",
"X  c #000100",
"o  c #010100",
"O  c #010101",
"+  c #010201",
"@  c #020201",
"#  c #020302",
"$  c #030402",
"%  c #040502",
"&  c #040603",
"*  c #060704",
"=  c #070A05",
"-  c #080B05",
";  c #090C06",
":  c #0A0D07",
">  c #0C1108",
",  c #0D1109",
"<  c #0D1209",
"1  c #0E1209",
"2  c #0E130A",
"3  c #11170B",
"4  c #11170C",
"5  c #13190C",
"6  c #13190D",
"7  c #131A0D",
"8  c #141B0E",
"9  c #151C0E",
"0  c #161E0F",
"q  c #171F0F",
"w  c #181F10",
"e  c #182010",
"r  c #192211",
"t  c #1A2311",
"y  c #1B2412",
"u  c #1D2613",
"i  c #1C2713",
"p  c #1D2714",
"a  c #1E2914",
"s  c #1F2915",
"d  c #202B16",
"f  c #222E17",
"g  c #232E17",
"h  c #232F18",
"j  c #243018",
"k  c #253219",
"l  c #263219",
"z  c #27341A",
"x  c #28351B",
"c  c #2B391D",
"v  c #2C3B1E",
"b  c #2E3D1F",
"n  c #2E3E1F",
"m  c #2F3F20",
"M  c #304020",
"N  c #304120",
"B  c #314121",
"V  c #324221",
"C  c #324322",
"Z  c #344623",
"A  c #354724",
"S  c #3A4E27",
"D  c #3B4F27",
"F  c #3C5028",
"G  c #3D5129",
"H  c #3D5229",
"J  c #40562B",
"K  c #41562B",
"L  c #41572C",
"P  c #42592C",
"I  c #43592D",
"U  c #455C2E",
"Y  c #455D2F",
"T  c #465E2F",
"R  c #486030",
"E  c #486131",
"W  c #4A6231",
"Q  c #4D6734",
"!  c #4E6834",
"~  c #4F6A35",
"^  c #506B36",
"/  c #516C36",
"(  c #536F38",
")  c #547139",
"_  c #557139",
"`  c #567239",
"'  c #56733A",
"]  c #59773C",
"[  c #5B7A3D",
"{  c #5C7A3E",
"}  c #5C7B3E",
"|  c #5D7C3E",
" . c #5E7D3F",
".. c #5F7F40",
"X. c #618141",
"o. c #628342",
"O. c #638442",
"+. c #668844",
"@. c #678A45",
"#. c #6A8D47",
"$. c #6C9149",
"%. c #6D9249",
"&. c #6E924A",
"*. c #6E934A",
"=. c #70954B",
"-. c #73994D",
";. c #759C4F",
":. c #769D4F",
">. c #769E4F",
",. c #779F50",
"<. c #78A151",
"1. c #79A251",
"2. c #7BA452",
"3. c #7DA654",
"4. c #80AB56",
"5. c #84B059",
"6. c #85B159",
"7. c #85B259",
"8. c #88B55B",
"9. c #89B75C",
"0. c #8AB85C",
"q. c #8AB95D",
"w. c #8BB95D",
"e. c #8BBA5E",
"r. c #8DBD5F",
"t. c #8FBE60",
"y. c #90C060",
"u. c #93C463",
"i. c #93C563",
"p. c #96C865",
"a. c #97C965",
"s. c #97CA65",
"d. c #98CB66",
"f. c #99CC67",
"g. c #9ACD67",
"h. c #9ACE68",
"j. c #9CD068",
"k. c #9CD169",
"l. c #9DD169",
"z. c #9DD26A",
"x. c #9ED36A",
/* pixels */
"                                                              . .                                                               ",
"                                                              . .                                                               ",
"                                                            . . . .                                                             ",
"                                                            . . . .                                                             ",
"                                                            . . . .                                                             ",
"                                                            . . . .                                                             ",
"                                                          . . . . . .                                                           ",
"                                                        . . . 4 5 . . .                                                         ",
"                                                      . . . . D S . . . .                                                       ",
"                                                      . . 2 Z 9.0.A 2 . .                                                       ",
"                                                      . . ( x.x.x.x.( . .                                                       ",
"                                                    . . . <.x.x.x.x.<.. . .                                                     ",
"                                                    . . * h.x.x.x.x.h.* . .                                                     ",
"                                                    . . x x.x.x.x.x.x.x . .                                                     ",
"                                                . . . . Q x.x.x.x.x.x.! . . . .                                                 ",
"                                                . . . . ,.x.x.x.x.x.x.>.. . . .                                                 ",
"                                                . . 3 T x.x.x.x.x.x.x.x.U 3 . .                                                 ",
"                                                . . R x.x.x.x.x.x.x.x.x.x.W . .                                                 ",
"                                                . . W x.x.x.x.x.x.x.x.x.x.R . .                                                 ",
"                                                . . W x.x.x.x.x.x.x.x.x.x.W . .                                                 ",
"                                                . . R x.x.x.x.x.x.x.x.x.x.W . .                                                 ",
"                                              . . . R x.x.x.x.x.x.x.x.x.x.R . . .                                               ",
"                                            . . . . ^ x.x.x.x.x.x.x.x.x.x./ . . . .                                             ",
"                                            . . . g e.x.x.x.x.x.x.x.x.x.x.e.g . . .                                             ",
"                                              . . #.x.x.x.x.x.x.x.x.x.x.x.x.#.. .                                               ",
"      . .                                     . . U x.x.x.x.x.x.x.x.x.x.x.x.U . .                                     . .       ",
"      . . . .                                 . . u x.x.x.x.x.x.x.x.x.x.x.x.d . .                                 . . . . .     ",
"      . . . . . . .                           . . . i.x.x.x.x.x.x.x.x.x.x.d.. . .                           . . . . . . .       ",
"        . . . . . . . .                       . . . %.x.x.x.x.x.x.x.x.x.x.-.. . .                       . . . . . . . .         ",
"        . . . . . . . . . . .               . . . . ] x.x.x.x.x.x.x.x.x.x.| . . . .               . . . . . . . . . . .         ",
"          . . ; ,.<.e . . . . .             . . . 2 6.x.x.x.x.x.x.x.x.x.x.6.2 . . .             . . . . . e >.,.; . .           ",
"          . . c x.x.f.R . . . . .             . . 7 x.x.x.x.x.x.x.x.x.x.x.x.9 . .             . . . . $ R f.x.x.c . .           ",
"          . . . 3.x.x.x.3.{ G . . . . .       . . . +.x.x.x.x.x.x.x.x.x.x.@.. . .       . . . . . F | 3.x.x.x.3.. . .           ",
"            . . y f.x.x.x.x.x.T . . . . .       . . e x.x.x.x.x.x.x.x.x.x.e . .       . . . . . E x.x.x.x.x.h.y . .             ",
"            . . . Q x.x.x.x.x.x.T . . . .       . . . %.x.x.x.x.x.x.x.x.%.. . .       . . . . U x.x.x.x.x.x.! . . .             ",
"              . . $ x.x.x.x.x.x.x.=.L . . .       . . a x.x.x.x.x.x.x.x.d . .       . . . I =.x.x.x.x.x.x.x.$ . $               ",
"              . . . f.x.x.x.x.x.x.x.x.m . . . . . . . . u.x.x.x.x.x.x.u.. . . . . . . . m x.x.x.x.x.x.x.x.f.. . .               ",
"              . . . c f.x.x.x.x.x.x.x.r.; . . . . . . j x.x.x.x.x.x.x.x.h . . . . . . ; r.x.x.x.x.x.x.x.f.v . . .               ",
"                . . . v d.x.x.x.x.x.x.x.O.. . . . . . %.x.x.x.x.x.x.x.x.%.. . . . . . X.x.x.x.x.x.x.x.h.v . . .                 ",
"                  . . . B x.x.x.x.x.x.x.x.3.9 . . . . B x.x.x.x.x.x.x.x.B . . . . 9 3.x.x.x.x.x.x.x.x.Z . . .                   ",
"                    . . . 9.x.x.x.x.x.x.x.x.| . . . . $ u.x.x.x.x.x.x.r.$ . . . . { x.x.x.x.x.x.x.x.f.$ . .                     ",
"                    . . . m t.x.x.x.x.x.x.x.a.- . . . . ` x.x.x.x.x.x.` . . . . ; a.x.x.x.x.x.x.x.t.N . . .                     ",
"                      . . . ; O.x.x.x.x.x.x.x.L . . . . 9 x.x.x.x.x.x.w . . . . L x.x.x.x.x.x.x.O.; . . .                       ",
"                        . . . . U x.x.x.x.x.x.t.j % . . . <.x.x.x.x.<.. . . . j y.x.x.x.x.x.x.E . . . .                         ",
"                          . . . . ,.x.x.x.x.x.x.x.' . . . G x.x.x.x.G . . . ) x.x.x.x.x.x.x.,.. . . .                           ",
"                            . . . . e | a.x.x.x.x.a.2 . . = a.x.x.d.- . . 2 a.x.x.x.x.p.| e . . . .                             ",
"                              . . . . . 2 9.x.x.x.x.' . . . X.x.x.X.. . . ` x.x.x.x.9.2 . . . . .                               ",
"                                  . . . . D x.x.x.x.f.2 . . j x.x.g . . 2 a.x.x.x.x.D . . . .                                   ",
"                                    . . . . e #.x.x.x.' . . . 6.6.. . . ` x.x.x.@.y . . . .                                     ",
"                                      . . . . . e @.x.f.2 . . R R . . 2 a.x.@.y . . . . .                                       ",
"                                . . . . . . . . . . e @.` . . 2 2 . . ` @.e . . . . . . . . . .                                 ",
"                            . . . . . . . . . . . . . . 7 . . . . . . 5 . . . . . . . . . . . . . .                             ",
"                        . . . . . 9 x F X.G I 5 . . . . . . . . . . . . . . . . 5 K G X.D x 3 . . . . .                         ",
"                    . . . . . j ! f.x.x.x.x.z.h.%.*.R > . . . . . . . . 2 R %.%.f.x.x.x.x.x.d.! a . . . . .                     ",
"                    . . . . u x.x.x.x.x.x.x.x.x.x.x.x.6.e . . . . . . e 5.x.x.x.x.x.x.x.x.x.x.x.j.p . . . .                     ",
"                    . . . . . = B 0.x.x.x.x.x.0./ ` m . . . . . . . . . . N ` ~ 0.x.x.x.x.x.e.B = . . . . .                     ",
"                          . . . . $ ; a T a j * . . . . . . . . . . . . . . . . % y a T a ; % . . . .                           ",
"                            . . . . . . . . . . . . . .       . .       . . . . . . . . . . . . . .                             ",
"                                . . . . . . . . . .           . .           . . . . . . . . . .                                 ",
"                                                              . .                                                               ",
"                                                              . .                                                               ",
"                                                              . .                                                               ",
"                                                              . .                                                               ",
"                                                              . .                                                               "
};
