/* XPM */
static char *_17fe7d5e90d4e30988c2fa95021a0ffwLbVLMk7wvz6xwPS[] = {
/* columns rows colors chars-per-pixel */
"64 64 192 2 ",
"   c #4F3C30",
".  c #554134",
"X  c #4F503D",
"o  c #634C3B",
"O  c #69513F",
"+  c #5B4F43",
"@  c #545542",
"#  c #565843",
"$  c #5C5D41",
"%  c #585955",
"&  c #645143",
"*  c #625E46",
"=  c #695843",
"-  c #685549",
";  c #6D5B49",
":  c #705744",
">  c #725946",
",  c #755C49",
"<  c #6F5A50",
"1  c #566B4A",
"2  c #5F774F",
"3  c #5B7153",
"4  c #606446",
"5  c #7D634E",
"6  c #74684E",
"7  c #6A6855",
"8  c #736153",
"9  c #7D6352",
"0  c #766C56",
"q  c #6A7653",
"w  c #727252",
"e  c #797354",
"r  c #72755C",
"t  c #7A7559",
"y  c #7D7C5B",
"u  c #6C6C67",
"i  c #787866",
"p  c #757169",
"a  c #717F6B",
"s  c #777570",
"d  c #856954",
"f  c #876B56",
"g  c #8E715A",
"h  c #857C5D",
"j  c #94755D",
"k  c #887C67",
"l  c #867D6D",
"z  c #997D66",
"x  c #847F76",
"c  c #5D8458",
"v  c #668B5B",
"b  c #71865B",
"n  c #6D8B67",
"m  c #748B65",
"M  c #6D9161",
"N  c #7B9566",
"B  c #76926C",
"V  c #7A9B69",
"C  c #6E8373",
"Z  c #7C8974",
"A  c #6AA267",
"S  c #6BA56B",
"D  c #6CAA6D",
"F  c #73A96D",
"G  c #6CB06A",
"H  c #66BF6F",
"J  c #6DA979",
"K  c #73AE70",
"L  c #7AAE73",
"P  c #7AA678",
"I  c #7AAE7B",
"U  c #6DBC76",
"Y  c #64BA7D",
"T  c #76B273",
"R  c #7AB475",
"E  c #72BC77",
"W  c #7AB27B",
"Q  c #75BE7A",
"!  c #78BF7D",
"~  c #6FC277",
"^  c #6EC17C",
"/  c #73C47B",
"(  c #868461",
")  c #8B8563",
"_  c #8C8965",
"`  c #8D806F",
"'  c #829667",
"]  c #86986B",
"[  c #888775",
"{  c #968A78",
"}  c #9A8C79",
"|  c #819076",
" . c #A08A75",
".. c #A1907B",
"X. c #82AF7C",
"o. c #83B07E",
"O. c #6A9E98",
"+. c #7A9095",
"@. c #7B9399",
"#. c #74AB84",
"$. c #73AE89",
"%. c #61B882",
"&. c #6EBC86",
"*. c #6DBC8A",
"=. c #7ABF80",
"-. c #74B589",
";. c #63AC9D",
":. c #68B396",
">. c #61B896",
",. c #6BB99E",
"<. c #5A9FBD",
"1. c #6E98A8",
"2. c #7599A3",
"3. c #7B9DA2",
"4. c #789EAA",
"5. c #5FA6AA",
"6. c #5FA7B2",
"7. c #69AFA3",
"8. c #64A5AD",
"9. c #74A6A7",
"0. c #66B5A5",
"q. c #6FBEA3",
"w. c #6EBDAF",
"e. c #75BBAC",
"r. c #6DA7B6",
"t. c #62ABB4",
"y. c #6DAEB1",
"u. c #72A3B4",
"i. c #76A9BA",
"p. c #65B1BC",
"a. c #6BB4BB",
"s. c #7EB0BD",
"d. c #77B8BB",
"f. c #74C483",
"g. c #79C680",
"h. c #71C28C",
"j. c #7DC396",
"k. c #5FA7C6",
"l. c #64A9C4",
"z. c #72ACC2",
"x. c #6AB3C1",
"c. c #67B8C2",
"v. c #6BB9C5",
"b. c #67B3CC",
"n. c #6BB3CD",
"m. c #7DB2C2",
"M. c #65B1D0",
"N. c #6BB5D2",
"B. c #6DB9D6",
"V. c #6AB8D8",
"C. c #70B6D1",
"Z. c #75BCD5",
"A. c #7CBFD5",
"S. c #849481",
"D. c #96988C",
"F. c #829B9F",
"G. c #8A9C98",
"H. c #A39A93",
"J. c #87B483",
"K. c #839EA2",
"L. c #85A6AA",
"P. c #91AFAF",
"I. c #8EB3AE",
"U. c #9CB5AF",
"Y. c #81B1BE",
"T. c #8AB7BF",
"R. c #94B3B2",
"E. c #99B8B6",
"W. c #A6B7A7",
"Q. c #A2B8AF",
"!. c #B2B9A6",
"~. c #AABCB1",
"^. c #88C68D",
"/. c #85CA8C",
"(. c #81C399",
"). c #B7C2B5",
"_. c #B9C4B6",
"`. c #AED1B7",
"'. c #B0D3B3",
"]. c #89B5C0",
"[. c #8EBAC2",
"{. c #90BCC3",
"}. c #97C3C7",
"|. c #9AC4C6",
" X c #91C2CA",
".X c #81C1D7",
"XX c #8CC4D0",
"oX c #9FCCD0",
"OX c #A4CAC9",
"+X c #B1D0CD",
"@X c #AED4D5",
"#X c #BAD7D0",
/* pixels */
"/ / / / / / / / / / / / / / / / / / / / / / / / / / / / / / / / / / / / / / / / / / / / / / / / / / / / / / / / / / / / / / / / ",
"/ / / / / / / / / / / / / / / / / / / / / / / / / / / / / / / / / / / / / / / / / / / / / / / / / / / / / / / / / / / / / / / / ",
"/ / / / / / / / / / / / / / / / / / / / / / / / / / / / / / / / / / / / / / / / / / / / / / / / / / / / / / / / / / / / / / / / ",
"/ / / / / / / / / / / / / / / / / / / / / / / / / / / / / / / / / / / / / / / / / / / / / / / / / / / / / / / / / / / / / / / / ",
"/ / / / / / / / / / / / / / / / / / / / / / / / / / / / / / / / / / / / / / / / / / / / / / / / / / / / / / / / / / / / / / / / ",
"/ / / / / / / / / / / / / / / / / E D D U / / / / / / / / / / E S S U / / / / / / / / Q D S E / / / / / / / / / / / / / / / / / ",
"/ / / / / / / / / / / / / / / / / D 2 2 D / / / / / / ~ / / / D 1 1 S / / / / / / / ^ G 2 2 D / / / / / / / / / / / / / / / / / ",
"/ / / / / / / / / / / / / g./ / / S 4 4 D E D A A F ^././ / / A # X c S Q / g./ / / D v O 4 A / / / g.g./ / / / / / / / / / / / ",
"/ / / / / / / / / / / g./././ / / F w w F D q # X m W.'.^./ f.S 3 + X 1 S f.j././.W q 1 = 0 F / / g.g././ / / / / / / / / / / / ",
"/ / / / / / / / / / / ! I I =.Q D M w t J.P 4   . 8 H.W.J./ g.K r - . # V ! T I I B = o = e M D ! g.W I ! / / / / / / / / / / / ",
"/ / / / / / / / / / / D 3 3 I W q $ , k !.!.< . & , 8 i T f./.J.p - + r J.I 3 @ $ * = > > > 1 q I I 3 3 D / / / / / / / / / / / ",
"/ / / / / / / / / / R M @ @ n B * o , k H.H.8 o , , o $ v D P B 7 < < r B n @   . o , 5 d > o = B n + @ M T Q / / / / / / / / / ",
"/ / / / / / / / / R N e ; + * * : > d f 0 8 > > d d > O $ # @ @ - < ; - # @ + & = , d g f d , = * * - ; t N T / / / / / / / / / ",
"/ / / / / / / / / F h 9 9 , & & , d j d & o , d j g d 6 < % % % u s p u % % u i 9 f g j j g d , : o , 8 5 y K / / / / / / / / / ",
"/ / / / / / / / / F t d f f f f g g j g , , d j j j j k G.L.K.L.I.L.i.9.1.9.L.G.l g z k j j g g d f f f d t F / / / / / / / / / ",
"/ / / / / / / / / T y f g z  ...} { { { l l { } ....} D.R.{.[.].{.[.Y.s.s.s.T.P.D.} { { } } }  ... .z g d y R / / / / / / / / / ",
"/ / / / / / / / / T ) j j } !.).~.Q.Q.U.P.R.U.~.~._.~.U.P.K.F.F.F.F.F.2.@.F.K.K.P.E.E.E.Q.Q.Q.~._.!. .z j ( L / / / / / / / / / ",
"/ / / / / / / / / R ] ) g } ).#XOX|.|.}. X X}.OX+X+XOX{.L.F.+.F.+.+.+.@.+.+.+.K.].XX{.{.}.|.|.OX#X~.} g ) ] R / / / / / / / / / ",
"/ / / / / / / / / Q R V e k W.OX[.Y.Y.Y.s.s.Y.Y.].].Y.Y.u.4.2.2.2.2.2.2.2.2.2.4.i.m.m.m.m.Y.Y.[.OXW.k 0 V T Q / / / / / / / / / ",
"/ / / / / / / / / / / K b Z P.[.m.z.z.z.z.z.z.z.z.z.i.z.z.z.i.u.u.u.u.u.u.u.u.u.i.z.i.z.z.z.z.m.{.P.[ b F / / / / / / / / / / / ",
"/ / / / / / / / / / / E F $.d.Z.C.C.N.N.N.N.C.N.N.N.C.N.C.C.n.n.n.V.N.M.n.n.z.N.N.N.n.N.N.N.n.C.Z.d.$.K E / / / / / / / / / / / ",
"/ / / / / / / / / E K F F $.a.V.N.V.V.V.N.V.V.N.V.V.V.V.N.B.Z.A.].A.].Z.B.V.V.V.V.V.V.V.V.V.V.V.V.p.$.D D K E / / / / / / / / / ",
"/ / / / / / / / / K b w w C r.V.V.V.V.V.V.V.V.V.V.V.V.V.V.Z.XXoX@X@XoX.XZ.V.V.V.V.V.V.V.V.V.V.V.V.r.C w w b K / / / / / / / / / ",
"/ / / / / / / / / K w : ; p u.V.V.V.V.V.V.V.V.V.V.V.V.V.V.Z.XXoX@X@XoXXXZ.V.V.V.V.V.V.V.V.V.V.B.B.1.p , = w L g./ / / / / / / / ",
"/ / / / / / / g./.o.e > 5 i 2.z.N.V.V.V.V.V.V.V.V.V.V.V.V.V.Z.A..X.X.XZ.V.V.V.V.V.V.V.V.V.V.V.N.z.2.s 5 > t X././ / / / / / / / ",
"/ / / / / / / / /.J.[ k k Z 4.z.N.V.V.V.V.V.V.V.V.V.V.V.V.V.V.V.V.V.V.V.V.V.V.V.V.V.V.V.V.V.V.N.z.4.| h k | J./.g./ / / / / / / ",
"/ / / / / / / / / ^.).!.J.$.d.N.N.V.V.V.V.V.V.V.V.V.V.V.V.V.V.V.V.V.V.V.V.V.V.V.V.V.V.V.V.V.V.N.N.a.$.J.!._.^.g./ / / / / / / / ",
"/ / / / / / / / / /.'.'.^.h.w.v.B.V.V.V.V.V.V.V.V.V.V.V.V.V.V.V.V.V.V.V.V.V.V.V.V.V.V.V.V.V.V.V.v.w.f./.'.'.^./ / / / / / / / / ",
"/ / / / / / / / / / ^.^./ g.h.q.v.V.V.V.V.V.V.V.V.V.V.V.V.V.V.V.V.V.V.V.V.V.V.V.V.V.V.V.V.V.V.v.q.*.f.g./.^.g./ / / / / / / / / ",
"/ / / / / / / / / / / / / f.&.0.v.V.V.V.V.V.V.V.V.V.V.V.V.V.V.V.V.V.V.V.V.V.V.V.V.V.V.V.V.V.V.v.q.&.f./ / / / / / / / / / / / / ",
"/ / / / / / / / / / / / / &.;.t.b.V.V.V.V.V.V.V.V.V.V.V.V.V.V.V.V.V.V.V.V.V.V.V.V.V.V.V.V.V.V.b.t.;.&./ / / / / / / / / / / / / ",
"/ / / / / / / E T K K L R #.8.l.M.V.V.V.V.V.V.V.V.V.V.V.V.V.V.V.V.V.V.V.V.V.V.V.V.V.V.V.V.V.V.M.l.8.#.L L L F K / / / / / / / / ",
"/ / / / / / / K b w y ( _ | r.M.V.V.V.V.V.V.V.V.V.V.V.V.V.V.V.V.V.V.V.V.V.V.V.V.V.V.V.V.V.V.V.V.M.u.S.) ( y w b F / / / / / / / ",
"/ / / / / / / R m t y h g x u.V.V.V.V.V.V.V.V.V.V.V.V.V.V.V.V.V.V.V.V.V.V.V.V.V.V.V.V.V.V.V.V.N.N.u.x g h y y m T / / / / / / / ",
"/ / / / / / / / o.o.I V e p 2.z.V.V.V.V.V.V.V.V.V.V.V.V.V.V.V.V.V.V.V.V.V.V.V.V.V.V.V.V.V.V.V.N.z.2.p e V T W J.! / / / / / / / ",
"/ / / / / / / / /./.g.D b a 2.i.N.V.V.V.V.V.V.V.V.V.V.V.V.V.V.V.V.V.V.V.V.V.V.V.V.V.V.V.V.V.V.N.z.2.a b T / /././ / / / / / / / ",
"/ / / / / / / / / / / / K #.9.z.C.V.V.V.V.V.V.V.V.V.V.V.V.V.V.V.V.V.V.V.V.V.V.V.V.V.V.V.V.V.N.C.z.9.#.F E / / g./ / / / / / / / ",
"/ / / / / / / / / / F F F J 9.z.N.V.V.V.V.V.V.V.V.V.V.V.V.V.V.V.V.V.V.V.V.V.V.V.V.V.V.V.V.V.V.N.z.9.P S D T E / / / / / / / / / ",
"/ / / / / / / / / K b w w a 2.z.N.V.V.V.V.V.V.V.V.V.V.V.V.V.V.V.V.V.V.V.V.V.V.V.V.V.V.V.V.V.V.N.z.2.C w w b K / / / / / / / / / ",
"/ / / / / / / / / F b e 5 p 2.z.N.V.V.V.V.V.V.B.Z.Z.B.B.Z.Z.B.V.V.V.V.V.V.V.V.V.V.V.V.V.V.V.V.N.z.2.p 6 6 b K / / / / / / / / / ",
"/ / / / / / / / / E F V h [ u.B.N.V.V.V.V.V.V.Z.XXXXZ.Z.XXXXZ.V.V.V.V.V.V.V.V.V.V.V.V.V.V.V.V.N.N.u.[ h V F Q / / / / / / / / / ",
"/ / / / / / / / / / / R ] S.i.V.V.V.V.V.V.V.V.Z.XXXXZ.Z.XXXXZ.V.V.V.V.V.V.V.V.V.V.V.V.V.V.V.V.V.V.i.S.] R / / / / / / / / / / / ",
"/ / / / / / / / / / / Q T -.v.V.V.V.V.V.V.V.V.B.Z.Z.B.V.Z.Z.B.V.V.V.V.V.V.V.V.V.V.V.V.V.V.V.V.V.V.x.-.R / / / / / / / / / / / / ",
"/ / / / / / / / / / / / / h.w.v.B.V.V.V.V.V.V.V.V.V.V.V.V.V.V.V.V.V.V.V.V.V.V.V.V.V.V.V.V.V.V.B.v.e.h./ / / / / / / / / / / / / ",
"/ / / / / / / / / / / / ^ f.&.q.v.V.V.V.V.V.V.V.V.V.V.V.V.V.V.V.V.V.V.V.V.V.V.V.V.V.V.V.V.V.V.v.q.h./ / / / / / / / / / / / / / ",
"/ / / / / / / / / / / / R W -.,.v.V.V.V.V.V.V.V.V.V.V.V.V.V.V.V.V.V.V.V.V.V.V.V.V.V.V.V.V.V.V.v.q.-.T R ! / / / / / / / / / / / ",
"/ / / / / / / / / / / R ] | O.8.b.V.V.V.V.V.V.V.V.V.V.V.V.V.V.V.V.V.V.V.V.V.V.V.V.V.V.V.V.V.V.M.t.O.Z ] R / / / / / / / / / / / ",
"/ / / / / / / / / / / L ) [ 1.l.M.V.V.V.V.V.V.V.V.V.V.V.V.V.V.V.V.V.V.V.V.V.V.V.V.V.V.V.V.V.V.V.l.1.[ _ T / / / / / / / / / / / ",
"/ / / / / / / / / / / T _ ` 2.z.N.B.V.V.V.V.V.V.V.V.V.V.V.V.V.V.V.V.V.V.V.V.V.V.V.V.V.V.V.V.V.N.l.2.x _ T / / / / / / / / / / / ",
"/ / / / / / / / / / / R ' | 3.z.N.V.V.V.V.V.V.V.V.V.V.V.V.V.V.V.V.V.V.V.V.V.V.V.V.V.V.V.V.V.V.n.z.3.[ ' T / / / / / / / / / / / ",
"/ / / / / / / / / / / E G J 9.i.N.N.V.V.V.V.V.V.V.V.V.V.V.V.V.V.V.V.V.V.V.V.V.V.V.V.V.V.V.V.V.N.i.9.J D E / / / / / / / / / / / ",
"/ / / / / / / / / / / ~ H Y :.y.b.V.B.b.c.c.b.V.M.V.M.V.M.b.c.c.b.V.V.N.v.v.N.N.V.b.c.c.N.N.N.n.y.:.Y ~ ~ / / / / / / / / / / / ",
"/ / / / / / / / / / / ~ ^ ~ Y >.p.M.M.p.>.>.p.n.M.M.M.M.M.p.>.>.p.M.M.c.q.q.v.M.M.p.>.>.a.M.M.p.>.~ ^ ^ ^ / / / / / / / / / / / ",
"/ / / / / / / / / / / / / ~ H Y 0.a.p.0.%.%.6.l.p.p.l.k.k.6.%.%.t.l.a.w.h.h.w.x.l.6.%.^ 0.a.a.0.H ~ ^ / / / / / / / / / / / / / ",
"/ / / / / / / / / / / / / / U ^ h.*.*.h.U *.8.t.,.:.6.<.k.5.%.*.8.t.e.(.g.g.(.e.t.5.%.f.h.h.*.h.H U / / / / / / / / / / / / / / ",
"/ / / / / / / / / / / / / / / ~ / / / g./.j.7.7.&.&.;.5.5.;.&.&.;.0.j./.f./ /.j.7.7.j.j./ / / / U / / / / / / / / / / / / / / / ",
"/ / / / / / / / / / / / / / / / / / / /.'.`.(.&./ &.&.*.*.&./ f.&.&.f./ / / g.f.h.(.`.'.^./ / / / / / / / / / / / / / / / / / / ",
"/ / / / / / / / / / / / / / / / / / / ^.'.'././ / / Q / / / / / / / / / / / / / / ^.'.'.^./ / / / / / / / / / / / / / / / / / / ",
"/ / / / / / / / / / / / / / / / / / / g./.^.f./ / / / / / / / / / / / / / / / / / / /././ / / / / / / / / / / / / / / / / / / / ",
"/ / / / / / / / / / / / / / / / / / / / / / / / / / / / / / / / / / / / / / / / / / / / / / / / / / / / / / / / / / / / / / / / ",
"/ / / / / / / / / / / / / / / / / / / / / / / / / / / / / / / / / / / / / / / / / / / / / / / / / / / / / / / / / / / / / / / / ",
"/ / / / / / / / / / / / / / / / / / / / / / / / / / / / / / / / / / / / / / / / / / / / / / / / / / / / / / / / / / / / / / / / ",
"/ / / / / / / / / / / / / / / / / / / / / / / / / / / / / / / / / / / / / / / / / / / / / / / / / / / / / / / / / / / / / / / / ",
"/ / / / / / / / / / / / / / / / / / / / / / / / / / / / / / / / / / / / / / / / / / / / / / / / / / / / / / / / / / / / / / / / "
};
