/* XPM */
static char *output_onlinepngtools__2_1631979897[] = {
/* columns rows colors chars-per-pixel */
"64 64 24 1 ",
"  c None",
". c #8BC153",
"X c #8CC152",
"o c #8CC053",
"O c #8CC153",
"+ c #8DC153",
"@ c #8CC253",
"# c #8DC253",
"$ c #8CC254",
"% c #8DC254",
"& c #8DC255",
"* c #8EC355",
"= c #94C85B",
"- c #9ACE61",
"; c #9ACE62",
": c #9FD367",
"> c #9FD468",
", c #A0D467",
"< c #A0D567",
"1 c #A0D368",
"2 c #A0D468",
"3 c #A1D468",
"4 c #A0D568",
"5 c #A2D568",
/* pixels */
"                               22                               ",
"                               22                               ",
"                              2222                              ",
"                              2222                              ",
"                              2222                              ",
"                              2222                              ",
"                             222222                             ",
"                            22222222                            ",
"                           2222222222                           ",
"                           2222222222                           ",
"                           2222222222                           ",
"                          >2222222222>                          ",
"                          222222222222                          ",
"                          222222222222                          ",
"                        2222222222222222                        ",
"                        2222222222222222                        ",
"                        2222222222222222                        ",
"                        2222222222222222                        ",
"                        2222222222222222                        ",
"                        2222222222222222                        ",
"                        2222222222222222                        ",
"                       222222222222222222                       ",
"                      22222222222222222222                      ",
"                      22222222222222222222                      ",
"                       222222222222222222                       ",
"   OO                  222222222222222222                  OO   ",
"  $OOO.                222222222222222222                .OOO$  ",
"   OOOOOOO             222222222222222222             OOOOOOO   ",
"    OOOOOOOO           222222222222222222           OOOOOOOO    ",
"    OOOOOOOOO O       22222222222222222222       O OOOOOOOOO    ",
"     OOOOOOOOOOO      >222222222222222222>      OOOOOOOOOOO     ",
"     OOOOOOOOOOOO      222222222222222222      OOOOOOOOOOOO     ",
"     OOOOOOOOOOOOOOO   222222222222222222   OOOOOOOOOOOOOOO     ",
"      OOOOOOOOOOOOOOO   2222222222222222   OOOOOOOOOOOOOOO      ",
"      OOOOOOOOOOOOOOO   2222222222222222   OOOOOOOOOOOOOOO      ",
"       OOOOOOOOOOOOOOO   22222222222222   OOOOOOOOOOOOOOO       ",
"       OOOOOOOOOOOOOOOOO2222222222222222OOOOOOOOOOOOOOOOO       ",
"       OOOOOOOOOOOOOOOOO2222222222222222OOOOOOOOOOOOOOOOO       ",
"        OOOOOOOOOOOOOOOO-22222222222222;OOOOOOOOOOOOOOOO        ",
"         OOOOOOOOOOOOOOO$22222222222222OOOOOOOOOOOOOOOO         ",
"          OOOOOOOOOOOOOOO,2222222222222OOOOOOOOOOOOOOO          ",
"          OOOOOOOOOOOOOOO*222222222222*OOOOOOOOOOOOOOO          ",
"          OOOOOOOOOOOOOOOO222222222222OOOOOOOOOOOOOOOO          ",
"            OOOOOOOOOOOOOO12222222222,OOOOOOOOOOOOOO            ",
"              OOOOOOOOOOOOO2222222222OOOOOOOOOOOOO              ",
"              OOOOOOOOOOOOO2222222222OOOOOOOOOOOOO              ",
"               OOOOOOOOOOOO=22222222=OOOOOOOOOOOO               ",
"                 OOOOOOOOOOO22222222OOOOOOOOOOO                 ",
"                  OOOOOOOOOO22222222OOOOOOOOOO                  ",
"                   $OOOOOOOOO222222OOOOOOOO$$                   ",
"               522222*OOOOOOO222222OOOOOOO$22222,               ",
"              222222221OOOOOO-2222-OOOOO$222222222              ",
"            ,222222222222*OOOO2222OOOO*222222222222,            ",
"          222222222222222,2$OO2222OO$2,222222222222222          ",
"         ,2222222222222222222O*,3*$2222222222222222222,         ",
"          22222222222222222222211222222222222222222222          ",
"            222222222222222222 OO 222222222222222222            ",
"              22222222222222   OO   22222222222222              ",
"                2222222222     OO     2222222222                ",
"                               OO                               ",
"                               OO                               ",
"                               OO                               ",
"                               OO                               ",
"                               OO                               "
};
