/* XPM */
static char *_cb5eb0a53b24de4e5880fc9532b10cbHOAvrKQHTdo99X4i[] = {
/* columns rows colors chars-per-pixel */
"64 64 250 2 ",
"   c #FFFFFF",
".  c #030A03",
"X  c #001300",
"o  c #001C00",
"O  c #0A1709",
"+  c #111C12",
"@  c #012400",
"#  c #012B00",
"$  c #0A2B02",
"%  c #0B2402",
"&  c #122B09",
"*  c #033300",
"=  c #0C3302",
"-  c #023B00",
";  c #0C3B02",
":  c #143708",
">  c #1B3815",
",  c #152B17",
"<  c #22391A",
"1  c #232E1C",
"2  c #1F3823",
"3  c #242A24",
"4  c #2C3A2C",
"5  c #024301",
"6  c #034C00",
"7  c #0C4702",
"8  c #164906",
"9  c #075400",
"0  c #175706",
"q  c #1D4913",
"w  c #1E5B18",
"e  c #25481B",
"r  c #245616",
"t  c #0D6900",
"y  c #1B6706",
"u  c #157700",
"i  c #007603",
"p  c #22660C",
"a  c #286916",
"s  c #2F7217",
"d  c #2C4624",
"f  c #35492C",
"g  c #34572B",
"h  c #394B35",
"j  c #3B5638",
"k  c #2A5523",
"l  c #346924",
"z  c #357726",
"x  c #3F6137",
"c  c #2E6F2B",
"v  c #475B3C",
"b  c #447136",
"n  c #3C5841",
"m  c #465945",
"M  c #4C594F",
"N  c #4A6846",
"B  c #536A4C",
"V  c #5A7356",
"C  c #596C55",
"Z  c #646D5C",
"A  c #64795B",
"S  c #697866",
"D  c #6B726C",
"F  c #068806",
"G  c #168B04",
"H  c #0D9607",
"J  c #199609",
"K  c #068B16",
"L  c #0B911B",
"P  c #149818",
"I  c #1A8C17",
"U  c #248B05",
"Y  c #27990A",
"T  c #36891B",
"R  c #349717",
"E  c #25961A",
"W  c #16A20C",
"Q  c #19A11C",
"!  c #29A709",
"~  c #33A90B",
"^  c #2DB907",
"/  c #39BC0C",
"(  c #34B80A",
")  c #25A917",
"_  c #37AA17",
"`  c #2CB415",
"'  c #35BC13",
"]  c #3BBC14",
"[  c #3BBC1B",
"{  c #3AB517",
"}  c #169A23",
"|  c #0C9326",
" . c #3A8625",
".. c #289C22",
"X. c #39952E",
"o. c #1CA326",
"O. c #28A827",
"+. c #38A829",
"@. c #38B828",
"#. c #31B02E",
"$. c #42BC1C",
"%. c #45BB17",
"&. c #41AC18",
"*. c #46972A",
"=. c #458932",
"-. c #489837",
";. c #519C39",
":. c #49882A",
">. c #48A929",
",. c #47B826",
"<. c #4AA735",
"1. c #56A739",
"2. c #4CB933",
"3. c #56B838",
"4. c #52B529",
"5. c #62B93C",
"6. c #60AA37",
"7. c #34C30C",
"8. c #3AC30D",
"9. c #3ACB0C",
"0. c #34C707",
"q. c #3AD50C",
"w. c #3BC313",
"e. c #3BCB13",
"r. c #3CC31B",
"t. c #37C515",
"y. c #36CD0D",
"u. c #3BC426",
"i. c #43C50E",
"p. c #43C314",
"a. c #43CA15",
"s. c #43C41C",
"d. c #4AC51C",
"f. c #44CB1B",
"g. c #4BCC1B",
"h. c #4DC817",
"j. c #45D319",
"k. c #4BCB17",
"l. c #44C323",
"z. c #4BC424",
"x. c #45CC23",
"c. c #4BCB23",
"v. c #4CC22B",
"b. c #4DCB2B",
"n. c #44C62B",
"m. c #54CC2B",
"M. c #55C728",
"N. c #4AD528",
"B. c #51D22D",
"V. c #4CC733",
"C. c #53C334",
"Z. c #53CC34",
"A. c #5CC43C",
"S. c #5ACB3B",
"D. c #58C738",
"F. c #57D734",
"G. c #4BD333",
"H. c #64C83A",
"J. c #65D336",
"K. c #5FE435",
"L. c #39A044",
"P. c #559646",
"I. c #548C4A",
"U. c #67915B",
"Y. c #58A944",
"T. c #59B746",
"R. c #52B14F",
"E. c #61AB49",
"W. c #65BC4A",
"Q. c #67AA56",
"!. c #68B955",
"~. c #75BF5E",
"^. c #698364",
"/. c #74876B",
"(. c #788873",
"). c #789670",
"_. c #5AB662",
"`. c #78AB6A",
"'. c #72B96A",
"]. c #5DC349",
"[. c #63C444",
"{. c #66C947",
"}. c #67D549",
"|. c #68C656",
" X c #74C95C",
".X c #72D452",
"XX c #78C869",
"oX c #77D167",
"OX c #78E260",
"+X c #84987D",
"@X c #82897A",
"#X c #85AA78",
"$X c #81D75F",
"%X c #88CD75",
"&X c #8AEB78",
"*X c #7C8A84",
"=X c #8A9885",
"-X c #939B8B",
";X c #8E948C",
":X c #94A68C",
">X c #9AA995",
",X c #94B48D",
"<X c #A2AA9C",
"1X c #A5B89E",
"2X c #A9B7A4",
"3X c #B2BDA9",
"4X c #B6BBB2",
"5X c #A7ABA9",
"6X c #9CA7A3",
"7X c #92DA83",
"8X c #B7C6AE",
"9X c #B9C7B5",
"0X c #B5C9AF",
"qX c #C0CDBB",
"wX c #C6CAC5",
"eX c #C9D7C6",
"rX c #D8DCD5",
"tX c #D3D8CD",
"yX c #E1DBDD",
"uX c #DAE4D7",
"iX c #D6EBD2",
"pX c #E4E9DD",
"aX c #E4F3DF",
"sX c #DDDDE5",
"dX c #E4DDE4",
"fX c #E5EDE2",
"gX c #EAEBE5",
"hX c #EBE5EB",
"jX c #ECECEB",
"kX c #E6E6E6",
"lX c #F2ECEC",
"zX c #F1E4E8",
"xX c #EBF2EB",
"cX c #EAF6E7",
"vX c #F2F4ED",
"bX c #F4FBEE",
"nX c #F8F7EC",
"mX c #EDECF2",
"MX c #E9E6F1",
"NX c #F3ECF4",
"BX c #F7EEF7",
"VX c #EDF3F3",
"CX c #F6F6F6",
"ZX c #F9F6F5",
"AX c #F5F9F4",
"SX c #FBFDF5",
"DX c #F6F6FA",
"FX c #FAF5FB",
"GX c #F5FBFB",
"HX c #FDFDFD",
/* pixels */
"                FX  ZX  GXDX    AXZXZXZXZXZXnXAXSX  HXdXjXGX-XO Z ZXHXNXHXBXVXHXAXAXGXDXFXFXGX  ZXGXZX  GXZX  ZXZXDXDX  GXGXZXZX",
"                    GXDXZXZX        ZXZXZXGXAXZXZXvXHXjXHX  N   3 tXFXhXHXFX  GXAXAX    FXGXSXDXDXDXZXGXDXZX  GX      ZXZX  ZXGX",
"                ZXZX  DXZXZX    AXZXZXZXZXGXAXSXjXFX  FXSX9Xq 2 O 3XHXNXFXHXDXmXAX  ZXZXFXDXDXDX    ZXDXZXZXGX  GXGXZXZX  ZX  ZX",
"                    DXZXGXGXSX    AX  ZXZX  AXZXFXHXdXZXGX=X& V . <XZXFXdXHXGXVXGXDXFXGXFXFXDX    GX    GXZXZXZXZX  ZXGXGXGX  DX",
"                ZXZXZXZXZXGXZXZXAXZX  AXSXAXAX  HXHXdXFXSXN * `.. /.SXHXdXFXHXFX    GXZXGXDXDXAXZXGXZXZXZXGXZXGX        ZX      ",
"            DX  DXZXGXGXZXDX  DX  ZXAXAXnXAXAXZXBXHXBXHXtXk 8 '.= v gXHXNXFXDXDXGX  FXZXZXDX  GXGX  GXZXZXZXGXZXZXGX  DXZXDX  GX",
"          CXCXCXDXCXGXZXZXGXCXGXZXAXCXCXAXAXAXZXNXFXFXHX,X; T XXl < 8XSXFXHXNXFXDXDXGXZXDXDXVXGXCXGXZXGXDXCXGXCXGXCXZXDXZXZXCXZX",
"CXCXDXCXCXCXCXCXGXCXZXCXCXCXCXCXCXZXbXbXCXbXAXFXFXFXFXgXv o T  Xz X ).fXjXHXDXHXFXCXZXZXZXGXAXAXCXZXCXZXDXCXCXCXGXZXZXGXZXGXZXGX",
"CXCXCXCXCXCXDXCXCXCXZXZXDXZXDXCXAXZXAXAXnXAXSXZXNXFXHX-XX c T.].:.0 O 0XSXkXDXBXDXCXCXCXCXDXVXDXCXCXCXCXCXCXCXCXZXZXCXCXCXCXCXCX",
"CXCXCXCXCXCXCXCXZXCXZXGXGXZXGXCXZXAXAXAXAXAXZXZXBXHXSX(.- Y.C.>..X=.= #XSXHXHXHXFXCXCXZXDXCXCXAXCXCXCXCXCXCXCXCXCXCXCXCXZXCXCXCX",
"CXCXCXCXCXDXCXCXGXZXCXZXGXZXCXCXCXSXCXZXZXZXCXZXZXHX>Xe 5 T.@.@.A.T - : 1XSXZXNXBXCXCXCXDXDXDXCXCXCXCXCXCXCXCXCXCXCXCXCXCXCXCXCX",
"CXCXCXCXCXZXCXCXZXGXGXZXZXCXCXCXZXCXCXZXZXZXCXCXCXrXh X w Y.Y n.v.R p @ B SXHXgXCXCXCXCXCXDXCXDXCXCXCXDXCXCXCXCXCXCXCXCXCXCXCXCX",
"CXCXCXCXCXCXCXCXDXZXGXZXGXGXZXZXAXZXZXZXZXZXCXCXSX0X& q E.3.F x.F.v.W.7 e uXSXCXCXCXCXCXCXCXDXDXCXCXCXCXCXCXCXCXCXCXCXCXCXCXCXCX",
"DXCXCXCXCXCXCXCXGXZXZXZXZXCXCXCXAXCXFXFXFXFXZXCXSX>X$ I.%X+.F N.j.$.H.p o +XSXCXZXCXCXNXDXCXDXDXDXCXCXCXCXCXCXCXCXCXCXCXCXCXCXDX",
"CXCXCXCXCXCXCXCXZXCXZXGXGXZXCXCXZXZXFXFXFXFXCXAXiXV o U.!.I J u.7.x.2. .# v SXZXnXZXAXAXCXCXDXDXDXCXCXCXCXCXCXCXCXCXCXCXCXCXCXDX",
"CXCXCXCXCXCXCXCXZXGXGXZXCXGXZXCXZXZXBXFXFXFXCXAX(.= o E.R.G ) ` e.K.>.E.r d cXnXCXCXZXAXCXDXDXCXCXCXCXCXCXCXCXCXCXCXCXCXCXCXZXDX",
"FXZXDXDXGXGXGXGXDXDXDXDXCXDXFXCXSXjXZXHXBXNXDXCXh = :.>.+.K J @.c.( M..X0 e pXHXHXFXCXAXCXAXnXAXCXCXCXAXGXCXAXAXAXAXAXCXZXCXBXFX",
"CXCXDXDXDXAXCXDXCXCXCXCXCXCXZXZXHXgXvXHXBXDXHXSXB 8 5.{.#.K P @.c.%.p.C.0 # @XHXFXFXVXCXCXAXAXAXAXNXCXCXVXDXAXVXbXVXbXAXCXCXFXFX",
"DXDXDXVXDXVXCXAXAXvXCXCXCXnXZXnXGXjXlXSXNXDXHXfXh ; 3.}.O.F L @.z.k.p.&.T * 1 kXHXFXCXAXCXCXvXAXCXCXCXCXDXVXDXDXAXAXAXVXAXAXCXCX",
"DXGXGXGXGXGXAXAXAXAXnXCXnXZXBXZXZXZXCXZXNXFXAX2Xo = >.D.o.F P @.c.g.g.~  Xz X qXHXDXVXVXCXCXvXCXCXAXVXDXDXDXDXDXAXVXAXAXAXVXCXDX",
"GXDXGXCXGXGXAXGXAXAXCXCXFXFXDXDXNXHXSXCXmXHXxX/.o b 5.,.} L L @.b.i.g.%..X:.o tXHXAXVXAXCXCXCXCXbXAXCXDXDXDXDXDXDXCXCXCXAXAXAXVX",
"DXDXDXDXAXVXVXAXVXDXDXCXDXFXDXDXhXGXZXGXDXGXAX(.$ Q..Xz.} } L @.B.^ g.d.3.0 % SXSXGXVXAXZXDXCXCXAXxXCXCXDXDXDXFXFXDXDXCXCXVXGXGX",
"DXCXCXCXZXGXDXCXCXDXDXDXDXDXGXVXCXCXjXHXVXVXAX0Xo I.W.v.P | L +.b.( f.p.,.9 # eXGXAXVXCXFXDXCXZXAXbXCXCXDXFXFXFXFXFXFXCXDXDXDXDX",
"GXDXHXGXFXZXFXGXDXDXDXGXDXVXAXAXGXCXjXHXVXfXAXiXX z >.C.K | } #.c.p.a.$.{.s # (.GXCXVXDXFXFXBXFXCXCXCXCXDXDXFXBXDXFXCXGXVXGXVXDX",
"mXGXHXsXmXHXHXlXBXZXHXZXpXlXSXSXjXHXAXAXDXGXAX0X@ 0 3.2.o.| K O.m.p./ $.{.;.@ :XGXGXGXFXFXFXBXFXFXFXdXNXHXFXCXSXZXxXSXxX>XC 3 D ",
"HXVXGXHXHXGXyXhXZXZXnXZXZXZXnXpXGXHXAXCXVXHXSX0Xo l OX,.K L | O.Z.d.p.l.3. .# eXHXFXFXFXFXFXBXCXdXBXHXHXHXfXuXcX1X>X/.& , 1 . O ",
"*XM D 6XuXHXHXHXHXHXFXHXHXHXDXMXVXfXnXSXBXCXSXiXo l $XC.K L L O.M.%.p.d.,.y o uXGXBXNXNXNXNXFXHXHXFXyXwX>XB d v X % @ = N n , n ",
"O . + + 2 S (.V 9X5X4XrXMXMXFXGXHXSXvXCXCXlXSXSXf 8 3.S.o.| L ) Z.%.8.d.3.a . 8XHXHXFXNXNXFXSXSXdX-Xf % & # @ @ a p b '.U.; n eX",
"4 , j n q o X @ o @ > n M D 5XsXGXGXSXgXZXZXlXSXS : *.C.P K K #.F.d.a.z.[. .o <XHXFXBXBXHXSX9X(.f : X @ p -.*.R $XT.~.Q.5 $ 6XGX",
"tXn > ^.7XP. .E.5 5 7 - o o 2 m M 9XnXSXFXFXlXSXA # >.}.P | K O.b.d.a.d.3. .@ 9XGXMXkXGXHXuXV o # p  .*.>.C.D.S._ >.W.y * ,XGXGX",
"GX>X> : I.!.>.D.}.}.A.>.s p 0 = X h 4XnXFXFXZXSXZ o 1..Xo.| L W b.%.i.p.,.p @ uXHXFXGXHXtX/.f q y >.[.Z.r.' 7.e.b.}.T.# q cXGXsX",
"mXHX9X; * ;.D.,.r.f.g.$.C..X1.0 P.o f qXZXFXFXHX<X% ;.}.P K K Q F.i.a.N.3.a @ bXDXDXHXrXB . 8 %X3.v.[ w.e.y.0.9.] 2.T # ^.SXMXGX",
"lXgXSX).@ z &XO.G.a.9.w.h.M.C.3.].*.= o @XBXFXHXuXo  ..XQ Q F Q x.g.%.%.{.* f GXdXHXSXB # 0 *.3.v.{ w.j.9.0.0.r.v.<.* e aXHXhXFX",
"FXZXSX8Xq 7 <.<.` r.N.j./ %.d.z.d.$.T 8 1 ;XHXHX9Xo s $X@.H K o.b.i.g.H.1.- ^.HXHXrX+X# p 3.,.d.l.' 8.e.9.9.f.v.|.z @ B GXHXzXFX",
"HXZXSXfX^.o 9  XY ` e.N.j.] { x.f.{ 3.1.: $ =XCXeXe 9 oXD.F } Q B.p.g.H.*.# ^.GXSXA * 5 T.].' s.r.' e.9.y.e.V.2.W.6 @ >XSXHXlXFX",
"CXFXGXGX9X: $ XX<.G H u.F.l.r.r.w.p.z.{.-.; = ^.aXU.* 1.{.G o.H B.k.%.H.Y.# B aX+X@ 0 *.C.` ' e.w.w.t.7.7.u.V.3.z - m uXHXNXHXFX",
"mXGXVXHXbXA @ a |.+.H W t.u.n.N.( k.k.%.A.-.0 @ *X`.*  .oX..P H h.h.4.5.Q.q A ,X@ 7 E.].@.7.N.0.8.8.y.7.' n.2.-.- g 2XHXFXMXHXVX",
"GXHXjXCXSX4Xd X Q.R.+.F F @.].u.g.8.p.p.d.{.1.0 5 x ; b oX#.H W k.%.J.{.:.e ^.g 7 :.}.[ x.e.e.^ 0.0.t.w.r.2.+.w # +XjXHXmXmXGXcX",
"GXHXCXNXFXnX:X: w I.R.E F H #.u.B./ / f.e.z.H.W.7 # = l '.T.P W j.i.m.[.p o b @ E.T.v.' F.^ ^ 8.0.9.w.s.,.3. .* v tXHXZXGXGXGXcX",
"kXVXHXZXhXSXGX=XX 0 -.R.I F H O.@.F.c.7.a.g.4.W.!.* o 6 <..X..H N.j.4.[.l X q 8 W.C.c.^ t.7.g.8.8.8.s.$.2.Y.l X =XSXHXsXHXGXcXVX",
"AXGXZXZXZXCXAXbX< = I.%XR.I i } E @.G.u.q.e.a.,.W.-.7 # s |.+.H e.a.Z.{.a @ s !.A.c.e.e.w.7.( / g.~ M.}.T # = V bXAXDXDXGXDXAXVX",
"AXAXZXZXFXDXAXnX+Xd $ 8 X.|.#.i F O.u.u.e.q.j.F.H.T. .5 u }.C.G r.x.D.<.6 - -.T.z.w.0.0.0.w.c.b.~ C.[.T - e ,XAXAXGXDXDXGXDXGXAX",
"ZXZXZXAXCXCXSXZXSX3Xv % w '._.L.K K L u.G.q.i.a.v.}.A.t t 5.H.Y r.c.S.R 5 t ].v.9.q.q.y.0.8.] { }.<.y # = /.fXHXGXDXGXDXDXDXGXGX",
"ZXZXAXZXCXZXZXZXSXSXtXB # ; c _.R.c i F t.x.j.9.] Z.S.R G _ H.&.[ m.C.Y t +.}.@.e.q.q.y.r.,.M.C. X0 @ g 1XgXGXNXDXDXDXDXDXDXDXDX",
"FXZXGXZXCXCXSXZXrXZXSXqXV > % c *X_.L.} H ` x.N.r.$.b.,.Y U $.M.[ V.,.U R Z.G.t.q.0.^ ' 2.[.3.E.* @ j 9XGXHXHXmXFXDXDXCXGXDXFXFX",
"GXZXZXZXAXCXZXZXHXlXvXSXAX9Xh % 9 =.'._.X.J ! ' b.r.l.F./ G ~ M.$.v.~ G ,.B.t.e.y.0.s.}.|.*.0 * $ S eXAXDXmXDXDXDXZXGXZXDXFXFXDX",
"GXDXGXZXZXZXZXZXHXjXkXCXHXSX2XZ @ : k b P.<.) Y n.n.' c.c.! ) ,.l.$.{ ! ] x.^ e.y.s.{.XXI.q = d 8XvXHXHXdXmXHXGXDXCXSXZXZXFXDXDX",
"DXGXCXZXZXnXZXZXjXZXHXlXyXZXSXSXaX^.X o X.XX|.+._ z.` w.c./ [ [ [ { m.d.%.s.7.x.B.v.<.z * % ).GXSXlXNXHXFXGXGXCXCXnXnXnXZXZXGXDX",
"VXAXAXbXAXSXAXZXzXZXHXNXFXHXSXyXqX<XC : X # a -.[.,.a.^ 7.N.] [ d.$.] %.%.p.$.M.@.T 6 o X < A >X5XpXZXZXmXHXHXjXnXnXlXgXbXSXGXHX",
"VXCXSXAXGXCXZXZXHXFXlXSXSXrX=Xv % % O O o * 7 9 U Y f.j.e.r.( $.u.] / %.h.h.&.Y 6 6 5 * # o @ % X 4 :XSXHXfXfXSXnXSXnXnXSXbXjXZX",
"FXGXHXHXNXmXNXBXdXHXHXuX).d X X s s *.6.5.6.4.&.~ ~ f.a.7.7.' x.] w.' w.] / ' _ ,.2.A.W.W.1.*.:.k o X V eXcXAXZXAXZXNXZXHXZXgXlX",
"GXFXGXDXNXFXHXHXGXHXeXV @ @ s E.H.H.J.J.H.m.M.%.J.z.8.8.w.r.' r.t.t.t.t.w.r.l.b.m.v.z.4.M.M.m.m.oXP.5 @ b qXAXpXDXBXhXNXFXFXBXFX",
"CXCXCXGXFXHXFXhXuX-X< o 6 <.|.].M.d.] 8.w.f.c.m.z.d.p.g.f.r.w.] f.t.7.r.x.G.N.c.c.h.i.i.i.j.q.j.' }.H.t o e 1XSXHXHXFXmXFXFXFXFX",
"vXNXZXZXFXHXqXD 1 @ # c E..XV.[ V.B.N.N.N.N.F.B.{ m.B.c.%.^ d.g.r.N.N.u.` ` @.F.m.g.k.k.i.q.q.q.y.e.J.4.y @ e :XrXFXHXFXFXFXDXBX",
"CXCXSXvXvXCX-XO < j U.XXW._ ) r.! ) ) ) W ! J E 3.H.,.~ ~ / M.%.! %.Z.n.J G Y ,.4.4.M.h.s.w.e.q.j.^ / $X$Xb * X Z 9XHXHXDXDXDXBX",
"SXSXCXxXHXSX<X  % < l =.Y.2.@.J J I J J I ..2.|.T.2.G u _ H.D.U u U +.].].+.u 9 R *.5.H.H.C.n.l.w.B.m.>.Y.`.U.v . D jXHXDXGXHXHX",
"MXHXHXmXmXHXxXwXZ g @ o 5  .R.!.T.|.T.|.XXR.P.=.9 5 u 3.{.[.<.6  .p 6 W.|.1.1.9 # # 7 s ;.Q.Y.|.oXT.X.w - @ X X . D jXHXxXAXvXpX",
"HXDXBXFXGXCXAXxXHXfX2XN $ @ * 0 =.=. .z 8 o # @ * 6 :.$X!.=.p X a z * s Y.%X'.a @ ; e $ X o ; 0 o o @ * d B S *X>XsXHXHXjXnXFXlX",
"FXFXBXFXHXFXHXHXCXHXHXfX2XS 2 o X o @ : & f /.^.X l %X7Xb 0 q . g b X @ r Q.%X#X# N 3X2XS B 4 O d j V =X4XrXCXHXFXHXHXAXzXZXHXFX",
"BXFXFXFXFXHXZXNXhXhXZXHXSXSXrX3X/.^.(.<X4XCXSX<XO I.#Xb % : S 4 v v < v = $ b ).< n wXSXSXSXpX8XuXpXVXHXHXHXHXHXFXCXjXmXZXFXFXBX",
"BXFXZXZXZXZXZXlXHXZXBXBXZXSXHXSXSXHXHXHXHXHXrX3 4 h % . > ,XuXv n 1 S aX(.> % O 4 + ;XNXHXHXHXSXSXSXHXHXZXFXlXzXCXvXxXGXHXFXNXNX",
"FXFXlXZXCXjXvXZXBXBXBXFXFXlXgXjXNXFXCXDXmXFXwX3   1 f A 3XSXZXO 4 O =XSXaX9X=XB O . ;XBXFXgXNXHXvXlXZXZXFXFXFXZXSXCXAXGXCXDXDXDX",
"SXGXCXCXAXAXCXHXHXZXBXHXHXSXSXnXHXFXCXvXfXGXZX3XM >XtXSXSXHXyX. + M 4XSXSXHXZXZX6X-XuXHXCXjXNXHXGXGXGXZXDXFXHXGXZXCXcXVXVXVXDXGX",
"pXGXHXxXxXHXHXhXHXFXFXGXvXaXcXSXZXZXvXbXaXbXSXvXZXSXAXSXhXzXBXZ   <XHXHXlXHXdXHXHXCXHXCXjXGXGXVXGXGXDXDXBXDXFXDXmXCXGXGXGXGXVXMX"
};
