/* XPM */
static char *cd9fdcbca5dd4390933946d6b285f599lvPd1k8z04U6pSGs[] = {
/* columns rows colors chars-per-pixel */
"64 64 169 2 ",
"   c #361E12",
".  c #3B2415",
"X  c #3C2519",
"o  c #3F291B",
"O  c #40251A",
"+  c #442A1C",
"@  c #4A2D1D",
"#  c #452E22",
"$  c #492E21",
"%  c #463123",
"&  c #4C3225",
"*  c #463229",
"=  c #4D3529",
"-  c #4F392B",
";  c #513526",
":  c #533827",
">  c #52362A",
",  c #543A2D",
"<  c #5A3C2D",
"1  c #563E31",
"2  c #5A3E32",
"3  c #5C402F",
"4  c #574031",
"5  c #5C4235",
"6  c #5E4539",
"7  c #5F483B",
"8  c #624436",
"9  c #684736",
"0  c #624639",
"q  c #644A3D",
"w  c #694C3E",
"e  c #6B513F",
"r  c #73523F",
"t  c #664D41",
"y  c #6A4E41",
"u  c #704F40",
"i  c #675042",
"p  c #6C5245",
"a  c #6E5549",
"s  c #6F584A",
"d  c #725445",
"f  c #755847",
"g  c #7B5946",
"h  c #725649",
"j  c #785748",
"k  c #755A4C",
"l  c #7A5C4D",
"z  c #765D51",
"x  c #7A5E51",
"c  c #7D604F",
"v  c #776052",
"b  c #7D6254",
"n  c #7E6559",
"m  c #7F685A",
"M  c #825E4E",
"N  c #815F51",
"B  c #82614E",
"V  c #826454",
"C  c #896655",
"Z  c #856857",
"A  c #8B6957",
"S  c #826659",
"D  c #8A665B",
"F  c #83695C",
"G  c #836B5F",
"H  c #84685C",
"J  c #866A5C",
"K  c #85695C",
"L  c #886859",
"P  c #886B59",
"I  c #89695A",
"U  c #886B5B",
"Y  c #8A6A5B",
"T  c #8C6B5A",
"R  c #8A6D5B",
"E  c #8D6C5B",
"W  c #89695C",
"Q  c #886B5D",
"!  c #8A6F5E",
"~  c #8C6C5D",
"^  c #8D6D5E",
"/  c #8C6F5F",
"(  c #8E6E5F",
")  c #8A6C5D",
"_  c #916E5C",
"`  c #8D705E",
"'  c #8D705F",
"]  c #91705F",
"[  c #92715E",
"{  c #876C60",
"}  c #8A6C61",
"|  c #8C6F61",
" . c #8A6E61",
".. c #906F60",
"X. c #8F7260",
"o. c #8E7264",
"O. c #8F7367",
"+. c #8D7164",
"@. c #8F7469",
"#. c #907061",
"$. c #917260",
"%. c #927361",
"&. c #917162",
"*. c #917164",
"=. c #927565",
"-. c #937664",
";. c #967667",
":. c #937364",
">. c #997563",
",. c #957866",
"<. c #9B7966",
"1. c #977768",
"2. c #937669",
"3. c #9B776B",
"4. c #9A776A",
"5. c #967969",
"6. c #96796B",
"7. c #977A6A",
"8. c #967A6C",
"9. c #957A6C",
"0. c #997869",
"q. c #98786B",
"w. c #987B6B",
"e. c #9A7D6B",
"r. c #99796D",
"t. c #9D7B6F",
"y. c #9A7D6D",
"u. c #9C7C6D",
"i. c #9C7C6F",
"p. c #9C7F6F",
"a. c #9F7E6F",
"s. c #9B7B6C",
"d. c #977C70",
"f. c #9F7F72",
"g. c #9B7E71",
"h. c #A27E6D",
"j. c #A17C73",
"k. c #A37F73",
"l. c #A27C71",
"z. c #9B806F",
"x. c #9E8173",
"c. c #9D8174",
"v. c #A3816D",
"b. c #A08071",
"n. c #A38472",
"m. c #A38374",
"M. c #A58475",
"N. c #A48477",
"B. c #A38273",
"V. c #AA8575",
"C. c #AD8A76",
"Z. c #A38678",
"A. c #A6897A",
"S. c #A9897A",
"D. c #AB8A7A",
"F. c #B18D7A",
"G. c #AF907E",
"H. c #B6927F",
"J. c #AC8F81",
"K. c #AE9183",
"L. c #B59484",
"P. c #B89482",
"I. c #BB9885",
"U. c #B69488",
"Y. c #B49789",
"T. c #B79A8C",
"R. c #BB9B8B",
"E. c #BEA193",
"W. c #C3A492",
/* pixels */
"z b b x x O.J b b b Z w < Z ` P V c b v k z n v n n y 0 e w 8 : 4 4 4 : 5 < 9 2 9 w w d w V D 3.U...w y z 7 7 n s n k n | b x b ",
"h v b b b O.H b b l c 5 < ` ` Z c R P k k k z s z 7 y J =.6.,.! b p 4 3 c l V Q ^ :.0.z...s.j.k.4.Q w w s 1 - z n m z H | H b V ",
"k x b b l H x l l k f : < -.[ Z Z g b H z a z z t t J i.;.y.:.N c p : 5 6.x.i.S.B.0.y.w.N D D N V I d w s 1 - z n v z n P b x x ",
"n n z k d l k k f f p : 8 z.[ c B b J P z z s 6 2 x f.q.4.h._ C c V i 5 Q 6.^ ^ E c b V d N C x N :.d 0 s 4 6 n v z a z l k l h ",
"n n h p p k j k f l e < r n.` Z l J H n { h 1 0 } 3.N.g.M.h.M _ l Z l : d | | D D V V V x H C N N =.w 5 i 1 6 H x h p h j j k h ",
"x b h h d k j k f c r 3 g n.[ R C V H V a > 2 O.g.3.j.j.k.;.M A Z V V 3 q Z ^ V V b x V x D S Z N } 6 2 t , 1 n x k h h j k k l ",
"t x k k d k k l b b e < l v.Z [ ..^ } p $ 2 { 2.| 4.f.V.k.>.N D Z g x 0 q V Z Z Q Z V l x I V Q J H , 5 a - * a x h d a j l x N ",
"1 h h k d l x N P c 9 : g z.B [ 2.H k 2 > k @.O.*.3.;.k.F.>.N _ I f l 5 9 x S H P n l x k Z H H 2.H & 5 z 1 # t z h h d l x x D ",
"6 p a k N z k z b e 2 @ 8 | :._ *.h 2 > 0 } @.O.[ h.h.C.H.<.C _ B g k q 6 v ! J G H k a z n H  .d.1 1 z n > * 0 a a z k k k x N ",
"- t h a a h k x b 0 & @ d s.0.| h 2 > y z r.r.} [ h.h.v.V.v.A g Z g k q 4 a m G ! H b b J { | d.n 1 6 0 6 * * 6 y a z z h k l x ",
"- - 6 a k x N h w > @ @ 9 V d w > $ > h } g.@.x >.3.>.h.C.v.B C V f k 9 - 6 a v 9.{ z k h t q y 1 * 1 1 * O * * 6 t a a k N x h ",
"a 1 1 p z z h 2 @ & , 2 9 y 9 < 2 * 2 z } 2.} x <.3.h.v.v.A M A Z c b p 4 - 4 s z p 0 5 0 6 2 ; = * t t a t a t * 2 a x x l 2 $ ",
"v a t 1 > = $ & 6 l =.2.;.0.4.;.h 2 2 S  .2.| } :.>.l.>.g g C M B c c a 4 % - i a a d z H } } n h t z G @.n n z t 7 7 7 1 > & > ",
"z a 6 - 2 d S } =.g.i.^ V Z I ^ x 2 2 D  .H Z D ..h.h.[ <.h.>._ B c f e 4 o * s  .} } } H z x x } h y n @.n z a v 4 - : 2 p l +.",
"z a 1 1 y { |  .H V l d u j N D h 2 > { } x x N C h.C [ I.C.B C B c c a q 4 4 s z S { S l x N S n z a h } G { x t = 4 b o.,.@.o.",
"z 0 2 t k d t 9 p h g N N l N V h > 2 } *.{ C _ _ _ [ V.F.v._ C B B f f i 4 * s 0 z } S x S H x a D n a { H x p y 1 6 i p p p s ",
"z 7 6 x { S x z d x N l M M M C d 5 = 2.f. .} | _ _ ..l.H.F._ M V g k z a 2 1 t q i  .Q } N S N a x @.D x S h h t 0 n n S x h h ",
"z t t x z z h k x x j g g l V D t 0 1 r.k.r.*..._ _ _ h.H.H.>.C u x S k a 2 , 0 i h G H H } S h x S D @.2.H h z t t N h z h h N ",
"z t t z z h p h x l N l g M C D y y 0 r.j.j.k.j...>.>.>.C.F.h.A g P N k a t 1 2 y k } H H H { k x n n } 9.n a z 0 t x z h h k N ",
"z 6 t z k h h k l k N N l V C M 9 0 2 D Q } ..} >.>.>._ h.F._ M g P x h k t , 2 a p x n H H } x h H n @.9.H x v 2 t x z k h h k ",
"a 1 t z h h p j N l N N N N N 9 y q w y.4.:.:.I _ ..>.>.V.H.[ r d P b y 0 > $ , , > 6 y n { } z h n N 2.d.{ n s 1 y z a h p x x ",
"a 1 a z k a p z x j l N j j h 2 w 0 q x.i.0.;..._ ..>.h.C.C._ r V P w > 0 h h y y q 0 2 0 k { n x n { } @.{ n a 1 a z a h y x x ",
"a - y k z h h l d j N l j j h 8 d 8 0 6.2.=.:.:.D ^ >.A M M u 9 V d < w *.k.f.9.f.d.{ 6 $ > x { D D } } 9. .z s * a z h k y j h ",
"a O 6 y z N j z N j j l N D h 2 9 , , X.O.2.=.X.N M u 9 < 3 < < < ; 8 s.K.4.} 4.@.r.d.n 6 # 2 5 p S @.@.d.@.s a # t h h x h N h ",
"1 O   6  .n k l V V l g N D t 2 q , 4 n r.2.2.{ 0 2 2 2 4 < : : @ : j v.D.0.3.:.2.;.2.O.y { H h < & w b +.=.v 4 X * 6 m m z z { ",
"# * 1 7 F v l b Z x M D D j 2 0 7 1 , s x h y > > > ; $ @ @ @ & ; 9 l >.V.h.3.>.s.2.f.H k 2.! P c q 3 , = 4 : % # # 7 m n z x N ",
"* 6 6 6 F b h x I N V D j 0 2 t 7 - o * & & > & 1 2 2 < 4 4 q q ; d M :.V.V.>.>.:.:.6.f J 0.n V V v c f q : + . i 2 t  .x h N { ",
"z t # # b F k h d d C V 8 t t 0 - , , 4 2 0 h h h d y w e e e e : 8 j _ C.V.>.>.[ :.! p m.M.Z B d k m ! ' F k p 7 * = x H k k k ",
"@.} t = 6 t k k l V } N t y 0 2 , 5 t a a h h y y 9 9 w p e e s 5 : r A v.V.<.h.e.<.c f L.C.[ [ P b l c P {  .' x 2 * p z x k j ",
"H } { z 6 * y H Z V u 0 2 , & 0 k z k a h k h y t q p d p w q d 9 ; r B h.H.v.[ [ e.f l G.V.<.[ Z c f Z Q | @.G @.D q 6 , y k N ",
"} x z z a - 1 0 f g 9 9 8 8 0 N p h h p h k k h w u j k f e e d q & e c [ W.v.[ -.z.c P D.L.v.E b c b R } { } D x S h p > 6 x D ",
"} { x a p - 1 t , 4 q h 0 0 t t p a k h h h h h p d h k f f f e d & 9 r [ H.v.v.e.5.c P A.E.v.` ` Z m ' N x O.} { x h a > > 0 0 ",
"2.x x a k 1 7 & q i k p w q 0 a y h y p h k k p d h h d h k z k y & 5 p g H.C.z.e.z.Z b G.R.S.=.Q ! ! V b V !  .H k k t 2 t = > ",
"{ b x x k 1 q # i p 6 * = 5 6 y h k d d f j k f d h l h h k k h 1 + , e l v.C.[ [ v.X.Z J.T.A.Q P H Z b v V ! Q b h x k 2 6 > a ",
"} { k J z 0 t * a i 6 , 5 i i k d h y y p f h p d k l z x z k p 1 & = e c z.H.z.;.s.V l Z.Y.S.| ' Z m b x V H { 2.k { z 2 2 $ t ",
"2.| n { h a a - 7 q t t p y 0 y p p y p k h j p d k x N x x z k a a 2 w r z.H.<.e.2.V b J.T.S.2.+.P P P H H {  .O.k H k a z * t ",
"d. .{ x t z k - & 1 7 t i q q i h h p k x x x k h k x x x x x z z P 0 3 r [ R.v.i.i.R V A.K.D.y.' F Q |  .G | d.@.D H a a z * 2 ",
"2.{ H 0 0 m z - 1 i p i y t y y h k h h x S V x h h k k x x x x k H i < e [ E.C.b.x.P k x.Y.L.x.' G } | ! ! @.q.} H p 0 z x 1 1 ",
"} { x > a F z 1 - i i i y p h i h k a h x Z H x k l l x x x x x k n H q : c G.A.6.w.J H K.E.L.6.o.! J ! H J } } } n 1 t m z 1 * ",
"} | k = n { z 6 = 7 7 t y t p i p z h k b J Z l x x x N x n n x m c 2.i @ e Z.Z.=.@.V V Z.K.A.;.' P H J I Q } Q } x * z @.z 7 - ",
"O.@.t 0 } x z t 1 # q q t i w k h x h h h D H N x x x S z z N } n b ' ! > y k c.d.3.{ d f x H !  .Q I d | | | @.} a 0 n S x t > ",
"2.} 0 0 { z z y 1 # 7 t q i i h h h h t q S } x k k x Z S S H H V b +.X.2 p y d H } x y e d p y l V k w q.O. .@.@.t 0 H x z y 2 ",
"d.{ 2 0 { z a a 1 + 4 q p a z a k h h h 0 z } S n x x b N H { { G m @.c.w q q p z V x k y 0 5 t y j w y 6.2.r.g.} 0 0 { x h p 6 ",
" .x 2 t { a i t 6 # , i k k n k h y k x t p { @.n H n H { } { H P H @.z.i - 4 a d k x b a 1 1 t 0 w 0 q V H 3.4.x 0 0 N z h a 6 ",
"x d , 5 n a a a t # * q h t z z y t p h 2 , 0 p x { @.6.g.g.r.4.@.+.x s 6 - 4 a z d a f v i 4 - q p w w p y { x h 2 6 x h h p t ",
"k y 2 0 x a a a z * X & 2 > 2 > O & 2 0 2 2 > , 1 2 6 t a z n } O.v q 4 q 4 t v x z f f v v t - , i w q y t a k h 2 2 x k p h h ",
"l p 2 t F z s a z 1 * = h x h , 0 a k x k z p t 0 0 2 > - = * , w 5 6 7 i - 4 z i k f a k k p 7 * 4 4 7 t t y h h 1 2 S x h h k ",
"k y 6 a @.z z z t t 0 1 a H h * x x k h t t p p k z z k k t 2 , 8 2 w 1 1 * 1 i a s k s p s z v 6 - 4 a p t p p h 2 t } x z x h ",
"a z 2 x @.a a w p v k 6 4 p : 5 c f f k f k d y k k V x x k H z z z n z b s 5 7 z s a z z s v v v 5 q s t i a t s 6 h f.x h p p ",
"z z 6 7 k a k k z z k i & : 9 l c f f f l l j f l z j x x d H k x H x x v k t 4 a a a z s z v z v 6 4 a s 7 t z n t 6 z a a h z ",
"a 2 1 1 k @.x z k a w k : ,  .P k g g V b c l k v k p n z q H n k x z n z k s 6 7 i i i s s z a q 6 7 q a a i a t 2 2 t { x z x ",
"t t k a x O.k h f p p c : q 6.f d f k l V b x z b k z H t > z { H z z z a a v i 7 i i a s s z p 4 v G i 1 6 t t 2 t a a @.x h a ",
"x n x z x { k k e s c e $ d :.p j l x x x x x z k v H v < , k { n p x x s m m v 6 i i i w 7 6 , 6 b O.h , * 6 z v z b k @.z a a ",
"m z p k z @.V k f s c 9 < Q ' V N x x x x x x x v n v q % , 5 0 2 t n n k b s q * - - - = , 1 < 5 v k q p t i @.n s k a @.x z z ",
"z z z x l @.x x b c c 0 0 ,.E Z N S N x z z z x m n i q < 5 > $ > 8 y y w 7 3 , & , - < 4 q x Z z.;.h q x y , k z s k z  .n x z ",
"n x n n k r.S b b b c 3 3 ' C A C S x z z z z z v k 6 x F F b k y w $ , w w p a c n P G !  .g.A.L.' q q z 0 1 n x n b b  .{ n n ",
"k n x k Z J g x V c r @ e ,.[ Z V x C b k h k z a 0 V =.y.i.6.! V d < 9 4.-.6.z.m.w.A.D.P +.;.I N } x 0 a t * t n F x S Q b x x ",
"x N z h x V k x f f r @ r z.R Z M V !  .k k x h 2 p 6.6.i.6.T M g d 8 8 X.i.6.w.:.V ' ! d x C l D D j 0 a 6 1 n b n k x S x l l ",
"{ z h p k k d l p f e @ c z.C C g I b c H k 0 , x ..M.;.b.s.A Z x C d : l 2.R Z ^ V N V d V C x N ..y 0 a 2 1 n z z y h l k j k ",
"H z h p d k k k f c e : R v.Z Z B Z b G b = , x f.j.B.,.V.<.A Z N D l < r ^ V C D N V V M T D C N ..y 2 h 2 * n z z y p k h k g ",
"z z k a p z x k c c e : ` z.A ` P P G n 1 * x f.=.3.V.k.V._ M C C x n 9 9 H Z } S V x V x } C Z N *.t > a 1 * z n z h a j k j x ",
"a z k a k x x l c c 7 4 Z z.A ` X.' l < $ a d. .} ..l.l.V._ C A ! k k q 5 V V H H S x l k { N J *.D 2 > a 6 * 6 z h h k k l x b ",
"y h a h z k v c m e 3 : c -.R ` =.k t 1 t x } 2.3.3.l.h.F.>.E _ V j p 9 5 x H H } V x h j C S D j.k > y z 1 * 1 a a k k x z x Z ",
"t p p z b f f c c 6 : @ c [ [ [ V 5 1 - t r.3.} *.l.l.V.P.>.B I b b j w 5 x H P | S x l k H { } r.8 & z n * * 6 a a z z k l x x "
};
