/* XPM */
static char *a1c0a977e5ce4da5a8d8d708b6a0fb3ezEh7DzluoxuJhux4[] = {
/* columns rows colors chars-per-pixel */
"64 64 235 2 ",
"   c #0C1911",
".  c #171B19",
"X  c #0C0F09",
"o  c #291717",
"O  c #311C0F",
"+  c #19280B",
"@  c #192819",
"#  c #1C331A",
"$  c #0D2111",
"%  c #2A291A",
"&  c #382817",
"*  c #29351A",
"=  c #35381C",
"-  c #3D2F08",
";  c #171425",
":  c #2B1926",
">  c #1B2922",
",  c #1A2323",
"<  c #242C2B",
"1  c #292928",
"2  c #362925",
"3  c #2B3B24",
"4  c #293527",
"5  c #3A3628",
"6  c #2B2735",
"7  c #382A37",
"8  c #2B3A33",
"9  c #353935",
"0  c #4D1D1D",
"q  c #4A2C19",
"w  c #473A1A",
"e  c #472F0D",
"r  c #682E1A",
"t  c #6B321C",
"y  c #441C25",
"u  c #492826",
"i  c #522C2A",
"p  c #582725",
"a  c #45332A",
"s  c #463A2C",
"d  c #5B3323",
"f  c #573E25",
"g  c #463937",
"h  c #543B32",
"j  c #5B3936",
"k  c #6B3526",
"l  c #763B2B",
"z  c #693A36",
"x  c #753735",
"c  c #64292B",
"v  c #2D4A23",
"b  c #2F432B",
"n  c #354729",
"m  c #3A552B",
"M  c #2E453C",
"N  c #354C32",
"B  c #3A4738",
"V  c #3E5A33",
"C  c #3A5335",
"Z  c #4E421C",
"A  c #49482A",
"S  c #584628",
"D  c #4C522C",
"F  c #45572C",
"G  c #464A37",
"H  c #574537",
"J  c #475A37",
"K  c #555936",
"L  c #684825",
"P  c #79422C",
"I  c #694838",
"U  c #774737",
"Y  c #675839",
"T  c #77543A",
"R  c #73502A",
"E  c #476737",
"W  c #54653A",
"Q  c #4F6835",
"!  c #716239",
"~  c #3D2E45",
"^  c #463649",
"/  c #733F41",
"(  c #394644",
")  c #3C5345",
"_  c #474549",
"`  c #44534D",
"'  c #4A5B45",
"]  c #5A5742",
"[  c #525250",
"{  c #6A4B46",
"}  c #655744",
"|  c #785847",
" . c #735453",
".. c #745D5B",
"X. c #714E4E",
"o. c #58664E",
"O. c #646846",
"+. c #786444",
"@. c #687152",
"#. c #735F60",
"$. c #5B6764",
"%. c #786C6F",
"&. c #6D7470",
"*. c #B03D38",
"=. c #883C2E",
"-. c #894739",
";. c #96493A",
":. c #8D5737",
">. c #97553D",
",. c #824229",
"<. c #A7463C",
"1. c #98733E",
"2. c #8E6338",
"3. c #884B43",
"4. c #964A44",
"5. c #84584A",
"6. c #9B5444",
"7. c #965849",
"8. c #8A5959",
"9. c #9A5B52",
"0. c #A74B48",
"q. c #B44A46",
"w. c #A4544B",
"e. c #AB534A",
"r. c #A95B48",
"t. c #B45344",
"y. c #B8554A",
"u. c #AB5754",
"i. c #B45954",
"p. c #886549",
"a. c #97674C",
"s. c #8C6D58",
"d. c #9D6E5A",
"f. c #927455",
"g. c #A8674B",
"h. c #A66853",
"j. c #B76656",
"k. c #A87A5B",
"l. c #B67553",
"z. c #B46F47",
"x. c #977663",
"c. c #8D7475",
"v. c #8F7368",
"b. c #A46D62",
"n. c #A57669",
"m. c #B57968",
"M. c #C7574D",
"N. c #C6544E",
"B. c #C66A58",
"V. c #CC7C64",
"C. c #7B857A",
"Z. c #AE8456",
"A. c #BC875A",
"S. c #9E847B",
"D. c #B68567",
"F. c #AB8575",
"G. c #B38B72",
"H. c #C88D58",
"J. c #C78C63",
"K. c #C49569",
"L. c #CC9B73",
"P. c #D99874",
"I. c #D8906B",
"U. c #E39776",
"Y. c #D5A869",
"T. c #D8A675",
"R. c #CCA16E",
"E. c #E5AD7A",
"W. c #E9B57D",
"Q. c #E9BC79",
"!. c #E2A36E",
"~. c #EDC07F",
"^. c #8B8D8B",
"/. c #89928C",
"(. c #918E94",
"). c #B8968A",
"_. c #A89895",
"`. c #B89C98",
"'. c #B08B87",
"]. c #97A39F",
"[. c #BDA19C",
"{. c #9E96A5",
"}. c #9DA6A3",
"|. c #AEB7B7",
" X c #B8B6B6",
".X c #ABA4B3",
"XX c #C49695",
"oX c #C9A79B",
"OX c #D8AB85",
"+X c #F2BB88",
"@X c #E8B88B",
"#X c #CD9CA0",
"$X c #CBAAA7",
"%X c #D1B3AB",
"&X c #E0BAB5",
"*X c #BEC8BD",
"=X c #F7C589",
"-X c #FBC692",
";X c #F6CD92",
":X c #DDC4BB",
">X c #DEC7B5",
",X c #E4CABB",
"<X c #BBBFC5",
"1X c #BCC7C3",
"2X c #D7C6C9",
"3X c #CFD9D5",
"4X c #D2D5D3",
"5X c #DCDDDE",
"6X c #CFCACE",
"7X c #E7CAC9",
"8X c #F7CEC3",
"9X c #EBD5CA",
"0X c #F3D9CE",
"qX c #F6DCD7",
"wX c #E7D7D8",
"eX c #D8E3DF",
"rX c #E8E0DE",
"tX c #FAE4DA",
"yX c #D1D5E1",
"uX c #ECEBEC",
"iX c #E4E3E5",
"pX c #FEEEE4",
"aX c #F8E9E9",
"sX c #FEF3EC",
"dX c #FFF6E8",
"fX c #F5EDF2",
"gX c #EDF1F4",
"hX c #F3F4F4",
"jX c #FDF4F4",
"kX c #FEFBF5",
"lX c #FDF6FA",
"zX c #F5FCFD",
"xX c #FFFFFF",
"cX c #F4F8F7",
"vX c #E6E9F0",
/* pixels */
"xXxXxXxXxXxXxXxXxXxXxXxXxXxXxXxXxXxXxXxXxXxXxXxXxXxXxXxXxXxXxXxXxXxXxXxXxXxXxXxXxXxXxXxXxXxXxXxXxXxXxXxXxXxXxXxXxXxXxXxXxXxXxXxX",
"xXxXxXxXxXxXxXxXxXxXxXxXxXxXxXxXxXxXxXxXxXxXxXxXxXxXxXxXxXxXxXxXxXxXxXxXxXxXxXxXxXxXxXxXxXxXxXxXxXxXxXxXxXxXxXxXxXxXxXxXxXxXxXxX",
"xXxXxXxXxXxXxXxXxXxXxXxXxXxXxXxXxXxXxXxXxXxXxXxXxXxXxXxXxXxXxXxXxXxXxXxXxXxXxXxXxXxXxXxXxXxXxXxXxXxXxXxXxXxXxXxXxXxXxXxXxXxXxXxX",
"xXxXxXxXxXxXxXxXxXxXxXxXxXxXxXxXxXxXxXxXxXxXxXxXxXxXxXxXxXxXxXxXxXxXxXxXxXxXxXxXxXxXxXxXxXxXxXxXxXxXxXxXxXxXxXxXxXxXxXxXxXxXxXxX",
"xXxXxXxXxXxXxXxXxXxXxXxXxXxXxXxXxXxXxXxXxXxXxXxXxXxXxXxXxXxXxXxXxXxXxXxXxXxXxXxXxXxXxXxXxXxXxXxXxXxXxXxXxXxXxXxXxXxXxXxXxXxXxXxX",
"xXxXxXxXxXxXxXxXxXxXxXxXxXxXxXxXxXxXxXxXxXxXxXxXxXxXxXxXxXxXxXxXxXxXxXxXxXxXxXxXxXxXxXxXxXxXxXxXxXxXxXxXxXxXxXxXxXxXxXxXxXxXxXxX",
"xXxXxXxXxXxXxXxXxXxXxXxXxXxXxXxXxXxXxXxXxXxXxXxXxXxXxXxXxXxXxXxXxXxXxXxXxXxXxXxXxXxXxXxXxXxXxXxXxXxXxXxXxXxXxXxXxXxXxXxXxXxXxXxX",
"xXxXxXxXxXxXxXxXxXxXxXxXxXxXxXxXxXxXxXxXxXxXxXxXxXxXxXxXxXxXxXxXxXxXxXxXxXxXxXxXxXxXxXxXxXxXxXxXxXxXxXxXxXxXxXxXxXxXxXxXxXxXxXxX",
"xXxXxXxXxXxXxXxXxXxXxXxXxXxXxXxXxXxXxXxXxXxXxXxXlXxXxXxXxXxXxXxXxXxXxXxXxXxXxXxXxXxXxXxXxXxXxXxXxXxXxXxXxXxXxXxXxXxXxXxXxXxXxXxX",
"xXxXxXxXxXxXxXxXxXxXxXxXxXxXxXxXxXxXxXxXxXxXxXxXxXxXxXxXxXxXxXxXxXxXxXxXxXxXxXxXxXxXxXxXxXxXxXxXxXxXxXxXxXxXxXxXxXxXxXxXxXxXxXxX",
"xXxXxXxXxXxXxXxXxXxXxXxXxXxXxXxXxXxXxXxXxXxXxXxXxXxXxXxXxXxXxXxXxXxXxXxXxXxXxXxXxXxXxXxXxXxXxXxXxXxXxXxXxXxXxXxXxXxXxXxXxXxXxXxX",
"xXxXxXxXxXxXxXxXxXxXxXxXxXxXxXxXxXxXxXxXxXxXxXxXxXxXxXxXxXxXxXxXxXxXxXxXxXxXxXxXxXxXxXxXxXxXxXxXxXxXxXxXxXxXxXxXxXxXxXxXxXxXxXxX",
"xXxXxXxXxXxXxXxXxXxXxXxXxXxXxXxXxXxXxXxXxXxXxXxXxXxXxXxXxXxXxXlXxXxXxXxXxXxXxXxXxXxXxXxXxXxXxXxXxXxXxXxXxXxXxXxXxXxXxXxXxXxXxXxX",
"xXxXxXxXxXxXxXxXxXxXxXxXxXxXxXxXxXxXxXxXxXxXxXxXxXxXxXxXxXzXxXxXxXxXxXxXxXxXxXxXxXxXxXxXxXxXxXxXxXxXxXxXxXxXxXxXxXxXxXxXxXxXxXxX",
"xXxXxXxXxXxXxXxXxXxXxXxXxXxXxXxXxXxXxXxXxXxXxXxXxXxXxXxXfXfXxXxXxXxXxXxXxXxXxXxXxXxXxXxXxXxXxXxXxXxXxXxXxXxXxXxXxXxXxXxXxXxXxXxX",
"xXxXxXxXxXxXxXxXxXxXxXxXxXxXxXxXxXxXxXxXxXxXxXxXxXxXxXuXrXrXsXsXxXkXxXxXxXkXxXxXxXxXxXxXxXxXxXxXxXxXxXxXxXxXxXxXxXxXxXxXxXxXxXxX",
"xXxXxXxXxXxXxXxXxXxXxXxXxXxXxXxXxXxXxXlXfXxXxXxXxX2X%.g : X.XXXX%X8X:X[.%XrXkXxXxXlXxXfXxXxXzXzXxXlXxXxXhXlXxXxXxXxXxXxXxXxXxXxX",
"xXxXxXxXxXxXxXxXxXxXxXxXxXxXxXxXxXjXlXxXxXxX4X^.[ 9 5 ] H d :.7.-.a.p.I T 5.s.v.qXsXxXxXxXxXxXxXxXxXxXxXxXxXxXxXxXxXxXxXxXxXxXxX",
"xXxXxXxXxXxXxXxXxXxXxXxXxXxXxXxXxXxXxXxXhX*X&.+ % 5 A } S e :.J.T.T.Y.R.L.K.D.k.k.G.oX,XtXpXdXkXxXcXxXxXxXxXxXxXxXxXxXxXxXxXxXxX",
"xXxXxXxXxXxXxXxXxXxXxXxXxXxXxXxXzXxXxX4XC.' n + A } @.Y f L J.W.;X=XQ.+X-X=XE.P.>.6.:.7.k.F.oX8XkXxXxXxXxXxXxXxXxXxXxXxXxXxXxXxX",
"xXxXxXxXxXxXxXxXxXxXxXxXxXxXxXxXxXxX5X&.# # m W F K K A e ! @X=X=XY.H.Y.Q.+XE.U.U.I.i.<.;.=.4.n.pXxXxXxXxXxXxXxXxXxXxXxXxXxXxXxX",
"xXxXxXxXxXxXxXxXxXxXxXxXxXxXxXxXxXyX&.4 + v W W ! K A D Z L Z.L.Z.1.1.Z.Z.A.J.l.U.U.V.B.N.q.*.4.`.gXxXxXxXxXlXxXxXxXxXxXxXxXxXxX",
"xXxXxXxXxXxXxXxXxXxXxXxXxXxXxXxXxX(.< @ v V E F D W A ] K & q 5.R T ! p.Y T s.a.h.j.B.M.N.N.N.q. .4XxXcXxXxXxXxXxXxXxXxXxXxXxXxX",
"xXxXxXxXxXxXxXxXxXxXxXxXxXxXxXxX<X`   v V m m Q F @.4 . G 2 j $X9XdXkXdX0X0XdXsXm.m.u.0.*.*.*.0. .5XxXlXxXxXxXxXxXxXxXxXxXxXxXxX",
"xXxXxXxXxXxXxXxXxXuXxXxXuXxXxXcX8 8 b N E E E F Q K B < ; ; ^ X.xXxXxXhXxXkXkXtXoXx.3.w.j.i.q.w.[.uXxXlXxXxXxXxXxXxXxXxXxXxXzXxX",
"xXxXxXxXxXxXxXxXxXlXxXxXxXxX5X/.< b b C E E E E m n 9 , ; ; 7 ^ {.xXxXgXlXcXxXkX9XoXF.b.9.-.=.7.9XxXxXxXxXxXxXxXxXxXxXlXxXxXxXxX",
"xXxXxXxXxXxXxXxXxXxXxXhXxXxX(.4 # v V E E E Q Q A G 9 6 : 6 ^ ^ ^ gXzXzXxXcXxXkXkXkXtX7X%X).oX:XlXxXxXlXxXxXzXxXxXxXxXxXxXxXxXxX",
"xXxXxXxXxXxXxXxXlXxXxXhXzX%X_ . v m E ' E E F F K H a 2 6 ~ i ^ ~ zXxXzXxXzXxXxXxXxXkXxXkXsXkXxXxXxXcXcXxXxXxXxXxXxXxXxXxXxXxXxX",
"xXxXxXxXxXxXxXxXxXxXxXxXuX&.. 4 V V J J N v = Z f d i q u u y : %.xXxXlXxXxXxXxXxXcXxXxXxXxXxXxXxXzXlXxXxXxXxXxXxXxXxXxXlXzXxXxX",
"xXxXxXxXxXxXxXxXxXlXcXxX5X_ . B C V G n 4 % & q k l U 3.X.z p 0 c.fXlXlXxXxXxXxXxXxXxXxXxXzXzXzXxXxXxXxXxXxXlXxXxXxXxXxXxXxXxXxX",
"xXxXxXxXxXxXxXxXxXhXzXxX X1 1 9 C B 8 1 1 2 j x ;.w.r.j.g.9.;.-.z c._.aXxXkXxXxXxXxXxXxXxXxXxXxXxXxXxXxXxXxXxXzXxXkXxXzXxXxXxXxX",
"xXxXxXxXxXxXxXxXxXgXxXxX^.. 1 8 ) b 1 % 2 j X.w.6.r.r.r.r.e.0.w.x u & _.dXhXxXkXlXxXxXxXxXxXxXxXxXzXzXlXxXxXxXlXxXxXxXlXxXxXxXxX",
"xXxXxXxXxXxXxXxXzXzXzX|.> < $.< ) % % h d r :.>.6.>.6.:.6.0.q.e.4.x z S.fXxXxXlXzXxXxXxXxXxXxXxXxXxXxXxXxXxXxXxXxXxXxXxXzXxXzXxX",
"xXxXxXxXxXxXxXxXxXzXzX1X( , ) M ( @ % { U t ;.;.,.P P P -.=.4.<.i.-.c #.wXlXxXhXxXxXxXxXxXxXxXxXxXxXxXzXxXxXxXxXlXxXxXxXxXxXxXxX",
"xXxXxXxXxXxXxXxXxXzXzXeX$., ( ) ( @ %  .5.l 3.4.t t t r r k P P 4.3.p / 2XlXxXkXkXxXxXxXxXxXxXxXxXxXxXxXxXxXxXxXxXxXxXzXxXxXxXxX",
"xXxXxXxXxXxXxXxXxXxXzXzX].8 < o.) > % I X.x 4.9.-.-.-.-.-.:.2.>.-.5.c  .wXxXxXxXxXxXxXxXxXxXkXkXxXxXxXzXxXxXxXxXxXxXxXxXxXxXxXxX",
"xXxXxXxXxXxXxXxXxXxXzXxX3X` , ) ) b % H { c 3.4.e.e.y.t.t.r.>.g.9.5.i #.aXlXlXxXkXxXxXxXxXxXxXkXxXxXxXxXxXxXxXxXxXxXxXzXxXxXxXxX",
"xXxXxXxXxXxXxXxXxXxXxXzXzX$.. ( N b % g j i z x 7.e.q.y.y.<.<.>.9.I O #.fXxXlXlXxXxXkXxXkXzXkXkXxXxXxXxXxXxXxXxXxXxXxXxXxXxXxXxX",
"xXxXxXxXxXxXxXxXxXxXzXxXxX/.@ 8 N C = 5 a a s q { -.6.w.0.0.4.-.z { .._.kXxXkXxXxXkXkXxXzXxXxXxXxXjXxXxXxXxXxXxXxXxXxXxXxXxXxXxX",
"xXxXxXxXxXxXxXxXxXxXgXxXxX}.< 3 C J 3 * = 3 5 & & q d x x x c p p ^.wXkXxXzXhXzXkXxXzXkXxXkXkXxXxXxXxXxXzXxXxXxXxXxXxXxXxXxXxXxX",
"xXxXxXxXxXxXxXxXxXxXxXxXxX3X` 4 ' m ' ] s 2 * + * = w s a O : 7  .jXxXgXzXzXzXzXhXxXkXkXjXkXjXlXlXkXkXxXzXxXxXcXxXxXxXxXxXxXxXxX",
"xXxXxXxXxXxXxXxXxXxXxXxXxXgX&.. G J ] } Y A A K J E J B 9 1 6 _ 6  XxXxXzXzXzXxXxXkXpX0X7X&XXX#XaXxXxXxXxXxXxXxXxXxXxXxXxXxXxXxX",
"xXxXxXxXxXxXxXxXxXxXxXxXxXzX|.9 % H H I | | I Y O.o.C b @ , 6 ^ ; (.xXxXzXzXxXlXxX%X).F.b.9.4.4.XXjXkXkXxXkXkXxXxXlXxXxXxXxXlXxX",
"xXzXxXxXxXxXxXxXxXlXxXxXxXxXzX^.X a H h T T I K K K v @   , 6 6 : .XlXxXlXxXlXlXjX).d.a.w.0.0.u.8.2XxXkXxXzXcXxXxXxXxXxXxXxXxXxX",
"xXxXxXxXxXxXxXxXxXcXxXxXxXxXxX5X_ 1 4 G H S Y +.Y K v # # 4 2 2 ^ wXxXtX:X:X0XsX8XG.D.V.>.y.M.j./ `.lXxXzXkXzXkXxXxXlXxXlXxXxXxX",
"zXxXxXxXxXxXxXxXxXxXxXxXxXxXxXxX<X( X 4 G J ] ! W W V v b 5 a j / b.f.T p.T U 9.m.j.P.I.z.z.M.i.x S.aXxXzXcXxXxXlXxXxXxXxXxXxXxX",
"xXxXxXxXxXxXxXxXxXxXxXxXxXxXxXxXxX.X( 4 b G F D D W E m = Z Y f.G.k.2.1.K.L.D.z.g.V.E.!.H.I.B.r.8.%XjXlXkXkXlXxXxXxXxXxXxXxXxXxX",
"xXxXxXxXxXxXxXlXxXxXlXuXxXxXxXzXlXxX1X) $ * n W F J E V A Z p.OX+X@XE.E.E.-X+XJ.R.!.E.K.I.I.z.t $XlXxXjXxXzXzXxXxXxXlXxXxXxXlXxX",
"xXxXxXxXxXxXxXxXxXxXxXxXxXxXxXxXxXcXxXxX1Xo.> > ` C ' o.A e 2.@X=X=X=X~.E.Y.T.OXL.D.a.T | 5.n.'.lXxXxXxXxXxXxXxXxXxXxXxXxXxXxXxX",
"xXxXxXxXxXxXxXxXxXxXxXxXxXxXxXxXxXzXzXxXxXvX/.~ > $ # G D Z s.OX=XY.H.Z.D.K.D.f.5.x.`.&XqXjXlXlXxXxXxXxXxXxXxXxXxXxXxXxXxXxXxXxX",
"xXxXxXxXxXxXxXxXxXxXxXxXxXxXxXxXzXxXxXxXxXxXzX|.$.M 4 4 % O f s.f.1.R L R +.x.F.,XtXjXkXlXxXlXxXxXxXxXxXxXxXxXxXxXxXxXxXxXxXxXxX",
"xXxXxXxXxXxXxXxXxXxXxXxXxXxXxXxXxXzXxXxXxXxXzXxXcX6X/.$.s 5 } S.s.F.%X>X,X9XpXkXkXkXxXxXlXlXlXxXxXxXxXxXxXxXxXxXxXxXxXxXxXxXxXxX",
"xXxXxXxXxXxXxXxXxXxXxXxXxXxXxXxXxXzXxXxXlXxXxXxXzXzXzX3X X XwXxXzXxXkXkXlXxXxXlXxXlXxXxXxXxXxXxXxXxXxXxXxXxXxXxXxXxXxXxXxXxXxXxX",
"xXxXxXxXxXxXxXxXxXxXxXxXxXxXxXxXxXzXxXxXxXxXxXcXgXxXzXzXxXxXlXxXxXxXfXiXvXgXxXxXxXxXxXxXxXxXzXzXxXxXxXxXxXxXxXxXxXxXxXxXxXxXxXxX",
"xXxXxXxXxXxXxXxXxXxXxXxXxXxXxXxXxXxXxXxXxXxXxXxXuXxXzXxXxXxXlXfXxXxXxXxXxXxXxXxXxXxXxXxXzXxXxXxXxXxXxXxXxXxXxXxXxXxXxXxXxXxXxXxX",
"xXxXxXxXxXxXxXxXxXxXxXxXxXxXxXxXxXxXxXxXxXxXxXkXxXxXxXcXzXxXxXxXxXxXzXlXxXxXxXzXxXzXxXxXxXxXxXxXxXxXxXxXxXxXxXxXxXxXxXxXxXxXxXxX",
"xXxXxXxXxXxXxXxXxXxXxXxXxXxXxXxXxXxXxXxXxXxXxXxXxXxXxXzXzXxXxXxXxXxXxXxXzXxXxXxXxXkXxXxXxXkXkXxXxXxXxXxXxXxXxXxXxXxXxXxXxXxXxXxX",
"xXxXxXxXxXxXxXxXxXxXxXxXxXxXxXxXxXxXxXxXxXxXxXxXxXkXxXxXxXxXzXxXzXxXxXxXxXxXxXxXxXxXxXxXxXxXxXxXxXxXxXxXxXxXxXxXxXxXxXxXxXxXxXxX",
"xXxXxXxXxXxXxXxXxXxXxXxXxXxXxXxXxXxXxXxXxXxXkXkXkXxXkXxXxXxXxXxXxXzXxXkXzXxXzXzXxXxXxXzXxXxXxXxXxXxXxXxXxXxXxXxXxXxXxXxXxXxXxXxX",
"xXxXxXxXxXxXxXxXxXxXxXxXxXxXxXxXxXxXxXxXxXxXxXxXxXkXxXxXkXxXkXxXzXzXzXxXxXxXzXxXzXxXxXxXxXxXxXxXxXxXxXxXxXxXxXxXxXxXxXxXxXxXxXxX",
"xXxXxXxXxXxXxXxXxXxXxXxXxXxXxXxXxXxXxXxXxXxXxXxXxXxXxXxXxXxXxXxXxXzXzXxXzXxXxXxXxXxXxXxXxXxXxXxXxXxXxXxXxXxXxXxXxXxXxXxXxXxXxXxX",
"xXxXxXxXxXxXxXxXxXxXxXxXxXxXxXxXxXkXkXxXxXzXxXxXxXxXxXxXxXxXxXxXxXxXxXxXxXxXzXxXxXxXxXxXxXxXxXxXxXxXxXxXxXxXxXxXxXxXxXxXxXxXxXxX",
"xXxXxXxXxXxXxXxXxXxXxXxXxXxXxXxXkXxXxXzXzXxXxXzXxXxXxXxXxXlXxXxXxXxXxXxXxXxXxXxXxXxXxXxXxXxXxXxXxXxXxXxXxXxXxXxXxXxXxXxXxXxXxXxX",
"xXxXxXxXxXxXxXxXxXxXxXxXxXxXxXxXxXkXkXkXzXxXxXxXxXxXxXxXxXxXxXxXxXxXxXxXxXxXxXxXxXkXxXxXxXkXxXxXxXxXxXxXxXxXxXxXxXxXxXxXxXxXxXxX"
};
