/* XPM */
static char *zombieD[] = {
/* columns rows colors chars-per-pixel */
"64 64 183 2 ",
"   c #161627",
".  c #171A27",
"X  c #1C1A27",
"o  c #161628",
"O  c #171828",
"+  c #191C29",
"@  c #231B2A",
"#  c #291F2A",
"$  c #341F2F",
"%  c #361F31",
"&  c #1D242A",
"*  c #1F292B",
"=  c #1C2227",
"-  c #1E2232",
";  c #202429",
":  c #2B212D",
">  c #212D2C",
",  c #35232D",
"<  c #30282F",
"1  c #24332E",
"2  c #2D342F",
"3  c #27392E",
"4  c #293C2C",
"5  c #37342F",
"6  c #3D3C2F",
"7  c #232636",
"8  c #242739",
"9  c #352630",
"0  c #3B2131",
"q  c #402829",
"w  c #452531",
"e  c #482630",
"r  c #4E2834",
"t  c #522C32",
"y  c #552530",
"u  c #4C3131",
"i  c #573434",
"p  c #5B3231",
"a  c #66352E",
"s  c #6A352E",
"d  c #6D382F",
"f  c #73362F",
"g  c #752932",
"h  c #623535",
"j  c #6B3732",
"k  c #6B3B33",
"l  c #673A32",
"z  c #743732",
"x  c #7D3632",
"c  c #733A31",
"v  c #7A3E32",
"b  c #2D422E",
"n  c #32472B",
"m  c #334C2D",
"M  c #3E4A2F",
"N  c #36512E",
"B  c #39552D",
"V  c #3C5B2D",
"C  c #3F612D",
"Z  c #474E2D",
"A  c #574E2D",
"S  c #46522D",
"D  c #4C532D",
"F  c #445D2E",
"G  c #495B2D",
"H  c #5B5A2D",
"J  c #594031",
"K  c #734D2F",
"L  c #60532D",
"P  c #71522F",
"I  c #654730",
"U  c #6A4031",
"Y  c #6E4A30",
"T  c #62403C",
"R  c #754432",
"E  c #7D4234",
"W  c #714D30",
"Q  c #41632D",
"!  c #466D2D",
"~  c #486E2D",
"^  c #4D632D",
"/  c #50682D",
"(  c #52622D",
")  c #3C3E50",
"_  c #643C47",
"`  c #3E4558",
"'  c #3C4456",
"]  c #6E505C",
"[  c #823B34",
"{  c #8E3E35",
"}  c #9A3E36",
"|  c #913D35",
" . c #A53C36",
".. c #AB3F38",
"X. c #A13C38",
"o. c #BC3A39",
"O. c #C93E3C",
"+. c #834535",
"@. c #894636",
"#. c #844D32",
"$. c #8E4E33",
"%. c #8E4A39",
"&. c #974137",
"*. c #9E4835",
"=. c #944D3A",
"-. c #9B4C3C",
";. c #994735",
":. c #89523F",
">. c #94523C",
",. c #9C533C",
"<. c #9D593F",
"1. c #A94437",
"2. c #A7443A",
"3. c #AC433A",
"4. c #AB4C3D",
"5. c #BB453C",
"6. c #B54D3E",
"7. c #BA493D",
"8. c #A3553E",
"9. c #AD543E",
"0. c #A45A3F",
"q. c #A95A3F",
"w. c #B4523F",
"e. c #C2433D",
"r. c #CA423F",
"t. c #8C4A54",
"y. c #AB5740",
"u. c #A65E41",
"i. c #A95D40",
"p. c #BE5442",
"a. c #B25E43",
"s. c #AC6444",
"d. c #B46946",
"f. c #B76E49",
"g. c #B96E49",
"h. c #BD764C",
"j. c #BA7B51",
"k. c #CB4640",
"l. c #CC4B42",
"z. c #C04D41",
"x. c #CD5245",
"c. c #C65D48",
"v. c #CF5848",
"b. c #C15243",
"n. c #D05B4A",
"m. c #CC624B",
"M. c #D2684E",
"N. c #D46D51",
"B. c #C87651",
"V. c #C27E51",
"C. c #CF7853",
"Z. c #D47453",
"A. c #D47A55",
"S. c #D87856",
"D. c #D77D58",
"F. c #CB8757",
"G. c #CA8956",
"H. c #C38052",
"J. c #D6835A",
"K. c #DB8C5F",
"L. c #CE935D",
"P. c #D3935E",
"I. c #D8925F",
"U. c #D3985E",
"Y. c #D79661",
"T. c #D49C62",
"R. c #DB9562",
"E. c #D9A466",
"W. c #DBA867",
"Q. c #DEA569",
"!. c #DCAB6B",
"~. c #D3A065",
"^. c #DFB16E",
"/. c #DFB470",
"(. c #E2AE6F",
"). c #E1B772",
"_. c #E1BA74",
"`. c #E4BE78",
"'. c #E7C67E",
"]. c #E6C47C",
"[. c #E6C47C",
"{. c None",
"}. c black",
/* pixels */
"{.{.{.{.{.{.{.{.{.{.{.{.{.{.{.{.{.{.{.{.{.{.{.{.{.{.{.{.{.{.{.{.{.{.{.{.{.{.{.{.{.{.{.{.{.{.{.{.{.{.{.{.{.{.{.{.{.{.{.{.{.{.{.{.",
"{.{.{.{.{.{.{.{.{.{.{.{.{.{.{.{.{.{.{.{.{.{.{.{.{.{.{.{.{.{.{.{.{.{.{.{.{.{.{.{.{.{.{.{.{.{.{.{.{.{.{.{.{.{.{.{.{.{.{.{.{.{.{.{.",
"{.{.{.{.{.{.{.{.{.{.{.{.{.{.{.{.{.{.{.{.{.{.{.{.{.{.{.{.{.{.{.{.{.{.{.{.{.{.{.{.{.{.{.{.{.{.{.{.{.{.{.{.{.{.{.{.{.{.{.{.{.{.{.{.",
"{.{.{.{.{.{.{.{.{.{.{.{.{.{.{.{.{.{.{.{.{.{.{.{.{.{.{.{.{.{.{.{.{.{.{.{.{.{.{.{.{.{.{.{.{.{.{.{.{.{.{.{.{.{.{.{.{.{.{.{.{.{.{.{.",
"{.{.{.{.{.{.{.{.{.{.{.{.{.{.{.{.{.{.{.{.{.{.{.{.{.{.{.{.{.{.{.{.{.{.{.{.{.{.{.{.{.{.{.{.{.{.{.{.{.{.{.{.{.{.{.{.{.{.{.{.{.{.{.{.",
"{.{.{.{.{.{.{.{.{.{.{.{.{.{.{.{.{.{.{.{.{.{.{.{.{.{.{.{.{.{.{.{.{.{.{.{.{.{.{.{.{.{.{.{.{.{.{.{.{.{.{.{.{.{.{.{.{.{.{.{.{.{.{.{.",
"{.{.{.{.{.{.{.{.{.{.{.{.{.{.{.{.{.{.{.{.{.{.{.{.{.{.{.{.{.{.{.{.{.{.{.{.{.{.{.{.{.{.{.{.{.{.{.{.{.{.{.{.{.{.{.{.{.{.{.{.{.{.{.{.",
"{.{.{.{.{.{.{.{.{.{.{.{.{.{.{.{.{.{.{.{.{.{.{.{.{.{.{.{.{.{.{.{.{.{.{.{.{.{.{.{.{.{.{.{.{.{.{.{.{.{.{.{.{.{.{.{.{.{.{.{.{.{.{.{.",
"{.{.{.{.{.{.{.{.{.{.{.{.{.{.{.{.{.{.{.{.{.{.{.{.{.{.{.{.{.{.{.{.{.{.{.{.{.{.{.{.{.{.{.{.{.{.{.{.{.{.{.{.{.{.{.{.{.{.{.{.{.{.{.{.",
"{.{.{.{.{.{.{.{.{.{.{.{.{.{.{.{.{.{.{.{.{.{.{.{.{.{.{.{.{.{.{.{.{.{.{.{.{.{.{.{.{.{.{.{.{.{.{.{.{.{.{.{.{.{.{.{.{.{.{.{.{.{.{.{.",
"{.{.{.{.{.{.{.{.{.{.{.{.{.{.{.{.{.{.{.{.{.{.{.{.{.{.{.{.{.{.{.{.{.{.{.{.{.{.{.{.{.{.{.{.{.{.{.{.{.{.{.{.{.{.{.{.{.{.{.{.{.{.{.{.",
"{.{.{.{.{.{.{.{.{.{.{.{.{.{.{.{.{.{.{.{.{.{.{.{.{.{.{.{.{.{.{.{.{.{.{.{.{.{.{.{.{.{.{.{.{.{.{.{.{.{.{.{.{.{.{.{.{.{.{.{.{.{.{.{.",
"{.{.{.{.{.{.{.{.{.{.{.{.{.{.{.{.{.{.{.{.{.{.{.{.{.{.{.{.{.{.{.{.{.{.{.{.{.{.{.{.{.{.{.{.{.{.{.{.{.{.{.{.{.{.{.{.{.{.{.{.{.{.{.{.",
"{.{.{.{.{.{.{.{.{.{.{.{.{.{.{.{.{.{.{.{.{.{.{.{.{.{.{.{.{.{.{.{.{.{.{.{.{.{.{.{.{.{.{.{.{.{.{.{.{.{.{.{.{.{.{.{.{.{.{.{.{.{.{.{.",
"{.{.{.{.{.{.{.{.{.{.{.{.{.{.{.{.{.{.{.{.{.{.{.{.{.{.{.{.{.{.{.{.{.{.{.{.{.{.{.{.{.{.{.{.{.{.{.{.{.{.{.{.{.{.{.{.{.{.{.{.{.{.{.{.",
"{.{.{.{.{.{.{.{.{.{.{.{.{.{.{.{.{.{.{.{.{.{.{.{.{.{.{.{.{.{.{.{.{.{.{.{.{.{.{.{.{.{.{.{.{.{.{.{.{.{.{.{.{.{.{.{.{.{.{.{.{.{.{.{.",
"{.{.{.{.{.{.{.{.{.{.{.{.{.{.{.{.{.{.{.{.{.{.{.{.{.{.  O : X }.s {.{.{.j {.{.{.{.{.{.{.{.{.{.{.{.{.{.{.{.{.{.{.{.{.{.{.{.{.{.{.{.",
"{.{.{.{.{.{.{.{.{.{.{.{.{.{.{.{.{.{.{.{.{.{.{.{.. = p h  .@ d.7.s.c s +.8.c s {.{.{.{.{.{.{.{.{.{.{.{.{.{.{.{.{.{.{.{.{.{.{.{.{.",
"{.{.{.{.{.{.{.{.{.{.{.{.{.{.{.{.{.{.{.{.{.{.o * 6 E } S *.. r.I.`./.L././.!.H.s.+.s {.{.{.{.{.{.{.{.{.{.{.{.{.{.{.{.{.{.{.{.{.{.",
"{.{.{.{.{.{.{.{.{.{.{.{.{.{.{.{.{.{.{.{.  O b ! m V M H V , A.'.'.].'.'.'._.).).C.c.p.X.f s s {.{.{.{.{.{.{.{.{.{.{.{.{.{.{.{.{.",
"{.{.{.{.{.{.{.{.{.{.{.{.{.{.{.{.{.{.{.  3 B V V Q ~ ~ ! : d.).'.'.E.^.E.S.].(._.D.A.m.k.k.k.6.c {.{.{.{.{.{.{.{.{.{.{.{.{.{.{.{.",
"{.{.{.{.{.{.{.{.{.{.{.{.{.{.{.{.{.{.  1 b V Q ! Q Q > ~ Q O L.!.U.c d.V.P.T.T.n.E.E.Z.x.l.l.b.c s {.{.{.{.{.{.{.{.{.{.{.{.{.{.{.",
"{.{.{.{.{.{.{.{.{.{.{.{.{.{.{.{.{.  1 1 1 3 C ~ ~ D R B #.n 8.q.@.s s s s s a s c I.l.Z.l.r.r.k.} {.{.{.{.{.{.{.{.{.{.{.{.{.{.{.",
"{.{.{.{.{.{.{.{.{.{.{.{.{.{.{.{.{.= 1 1 B C Q ! W Y k = 1 m q {.{.{.{.{.{.{.{.{.a I.v.f s e.r.o.| {.{.{.{.{.{.{.{.{.{.{.{.{.{.{.",
"{.{.{.{.{.{.{.{.{.{.{.{.{.{.{.{.o 1 1 m C Q Q C ( i x O     o o {.{.{.{.{.{.{.{.{.~.v.l.j 9.r.k.s {.{.{.{.{.{.{.{.{.{.{.{.{.{.{.",
"{.{.{.{.{.{.{.{.{.{.{.{.{.{.{.  > 3 N V ! ! ! C V M i *   - y @ {.{.{.{.{.{.{.{.{.{.E -.a l.B.E {.{.{.{.{.{.{.{.{.{.{.{.{.{.{.{.",
"{.{.{.{.{.{.{.{.{.{.{.{.{.{.{.- 1 N N ! ! ! ~ ~ B 2 3 1 o O _ t.  {.{.{.{.{.{.{.{.{.{.{.{.d s {.{.{.{.{.{.{.{.{.{.{.{.{.{.{.{.{.",
"{.{.{.{.{.{.{.{.{.{.{.{.{.{.+ 1 b V C ! C C ~ ~ ! E N 2 o 8 ' ]   {.{.{.{.{.{.{.{.{.{.{.{.{.{.{.{.{.{.{.{.{.{.{.{.{.{.{.{.{.{.{.",
"{.{.{.{.{.{.{.{.{.{.{.{.{.  > b V V C V N b 1 < 0 q w 0 0 0 % w % {.{.{.{.{.{.{.{.{.{.{.{.{.{.{.{.{.{.{.{.{.{.{.{.{.{.{.{.{.{.{.",
"{.{.{.{.{.{.{.{.{.{.{.{.{.  1 3 V V V m * * % s s %.%.E @.=.j % {.{.{.{.{.{.{.{.{.{.{.{.{.{.{.{.{.{.{.{.{.{.{.{.{.{.{.{.{.{.{.{.",
"{.{.{.{.{.{.{.{.{.{.{.{.{.+ 1 b m V 1 = m , s f +.,.u.u.6.7.=.} 0 % {.{.{.{.{.{.{.{.{.{.{.{.{.{.{.{.{.{.{.{.{.{.{.{.{.{.{.{.{.{.",
"{.{.{.{.{.{.{.{.{.{.{.{.  > 4 4 m n - 4 0 j +.,.q.w.y.w.q.i.5.e.4.%.e % {.{.{.{.{.{.{.{.{.{.{.{.{.{.{.{.{.{.{.{.{.{.{.{.{.{.{.{.",
"{.{.{.{.{.{.{.{.{.{.{.{.- 3 m b m 1 4 X h c v 8.=.@.+.=.,.8.9.7.5.[ % {.{.{.{.{.{.{.{.{.{.{.{.{.{.{.{.{.{.{.{.{.{.{.{.{.{.{.{.{.",
"{.{.{.{.{.{.{.{.{.{.{.{.* 3 m m B 1 4 ,.w a ,.>.v +.E f d } 3.1.8.v f % {.{.{.{.{.{.{.{.{.{.{.{.{.{.{.{.{.{.{.{.{.{.{.{.{.{.{.{.",
"{.{.{.{.{.{.{.{.{.{.{.{.+ 3 m N N = > s.t s 8.@.e % t p s s v @.-.,.+.% {.{.{.{.{.{.{.{.{.{.{.{.{.{.{.{.{.{.{.{.{.{.{.{.{.{.{.{.",
"{.{.{.{.{.{.{.{.{.{.{.{.{.* m B C + 4 ,.T c ,.8.>.-.,.=.,.,.8.=.,.v s w {.{.{.{.{.{.{.{.{.{.{.{.{.{.{.{.{.{.{.{.{.{.{.{.{.{.{.{.",
"{.{.{.{.{.{.{.{.{.{.{.{.{.+ b N V 1 V u l j +.0.q.0.q.i.i.i.s.9.,.8.%.% {.{.{.{.{.{.{.{.{.{.{.{.{.{.{.{.{.{.{.{.{.{.{.{.{.{.{.{.",
"{.{.{.{.{.{.{.{.{.{.{.{.{.o 3 m B 4 = = u.w w z 7.0.9.6.7.y.0.8.8.t j 0 {.{.{.{.{.{.{.{.{.{.{.{.{.{.{.{.{.{.{.{.{.{.{.{.{.{.{.{.",
"{.{.{.{.{.{.{.{.{.{.{.{.{.o > 3 B V & C + :.i s s 1.6.q.6.4.=.=.,.E 0 {.{.{.{.{.{.{.{.{.{.{.{.{.{.{.{.{.{.{.{.{.{.{.{.{.{.{.{.{.",
"{.{.{.{.{.{.{.{.{.{.{.{.{.{.& 1 B B B > O ! V M 0 a x s s s s w 0 {.{.{.{.{.{.{.{.{.{.{.{.{.{.{.{.{.{.{.{.{.{.{.{.{.{.{.{.{.{.{.",
"{.{.{.{.{.{.{.{.{.{.{.{.{.{.+ z B Z Q ! b 1 O = 1 2 5 < 9 : @ r   {.{.{.{.{.{.{.{.{.{.{.{.{.{.{.{.{.{.{.{.{.{.{.{.{.{.{.{.{.{.{.",
"{.{.{.{.{.{.{.{.{.{.{.{.{.{.o 1 m W I K Q V V P ! ~ C V 3 & - g + {.{.{.{.{.{.{.{.{.{.{.{.{.f {.{.{.{.{.{.{.{.{.{.{.{.{.{.{.{.{.",
"{.{.{.{.{.{.{.{.{.{.{.{.{.{.{.+ 1 m B @.1.S G ^ ~ ! C 3 1   $ 7 '   {.{.{.{.{.{.{.{.s +.[ z O.z.f {.{.{.{.{.{.{.{.{.{.{.{.{.{.{.",
"{.{.{.{.{.{.{.{.{.{.{.{.{.{.{.  > 1 j U { ..3.S ~ B 1 1 1   7   O {.{.{.{.{.{.{.{.a N.N.1.a O.x.r.{.{.{.{.{.{.{.{.{.{.{.{.{.{.{.",
"{.{.{.{.{.{.{.{.{.{.{.{.{.{.{.{.o * 3 m N A 1.$.~ ~ C 1   > * ) o {.{.{.{.{.{.{.{.E J.~.s s k.l. .x {.{.{.{.{.{.{.{.{.{.{.{.{.{.",
"{.{.{.{.{.{.{.{.{.{.{.{.{.{.{.{.{.+ 1 3 V A ;.$.~ ~ b N X H   =.s j s s +.+.d j j j.W.S.Z.Z.v.c.l.s {.{.{.{.{.{.{.{.{.{.{.{.{.{.",
"{.{.{.{.{.{.{.{.{.{.{.{.{.{.{.{.{.{.+ 1 b B V W #.~ C ! V V O m.V.g.,.F.E.!.J.m.N.Y.W.!.J.!.M.p.v {.{.{.{.{.{.{.{.{.{.{.{.{.{.{.",
"{.{.{.{.{.{.{.{.{.{.{.{.{.{.{.{.{.{.{.  & 3 b m V ^ C Q > k m.Y.'.'.^.!.`.[.'.K.N.E.U.T.E.C.m.;.{.{.{.{.{.{.{.{.{.{.{.{.{.{.{.{.",
"{.{.{.{.{.{.{.{.{.{.{.{.{.{.{.{.{.{.{.{.{.  > 3 M V Q Q !   h.].'.'.'.'.(.D.Q.^.W.G.H.=.v s s s {.{.{.{.{.{.{.{.{.{.{.{.{.{.{.{.",
"{.{.{.{.{.{.{.{.{.{.{.{.{.{.{.{.{.{.{.{.{.{.{.  . . 4 b G m E ^.].'.F.V.!.).V.s.>.j s {.{.{.{.{.{.{.{.{.{.{.{.{.{.{.{.{.{.{.{.{.",
"{.{.{.{.{.{.{.{.{.{.{.{.{.{.{.{.{.{.{.{.{.{.{.{.  + 1 2 k m u.d.g.s.s s v c s {.{.{.{.{.{.{.{.{.{.{.{.{.{.{.{.{.{.{.{.{.{.{.{.{.",
"{.{.{.{.{.{.{.{.{.{.{.{.{.{.{.{.{.{.{.{.{.{.{.{.{.{.{.  X ; s s s s {.{.{.{.{.{.{.{.{.{.{.{.{.{.{.{.{.{.{.{.{.{.{.{.{.{.{.{.{.{.",
"{.{.{.{.{.{.{.{.{.{.{.{.{.{.{.{.{.{.{.{.{.{.{.{.{.{.{.{.{.o {.{.{.{.{.{.{.{.{.{.{.{.{.{.{.{.{.{.{.{.{.{.{.{.{.{.{.{.{.{.{.{.{.{.",
"{.{.{.{.{.{.{.{.{.{.{.{.{.{.{.{.{.{.{.{.{.{.{.{.{.{.{.{.{.{.{.{.{.{.{.{.{.{.{.{.{.{.{.{.{.{.{.{.{.{.{.{.{.{.{.{.{.{.{.{.{.{.{.{.",
"{.{.{.{.{.{.{.{.{.{.{.{.{.{.{.{.{.{.{.{.{.{.{.{.{.{.{.{.{.{.{.{.{.{.{.{.{.{.{.{.{.{.{.{.{.{.{.{.{.{.{.{.{.{.{.{.{.{.{.{.{.{.{.{.",
"{.{.{.{.{.{.{.{.{.{.{.{.{.{.{.{.{.{.{.{.{.{.{.{.{.{.{.{.{.{.{.{.{.{.{.{.{.{.{.{.{.{.{.{.{.{.{.{.{.{.{.{.{.{.{.{.{.{.{.{.{.{.{.{.",
"{.{.{.{.{.{.{.{.{.{.{.{.{.{.{.{.{.{.{.{.{.{.{.{.{.{.{.{.{.{.{.{.{.{.{.{.{.{.{.{.{.{.{.{.{.{.{.{.{.{.{.{.{.{.{.{.{.{.{.{.{.{.{.{.",
"{.{.{.{.{.{.{.{.{.{.{.{.{.{.{.{.{.{.{.{.{.{.{.{.{.{.{.{.{.{.{.{.{.{.{.{.{.{.{.{.{.{.{.{.{.{.{.{.{.{.{.{.{.{.{.{.{.{.{.{.{.{.{.{.",
"{.{.{.{.{.{.{.{.{.{.{.{.{.{.{.{.{.{.{.{.{.{.{.{.{.{.{.{.{.{.{.{.{.{.{.{.{.{.{.{.{.{.{.{.{.{.{.{.{.{.{.{.{.{.{.{.{.{.{.{.{.{.{.{.",
"{.{.{.{.{.{.{.{.{.{.{.{.{.{.{.{.{.{.{.{.{.{.{.{.{.{.{.{.{.{.{.{.{.{.{.{.{.{.{.{.{.{.{.{.{.{.{.{.{.{.{.{.{.{.{.{.{.{.{.{.{.{.{.{.",
"{.{.{.{.{.{.{.{.{.{.{.{.{.{.{.{.{.{.{.{.{.{.{.{.{.{.{.{.{.{.{.{.{.{.{.{.{.{.{.{.{.{.{.{.{.{.{.{.{.{.{.{.{.{.{.{.{.{.{.{.{.{.{.{.",
"{.{.{.{.{.{.{.{.{.{.{.{.{.{.{.{.{.{.{.{.{.{.{.{.{.{.{.{.{.{.{.{.{.{.{.{.{.{.{.{.{.{.{.{.{.{.{.{.{.{.{.{.{.{.{.{.{.{.{.{.{.{.{.{.",
"{.{.{.{.{.{.{.{.{.{.{.{.{.{.{.{.{.{.{.{.{.{.{.{.{.{.{.{.{.{.{.{.{.{.{.{.{.{.{.{.{.{.{.{.{.{.{.{.{.{.{.{.{.{.{.{.{.{.{.{.{.{.{.{.",
"{.{.{.{.{.{.{.{.{.{.{.{.{.{.{.{.{.{.{.{.{.{.{.{.{.{.{.{.{.{.{.{.{.{.{.{.{.{.{.{.{.{.{.{.{.{.{.{.{.{.{.{.{.{.{.{.{.{.{.{.{.{.{.{."
};
