/* XPM */
static char *zombieW[] = {
/* columns rows colors chars-per-pixel */
"64 64 185 2 ",
"   c #161627",
".  c #171A27",
"X  c #1C1A27",
"o  c #161628",
"O  c #171828",
"+  c #191C29",
"@  c #231B2A",
"#  c #291F2A",
"$  c #341F2F",
"%  c #361F31",
"&  c #1D242A",
"*  c #1F292B",
"=  c #1C2227",
"-  c #1E2232",
";  c #202429",
":  c #2B212D",
">  c #212D2C",
",  c #35232D",
"<  c #30282F",
"1  c #24332E",
"2  c #2D342F",
"3  c #27392E",
"4  c #293C2C",
"5  c #37342F",
"6  c #3D3C2F",
"7  c #232636",
"8  c #242739",
"9  c #352630",
"0  c #3B2131",
"q  c #402829",
"w  c #452531",
"e  c #482630",
"r  c #4E2834",
"t  c #522C32",
"y  c #552530",
"u  c #4C3131",
"i  c #573434",
"p  c #5B3231",
"a  c #66352E",
"s  c #6A352E",
"d  c #6D382F",
"f  c #73362F",
"g  c #752932",
"h  c #623535",
"j  c #6B3732",
"k  c #6B3B33",
"l  c #673A32",
"z  c #743732",
"x  c #7D3632",
"c  c #733A31",
"v  c #7A3E32",
"b  c #2D422E",
"n  c #32472B",
"m  c #334C2D",
"M  c #3E4A2F",
"N  c #36512E",
"B  c #39552D",
"V  c #3C5B2D",
"C  c #3F612D",
"Z  c #474E2D",
"A  c #574E2D",
"S  c #46522D",
"D  c #4C532D",
"F  c #445D2E",
"G  c #495B2D",
"H  c #5B5A2D",
"J  c #594031",
"K  c #734D2F",
"L  c #60532D",
"P  c #71522F",
"I  c #654730",
"U  c #6A4031",
"Y  c #6E4A30",
"T  c #62403C",
"R  c #754432",
"E  c #7D4234",
"W  c #714D30",
"Q  c #41632D",
"!  c #466D2D",
"~  c #486E2D",
"^  c #4D632D",
"/  c #50682D",
"(  c #52622D",
")  c #3C3E50",
"_  c #643C47",
"`  c #3D4557",
"'  c #6E505C",
"]  c #823B34",
"[  c #8E3E35",
"{  c #9A3E36",
"}  c #913D35",
"|  c #A53C36",
" . c #AB3F38",
".. c #A13C38",
"X. c #BC3A39",
"o. c #C93E3C",
"O. c #834535",
"+. c #894636",
"@. c #844D32",
"#. c #8E4E33",
"$. c #8E4A39",
"%. c #974137",
"&. c #9E4835",
"*. c #944D3A",
"=. c #9B4C3C",
"-. c #994735",
";. c #89523F",
":. c #94523C",
">. c #9C533C",
",. c #9D593F",
"<. c #A94437",
"1. c #A7443A",
"2. c #AC433A",
"3. c #AB4C3D",
"4. c #BB453C",
"5. c #B54D3E",
"6. c #BA493D",
"7. c #A3553E",
"8. c #AD543E",
"9. c #A45A3F",
"0. c #A95A3F",
"q. c #B4523F",
"w. c #C2433D",
"e. c #CA423F",
"r. c #8C4A54",
"t. c #AB5740",
"y. c #A95D40",
"u. c #A65E41",
"i. c #BE5442",
"p. c #B25E43",
"a. c #AC6444",
"s. c #B46946",
"d. c #B76E49",
"f. c #B96E49",
"g. c #BD764C",
"h. c #BA7B51",
"j. c #CB4640",
"k. c #CC4B42",
"l. c #C04D41",
"z. c #CD5245",
"x. c #C65D48",
"c. c #CF5848",
"v. c #C15243",
"b. c #D05B4A",
"n. c #CC624B",
"m. c #D2684E",
"M. c #D36D51",
"N. c #C87651",
"B. c #C27E51",
"V. c #CF7853",
"C. c #D47453",
"Z. c #D47A55",
"A. c #D87856",
"S. c #D77D58",
"D. c #CB8757",
"F. c #CA8956",
"G. c #C38052",
"H. c #D6835A",
"J. c #DB8C5F",
"K. c #CE935D",
"L. c #D3935E",
"P. c #D8925F",
"I. c #D3985E",
"U. c #D79661",
"Y. c #D49C62",
"T. c #DB9562",
"R. c #D9A466",
"E. c #DBA867",
"W. c #DEA569",
"Q. c #DDAB6A",
"!. c #DCAC6B",
"~. c #D3A065",
"^. c #DFB16E",
"/. c #DFB470",
"(. c #E2AE6F",
"). c #E1B672",
"_. c #E1B772",
"`. c #E1BA74",
"'. c #E4BE78",
"]. c #E5C17A",
"[. c #E7C67E",
"{. c #E7C77F",
"}. c #E6C47D",
"|. c None",
" X c black",
/* pixels */
"|.|.|.|.|.|.|.|.|.|.|.|.|.|.|.|.|.|.|.|.|.|.|.|.|.|.|.|.|.|.|.|.|.|.|.|.|.|.|.|.|.|.|.|.|.|.|.|.|.|.|.|.|.|.|.|.|.|.|.|.|.|.|.|.",
"|.|.|.|.|.|.|.|.|.|.|.|.|.|.|.|.|.|.|.|.|.|.|.|.|.|.|.|.|.|.|.|.|.|.|.|.|.|.|.|.|.|.|.|.|.|.|.|.|.|.|.|.|.|.|.|.|.|.|.|.|.|.|.|.",
"|.|.|.|.|.|.|.|.|.|.|.|.|.|.|.|.|.|.|.|.|.|.|.|.|.|.|.|.|.|.|.|.|.|.|.|.|.|.|.|.|.|.|.|.|.|.|.|.|.|.|.|.|.|.|.|.|.|.|.|.|.|.|.|.",
"|.|.|.|.|.|.|.|.|.|.|.|.|.|.|.|.|.|.|.|.|.|.|.|.|.|.|.|.|.|.|.|.|.|.|.|.|.|.|.|.|.|.|.|.|.|.|.|.|.|.|.|.|.|.|.|.|.|.|.|.|.|.|.|.",
"|.|.|.|.|.|.|.|.|.|.|.|.|.|.|.|.|.|.|.|.|.|.|.|.|.|.|.|.|.|.|.|.|.|.|.|.|.|.|.|.|.|.|.|.|.|.|.|.|.|.|.|.|.|.|.|.|.|.|.|.|.|.|.|.",
"|.|.|.|.|.|.|.|.|.|.|.|.|.|.|.|.|.|.|.|.|.|.|.|.|.|.|.|.|.|.|.|.|.|.|.|.|.|.|.|.|.|.|.|.|.|.|.|.|.|.|.|.|.|.|.|.|.|.|.|.|.|.|.|.",
"|.|.|.|.|.|.|.|.|.|.|.|.|.|.|.|.|.|.|.|.|.|.|.|.|.|.|.|.|.|.|.|.|.|.|.|.|.|.|.|.|.|.|.|.|.|.|.|.|.|.|.|.|.|.|.|.|.|.|.|.|.|.|.|.",
"|.|.|.|.|.|.|.|.|.|.|.|.|.|.|.|.|.|.|.|.|.|.|.|.|.|.|.|.|.|.|.|.|.|.|.|.|.|.|.|.|.|.|.|.|.|.|.|.|.|.|.|.|.|.|.|.|.|.|.|.|.|.|.|.",
"|.|.|.|.|.|.|.|.|.|.|.|.|.|.|.|.|.|.|.|.|.|.|.|.|.|.|.|.|.|.|.|.|.|.|.|.|.|.|.|.|.|.|.|.|.|.|.|.|.|.|.|.|.|.|.|.|.|.|.|.|.|.|.|.",
"|.|.|.|.|.|.|.|.|.|.|.|.|.|.|.|.|.|.|.|.|.|.|.|.|.|.|.|.|.|.|.|.|.|.|.|.|.|.|.|.|.|.|.|.|.|.|.|.|.|.|.|.|.|.|.|.|.|.|.|.|.|.|.|.",
"|.|.|.|.|.|.|.|.|.|.|.|.|.|.|.|.|.|.|.|.|.|.|.|.|.|.|.|.|.|.|.|.|.|.|.|.|.|.|.|.|.|.|.|.|.|.|.|.|.|.|.|.|.|.|.|.|.|.|.|.|.|.|.|.",
"|.|.|.|.|.|.|.|.|.|.|.|.|.|.|.|.|.|.|.|.|.|.|.|.|.|.|.|.|.|.|.|.|.|.|.|.|.|.|.|.|.|.|.|.|.|.|.|.|.|.|.|.|.|.|.|.|.|.|.|.|.|.|.|.",
"|.|.|.|.|.|.|.|.|.|.|.|.|.|.|.|.|.|.|.|.|.|.|.|.|.|.|.|.|.|.|.|.|.|.|.|.|.|.|.|.|.|.|.|.|.|.|.|.|.|.|.|.|.|.|.|.|.|.|.|.|.|.|.|.",
"|.|.|.|.|.|.|.|.|.|.|.|.|.|.|.|.|.|.|.|.|.|.|.|.|.|.|.|.|.|.|.|.|.|.|.|.|.|.|.|.|.|.|.|.|.|.|.|.|.|.|.|.|.|.|.|.|.|.|.|.|.|.|.|.",
"|.|.|.|.|.|.|.|.|.|.|.|.|.|.|.|.|.|.|.|.|.|.|.|.|.|.|.|.|.|.|.|.|.|.|.|.|.|.|.|.|.|.|.|.x s |.|.|.|.|.|.|.|.|.|.|.|.|.|.|.|.|.|.",
"|.|.|.|.|.|.|.|.|.|.|.|.|.|.|.|.|.|.|.|.|.s { } s |.|.|.|.|.|.|.|.|.|.|.|.|.|.|.|.|.f e.| k.v |.|.|.|.|.|.|.|.|.|.|.|.|.|.|.|.|.",
"|.|.|.|.|.|.|.|.|.|.|.|.|.|.|.|.|.|.|.|.d c j.X.k.E |.|.|.|.|.|.|.|.|.|.|.|.|.|.|.|.w.k.k.x.i.*.s |.|.|.|.|.|.|.|.|.|.|.|.|.|.|.",
"|.|.|.|.|.|.|.|.|.|.|.|.|.|.|.|.|.|.|.s q.v.e.e.e.N.a |.|.|.|.|.|.|.|.|.|.|.|.|.|.f o.o.j.b.m.n.s |.|.|.|.|.|.|.|.|.|.|.|.|.|.|.",
"|.|.|.|.|.|.|.|.|.|.|.|.|.|.|.|.|.|.|.s j.k.e.e.8.k.j |.|.|.|.|.|.|.|.|.|.|.|.|.|.|.z s s C.W.V.s |.|.|.|.|.|.|.|.|.|.|.|.|.|.|.",
"|.|.|.|.|.|.|.|.|.|.|.|.|.|.|.|.|.|.|.f e.k.k.s s s |.|.|.|.|.|.|.|.|.|.|.|.|.|.|.|.] 1.s Z.H.R.v |.|.|.|.|.|.|.|.|.|.|.|.|.|.|.",
"|.|.|.|.|.|.|.|.|.|.|.|.|.|.|.|.|.|.|...k.k.C.f k.t.|.|.|.|.|.|.|.|.|.|.|.|.|.|.|.|.O.M.~.Z.!.Y.*.|.|.|.|.|.|.|.|.|.|.|.|.|.|.|.",
"|.|.|.|.|.|.|.|.|.|.|.|.|.|.|.|.|.|.|.l.n.C.k.c.z.O.|.|.|.|.|.|.|.|.|.|.|.|.|.|.|.|.s M.H.R.E.I.G.s |.|.|.|.|.|.|.|.|.|.|.|.|.|.",
"|.|.|.|.|.|.|.|.|.|.|.|.|.|.|.|.|.|.s x.Z.R.P.P.~.|.|.|.|.|.|.|.|.|.|.|.|.|.|.|.|.|.|.a E h.U.W.F.s |.|.|.|.|.|.|.|.|.|.|.|.|.|.",
"|.|.|.|.|.|.|.|.|.|.|.|.|.|.|.|.|.|.O.V.Z.R.c s |.|.|.|.|.|.|.|.|.|.|.|.|.|.|.|.|.|.|.|.|.c M.M.!.*.|.|.|.|.|.|.|.|.|.|.|.|.|.|.",
"|.|.|.|.|.|.|.|.|.|.|.|.|.|.|.|.|.|.a.).`.n.s |.|.|.|.|.|.|.|.|.|.|.|.|.|.|.|.|.|.|.|.|.|.j n.J.^.a.|.|.|.|.|.|.|.|.|.|.|.|.|.|.",
"|.|.|.|.|.|.|.|.|.|.|.|.|.|.|.|.|.s B.).(.Y.s |.|.|.|.|.|.|.|.|.|.|.|.|.|.|.|.|.|.|.|.|.|.d H.}.W.G.s |.|.|.|.|.|.|.|.|.|.|.|.|.",
"|.|.|.|.|.|.|.|.|.|.|.|.|.|.|.|.|.j !.`.[.L.d |.|.|.|.|.|.|.|.|.|.|.|.|.|.|.|.|.|.|.|.|.|.O.!.}.S.).v |.|.|.|.|.|.|.|.|.|.|.|.|.",
"|.|.|.|.|.|.|.|.|.|.|.|.|.|.|.|.|.u.).].Z.L.s |.|.|.|.|.|.|.|.|.|.|.|.|.|.|.|.|.|.|.|.|.|.O.R.'.W.^.v |.|.|.|.|.|.|.|.|.|.|.|.|.",
"|.|.|.|.|.|.|.|.|.|.|.|.|.|.|.|.s O./.[.W.B.s |.|.|.|.|.|.|.|.% |.% % e % 0 |.|.|.|.|.|.|.s D.!.].B.s |.|.|.|.|.|.|.|.|.|.|.|.|.",
"|.|.|.|.|.|.|.|.|.|.|.|.|.|.|.|.|.s L.[.!.s.s |.|.|.|.|.|.|.|.e % f O.s $.j 0 |.|.|.|.|.|.s ,.!.[.F.s |.|.|.|.|.|.|.|.|.|.|.|.|.",
"|.|.|.|.|.|.|.|.|.|.|.|.|.|.|.|.|.c ).].R.k s |.|.|.|.|.|.|.% $.] v >.v 7.t O.|.|.|.  |.|.s d.[.[.[.a.s |.|.|.|.|.|.|.|.|.|.|.|.",
"|.|.|.|.|.|.|.|.|.|.|.|.|.|.|.|.|.a.'.[.{.I.+.|.|.|.    % |.0 3.4.7.*.>.>.7.>.% o + ` O   j B.[.[.].f.s |.|.|.|.|.|.|.|.|.|.|.|.",
"|.|.|.|.|.|.|.|.|.|.|.|.|.|.|.|.d w.P.[.[.Q.0.|.o # r.' 0 $ %.w.4.1.+.*.8.7.:.e r g 8   ) *.n.T.].^.d.s |.|.|.|.|.|.|.|.|.|.|.|.",
"|.|.|.|.|.|.|.|.|.|.|.|.|.|.|.|. Xa.e.C._.K.,.q O y _ ` % j *.w.q.2.v 9.0.9.*.s @ - $ 7 * o . n.g.E u.s |.|.|.|.|.|.|.|.|.|.|.|.",
"|.|.|.|.|.|.|.|.|.|.|.|.|.|.|.|.X @ . < s.  b N o @ O 8 0 *.4.y.9.%.s >.y.8.3.s : &   o 1 H V k . m n ; o |.|.|.|.|.|.|.|.|.|.|.",
"|.|.|.|.|.|.|.|.|.|.|.|.|.|.|.|.: <.1.V : Q @.1 o o O O 0 +.5.y.>.s s >.0.6.5.s 9 1 1 1   + B > ! G k X |.|.|.|.|.|.|.|.|.|.|.|.",
"|.|.|.|.|.|.|.|.|.|.|.|.|.|.|.|.  p D H Q ! B = o * 1 2 % v 0.q.*.c p *.y.5.0.s 9 V 3 1 1 N ! ! C b 2   |.|.|.|.|.|.|.|.|.|.|.|.",
"|.|.|.|.|.|.|.|.|.|.|.|.|.|.|.|.  p ..B ! > R k x i 1 m w *.0.t.+.E y *.y.8.5.x 5 C C 1 V b V Q ! 4 > |.|.|.|.|.|.|.|.|.|.|.|.|.",
"|.|.|.|.|.|.|.|.|.|.|.|.|.|.|.|.|.= E C ~ ! D Y J M 2 O.e O.,.8.+.E 0 :.9.9.<.a 2 ! ! V ! ! ~ ^ B . X |.|.|.|.|.|.|.|.|.|.|.|.|.",
"|.|.|.|.|.|.|.|.|.|.|.|.|.|.|.|.|.. 6 n Q Q ~ W ^ V B ! w s O.9.*.O.e :.9.6.s 0 1 ~ ! ~ ~ ~ @.V B X   |.|.|.|.|.|.|.|.|.|.|.|.|.",
"|.|.|.|.|.|.|.|.|.|.|.|.|.|.|.|.|.|.* ! V ! ! Q C C ! ~ < k c >.>.*.+.7.0.c s M = P / S #.#.K N 1   |.|.|.|.|.|.|.|.|.|.|.|.|.|.",
"|.|.|.|.|.|.|.|.|.|.|.|.|.|.|.|.|.|.  n V ! C ! C ! ~ ! 1 % s E v >.9.>.O.0 i V O V G  .<.-.V 4 > |.|.|.|.|.|.|.|.|.|.|.|.|.|.|.",
"|.|.|.|.|.|.|.|.|.|.|.|.|.|.|.|.|.|.|.  B V 3 V Q ~ ! C n & 9 z j s d f j w ;.! 1 V S  .D A V 1   |.|.|.|.|.|.|.|.|.|.|.|.|.|.|.",
"|.|.|.|.|.|.|.|.|.|.|.|.|.|.|.|.|.|.|.  3 b 1 B C ! ~ C B * m % h e u T l a.. . b V <.[ B B b & |.|.|.|.|.|.|.|.|.|.|.|.|.|.|.|.",
"|.|.|.|.|.|.|.|.|.|.|.|.|.|.|.|.|.|.|.|.  1 1 1 N C ! ~ V m & 4 @ :.y.7.u = C > ~ W +.k N 3 1 o |.|.|.|.|.|.|.|.|.|.|.|.|.|.|.|.",
"|.|.|.|.|.|.|.|.|.|.|.|.|.|.|.|.|.|.|.|.|.  * 1 1 m N V C B 3 - 4 b > 4 V = & B Q I B j 1 1 + |.|.|.|.|.|.|.|.|.|.|.|.|.|.|.|.|.",
"|.|.|.|.|.|.|.|.|.|.|.|.|.|.|.|.|.|.|.|.|.|.  & 1 1 N V V V V b 3 > = + 3 4 V B Z R N 1 1 . |.|.|.|.|.|.|.|.|.|.|.|.|.|.|.|.|.|.",
"|.|.|.|.|.|.|.|.|.|.|.|.|.|.|.|.|.|.|.|.|.|.|.|.o > 1 b V C m m m N N C B B B B B m 1 1   |.|.|.|.|.|.|.|.|.|.|.|.|.|.|.|.|.|.|.",
"|.|.|.|.|.|.|.|.|.|.|.|.|.|.|.|.|.|.|.|.|.|.|.|.|.. & 1 b 3 4 4 b m N B N m 1 1 z 1 +   |.|.|.|.|.|.|.|.|.|.|.|.|.|.|.|.|.|.|.|.",
"|.|.|.|.|.|.|.|.|.|.|.|.|.|.|.|.|.|.|.|.|.|.|.|.|.|.|.. > 1 1 4 m m m m b 3 1 & .   |.|.|.|.|.|.|.|.|.|.|.|.|.|.|.|.|.|.|.|.|.|.",
"|.|.|.|.|.|.|.|.|.|.|.|.|.|.|.|.|.|.|.|.|.|.|.|.|.|.|.|.. o + > 1 3 3 > + o o |.|.|.|.|.|.|.|.|.|.|.|.|.|.|.|.|.|.|.|.|.|.|.|.|.",
"|.|.|.|.|.|.|.|.|.|.|.|.|.|.|.|.|.|.|.|.|.|.|.|.|.|.|.|.|.|.|.o - > . |.|.|.|.|.|.|.|.|.|.|.|.|.|.|.|.|.|.|.|.|.|.|.|.|.|.|.|.|.",
"|.|.|.|.|.|.|.|.|.|.|.|.|.|.|.|.|.|.|.|.|.|.|.|.|.|.|.|.|.|.|.|.|.|.|.|.|.|.|.|.|.|.|.|.|.|.|.|.|.|.|.|.|.|.|.|.|.|.|.|.|.|.|.|.",
"|.|.|.|.|.|.|.|.|.|.|.|.|.|.|.|.|.|.|.|.|.|.|.|.|.|.|.|.|.|.|.|.|.|.|.|.|.|.|.|.|.|.|.|.|.|.|.|.|.|.|.|.|.|.|.|.|.|.|.|.|.|.|.|.",
"|.|.|.|.|.|.|.|.|.|.|.|.|.|.|.|.|.|.|.|.|.|.|.|.|.|.|.|.|.|.|.|.|.|.|.|.|.|.|.|.|.|.|.|.|.|.|.|.|.|.|.|.|.|.|.|.|.|.|.|.|.|.|.|.",
"|.|.|.|.|.|.|.|.|.|.|.|.|.|.|.|.|.|.|.|.|.|.|.|.|.|.|.|.|.|.|.|.|.|.|.|.|.|.|.|.|.|.|.|.|.|.|.|.|.|.|.|.|.|.|.|.|.|.|.|.|.|.|.|.",
"|.|.|.|.|.|.|.|.|.|.|.|.|.|.|.|.|.|.|.|.|.|.|.|.|.|.|.|.|.|.|.|.|.|.|.|.|.|.|.|.|.|.|.|.|.|.|.|.|.|.|.|.|.|.|.|.|.|.|.|.|.|.|.|.",
"|.|.|.|.|.|.|.|.|.|.|.|.|.|.|.|.|.|.|.|.|.|.|.|.|.|.|.|.|.|.|.|.|.|.|.|.|.|.|.|.|.|.|.|.|.|.|.|.|.|.|.|.|.|.|.|.|.|.|.|.|.|.|.|.",
"|.|.|.|.|.|.|.|.|.|.|.|.|.|.|.|.|.|.|.|.|.|.|.|.|.|.|.|.|.|.|.|.|.|.|.|.|.|.|.|.|.|.|.|.|.|.|.|.|.|.|.|.|.|.|.|.|.|.|.|.|.|.|.|.",
"|.|.|.|.|.|.|.|.|.|.|.|.|.|.|.|.|.|.|.|.|.|.|.|.|.|.|.|.|.|.|.|.|.|.|.|.|.|.|.|.|.|.|.|.|.|.|.|.|.|.|.|.|.|.|.|.|.|.|.|.|.|.|.|.",
"|.|.|.|.|.|.|.|.|.|.|.|.|.|.|.|.|.|.|.|.|.|.|.|.|.|.|.|.|.|.|.|.|.|.|.|.|.|.|.|.|.|.|.|.|.|.|.|.|.|.|.|.|.|.|.|.|.|.|.|.|.|.|.|.",
"|.|.|.|.|.|.|.|.|.|.|.|.|.|.|.|.|.|.|.|.|.|.|.|.|.|.|.|.|.|.|.|.|.|.|.|.|.|.|.|.|.|.|.|.|.|.|.|.|.|.|.|.|.|.|.|.|.|.|.|.|.|.|.|.",
"|.|.|.|.|.|.|.|.|.|.|.|.|.|.|.|.|.|.|.|.|.|.|.|.|.|.|.|.|.|.|.|.|.|.|.|.|.|.|.|.|.|.|.|.|.|.|.|.|.|.|.|.|.|.|.|.|.|.|.|.|.|.|.|.",
"|.|.|.|.|.|.|.|.|.|.|.|.|.|.|.|.|.|.|.|.|.|.|.|.|.|.|.|.|.|.|.|.|.|.|.|.|.|.|.|.|.|.|.|.|.|.|.|.|.|.|.|.|.|.|.|.|.|.|.|.|.|.|.|."
};
