/* XPM */
static char *zombieS[] = {
/* columns rows colors chars-per-pixel */
"64 64 186 2 ",
"   c #161627",
".  c #171A27",
"X  c #1C1A27",
"o  c #161628",
"O  c #171828",
"+  c #191C29",
"@  c #231B2A",
"#  c #291F2A",
"$  c #341F2F",
"%  c #361F31",
"&  c #1D242A",
"*  c #1F292B",
"=  c #1C2227",
"-  c #1E2232",
";  c #202429",
":  c #2B212D",
">  c #212D2C",
",  c #35232D",
"<  c #30282F",
"1  c #24332E",
"2  c #2D342F",
"3  c #27392E",
"4  c #293C2C",
"5  c #37342F",
"6  c #3D3C2F",
"7  c #232636",
"8  c #242739",
"9  c #352630",
"0  c #3B2131",
"q  c #402829",
"w  c #452531",
"e  c #482630",
"r  c #4E2834",
"t  c #522C32",
"y  c #552530",
"u  c #4C3131",
"i  c #573434",
"p  c #5B3231",
"a  c #66352E",
"s  c #6A352E",
"d  c #6D382F",
"f  c #73362F",
"g  c #752932",
"h  c #623535",
"j  c #6B3732",
"k  c #6B3B33",
"l  c #673A32",
"z  c #743732",
"x  c #7D3632",
"c  c #733A31",
"v  c #7A3E32",
"b  c #2D422E",
"n  c #32472B",
"m  c #334C2D",
"M  c #3E4A2F",
"N  c #36512E",
"B  c #39552D",
"V  c #3C5B2D",
"C  c #3F612D",
"Z  c #474E2D",
"A  c #574E2D",
"S  c #46522D",
"D  c #4C532D",
"F  c #445D2E",
"G  c #495B2D",
"H  c #5B5A2D",
"J  c #594031",
"K  c #734D2F",
"L  c #60532D",
"P  c #71522F",
"I  c #654730",
"U  c #6A4031",
"Y  c #6E4A30",
"T  c #62403C",
"R  c #754432",
"E  c #7D4234",
"W  c #714D30",
"Q  c #41632D",
"!  c #466D2D",
"~  c #486E2D",
"^  c #4D632D",
"/  c #50682D",
"(  c #52622D",
")  c #3C3E50",
"_  c #643C47",
"`  c #3D4557",
"'  c #6E505C",
"]  c #823B34",
"[  c #8E3E35",
"{  c #9A3E36",
"}  c #913D35",
"|  c #A53C36",
" . c #AB3F38",
".. c #A13C38",
"X. c #BC3A39",
"o. c #C93E3C",
"O. c #834535",
"+. c #894636",
"@. c #844D32",
"#. c #8E4E33",
"$. c #8E4A39",
"%. c #974137",
"&. c #9E4835",
"*. c #944D3A",
"=. c #9B4C3C",
"-. c #994735",
";. c #89523F",
":. c #94523C",
">. c #99513B",
",. c #9D553D",
"<. c #9D533C",
"1. c #9D593F",
"2. c #A94437",
"3. c #A7443A",
"4. c #AC433A",
"5. c #AB4C3D",
"6. c #BB453C",
"7. c #B54D3E",
"8. c #BA493D",
"9. c #A1573E",
"0. c #A4543E",
"q. c #AD543E",
"w. c #A55A3F",
"e. c #A75C3F",
"r. c #A3593F",
"t. c #A95A3F",
"y. c #B4523F",
"u. c #C2433D",
"i. c #CA423F",
"p. c #8C4A54",
"a. c #AB5740",
"s. c #A95D40",
"d. c #A95D40",
"f. c #A65E41",
"g. c #BE5442",
"h. c #B25E43",
"j. c #AC6444",
"k. c #B46946",
"l. c #B76E49",
"z. c #B96E49",
"x. c #BD764C",
"c. c #BA7B51",
"v. c #CB4640",
"b. c #CC4B42",
"n. c #C04D41",
"m. c #CD5245",
"M. c #C65D48",
"N. c #CF5848",
"B. c #C15243",
"V. c #D05B4A",
"C. c #CC624B",
"Z. c #D2684E",
"A. c #D36D51",
"S. c #C87651",
"D. c #C27E51",
"F. c #CF7853",
"G. c #D47453",
"H. c #D47A55",
"J. c #D87856",
"K. c #D77D58",
"L. c #CB8757",
"P. c #CA8956",
"I. c #C38052",
"U. c #D6835A",
"Y. c #DB8C5F",
"T. c #CE935D",
"R. c #D3935E",
"E. c #D8925F",
"W. c #D3985E",
"Q. c #D79661",
"!. c #D39C62",
"~. c #DB9562",
"^. c #D9A466",
"/. c #DBA867",
"(. c #DEA569",
"). c #DCAB6B",
"_. c #D3A065",
"`. c #DFB16E",
"'. c #DFB470",
"]. c #E2AE6F",
"[. c #E1B772",
"{. c #E1BA74",
"}. c #E4BE78",
"|. c #E6C57D",
" X c None",
".X c black",
/* pixels */
" X X X X X X X X X X X X X X X X X X X X X X X X X X X X X X X X X X X X X X X X X X X X X X X X X X X X X X X X X X X X X X X X",
" X X X X X X X X X X X X X X X X X X X X X X X X X X X X X X X X X X X X X X X X X X X X X X X X X X X X X X X X X X X X X X X X",
" X X X X X X X X X X X X X X X X X X X X X X X X X X X X X X X X X X X X X X X X X X X X X X X X X X X X X X X X X X X X X X X X",
" X X X X X X X X X X X X X X X X X X X X X X X X X X X X X X X X X X X X X X X X X X X X X X X X X X X X X X X X X X X X X X X X",
" X X X X X X X X X X X X X X X X X X X X X X X X X X X X X X X X X X X X X X X X X X X X X X X X X X X X X X X X X X X X X X X X",
" X X X X X X X X X X X X X X X X X X X X X X X X X X X X X X X X X X X X X X X X X X X X X X X X X X X X X X X X X X X X X X X X",
" X X X X X X X X X X X X X X X X X X X X X X X X X X X X X X X X X X X X X X X X X X X X X X X X X X X X X X X X X X X X X X X X",
" X X X X X X X X X X X X X X X X X X X X X X X X X X X X X X X X X X X X X X X X X X X X X X X X X X X X X X X X X X X X X X X X",
" X X X X X X X X X X X X X X X X X X X X X X X X X X X X X X X X X X X X X X X X X X X X X X X X X X X X X X X X X X X X X X X X",
" X X X X X X X X X X X X X X X X X X X X X X X X X X X X X X X X X X X X X X X X X X X X X X X X X X X X X X X X X X X X X X X X",
" X X X X X X X X X X X X X X X X X X X X X X X X X X X X X X X X X X X X X X X X X X X X X X X X X X X X X X X X X X X X X X X X",
" X X X X X X X X X X X X X X X X X X X X X X X X X X X X X X X X X X X X X X X X X X X X X X X X X X X X X X X X X X X X X X X X",
" X X X X X X X X X X X X X X X X X X X X X X X X X X X X X. * & o  X X X X X X X X X X X X X X X X X X X X X X X X X X X X X X X",
" X X X X X X X X X X X X X X X X X X X X X X X X X    + * 4 3 3 > + o o .X X X X X X X X X X X X X X X X X X X X X X X X X X X X",
" X X X X X X X X X X X X X X X X X X X X X Xo o & 1 3 b m m m m 4 1 1 > O .X X X X X X X X X X X X X X X X X X X X X X X X X X X",
" X X X X X X X X X X X X X X X X X X X Xo + 1 z 1 3 m N B N m b 4 b 3 b 1 * o .X X X X X X X X X X X X X X X X X X X X X X X X X",
" X X X X X X X X X X X X X X X X X X Xo 1 1 m N B B B V V N B m m m C V b 1 1 o  X X X X X X X X X X X X X X X X X X X X X X X X",
" X X X X X X X X X X X X X X X X X X+ 1 1 m R Z B V 4 1 + & > 1 b B V V V N 1 1 =    X X X X X X X X X X X X X X X X X X X X X X",
" X X X X X X X X X X X X X X X X X+ 1 1 j B I C B & = V 3 > 4 b - 3 V C V N m 1 1 >    X X X X X X X X X X X X X X X X X X X X X",
" X X X X X X X X X X X X X X X X  1 3 m U +.P ~ > C & u 1.j.>.@ 4 & m V ! ! C N 1 1 1    X X X X X X X X X X X X X X X X X X X X",
" X X X X X X X X X X X X X X X X* 4 V N } 2.C b . O f.l T t w h 9 m > B C ! ! C B 1 b 3    X X X X X X X X X X X X X X X X X X X",
" X X X X X X X X X X X X X X X  1 V A A  .S V 1 ~ ;.w j c d s f j $ & n C ~ ! Q V 3 V B    X X X X X X X X X X X X X X X X X X X",
" X X X X X X X X X X X X X X X> 4 V -.2.4.G V . V p w +.,.9.<.v v d % 1 ! ~ ! C ! C ! V b .  X X X X X X X X X X X X X X X X X X",
" X X X X X X X X X X X X X X  1 m P #.#.S ^ P = M a c r.9.+.*.9.,.f s < ~ ! C C C ! ! V ! *  X X X X X X X X X X X X X X X X X X",
" X X X X X X X X X X X X X  + B C @.~ ~ ~ ~ ! > 9 d 6.e.:.e E $.t.+.s 0 ~ N V ( K ! Q Q n 6    X X X X X X X X X X X X X X X X X",
" X X X X X X X X X X X X X+ . V ^ ~ ~ ~ B ~ ! 2 h 4.r.r.=.% O.+.q.<.+.w @.2 M i Y D ! ! V O.=  X X X X X X X X X X X X X X X X X",
" X X X X X X X X X X X X X> 4 Q V C b V 3 F V 5 x 7.0.d.>.t E +.0.d.*.w N 1 i v l R * ! B ..p    X X X X X X X X X X X X X X X X",
" X X X X X X X X X X X X  2 b Q ! ! N 1 1 4 V 9 s t.8.j.$.p c -.y.t.E 0 2 > > . = B ! ! H S a    X X X X X X X X X X X X X X X X",
" X X X X X X X X X X X XX l F ! * V X + 1 1 3 9 s 7.8.d.9.d d <.a.7.+.0 . o o   3 @.F : V &.| #  X X X X X X X X X X X X X X X X",
" X X X X X X X X X X Xo ; n m   l V A 1     ; : s 5.y.d.<.s %.r.a.g.=.% 8 . +   N n   k.,   @ @  X X X X X X X X X X X X X X X X",
" X X X X X X X X X X X Xd f.E x.C.+ o * 7 $ - @ s *.r.d.9.v 2.q.6.*.j % ` _ y X q 1.R.{.H.i.h. X X X X X X X X X X X X X X X X X",
" X X X X X X X X X X X Xd k.'.|.!.C.*.)   7 g r w *.0.0.:.+.2.8.6.{ % w ' p.@ o  Xt.).|.|.E.g.h  X X X X X X X X X X X X X X X X",
" X X X X X X X X X X X Xa l.|.|.|.D.d   O ` +   0 >.9.<.<.*.0.6.3.w .X% o o  X X X+.W.|.|.|.j. X X X X X X X X X X X X X X X X X",
" X X X X X X X X X X X Xa j.|.|.|.l.s  X Xo  X X XO.y 9.v >.v ] +.% .X.X X X X X Xs c ^.|.`.c  X X X X X X X X X X X X X X X X X",
" X X X X X X X X X X X X Xd L.|.`.,.a  X X X X X X0 j $.d +.j 0 e .X.X.X X X X X Xs k.).|.T.s  X X X X X X X X X X X X X X X X X",
" X X X X X X X X X X X X Xd D.|.).L.j  X X X X X X X0 % w % %  X% .X.X.X X X X X Xs D./.|.'.O.s  X X X X X X X X X X X X X X X X",
" X X X X X X X X X X X X Xv `.(.}.^.O. X X X X X X X X X X X X X X X X X X X X X Xj R.H.|.'.9. X X X X X X X X X X X X X X X X X",
" X X X X X X X X X X X X Xv '.K.|.).O. X X X X X X X X X X X X X X X X X X X X X Xs W.|.'.).c  X X X X X X X X X X X X X X X X X",
" X X X X X X X X X X X X Xj D./.|.U.j  X X X X X X X X X X X X X X X X X X X X X Xs !.[.'.I.d  X X X X X X X X X X X X X X X X X",
" X X X X X X X X X X X X X Xj.`.Y.Z.s  X X X X X X X X X X X X X X X X X X X X X Xs N.}.'.j. X X X X X X X X X X X X X X X X X X",
" X X X X X X X X X X X X X X:./.A.A.c  X X X X X X X X X X X X X X X X X X X X Xs c !.K.H.E  X X X X X X X X X X X X X X X X X X",
" X X X X X X X X X X X X X Xj P.^.Q.c.E a  X X X X X X X X X X X X X X X X X X_.Q.E./.H.M.s  X X X X X X X X X X X X X X X X X X",
" X X X X X X X X X X X X X Xs I.W././.U.A.a  X X X X X X X X X X X X X X X XE N.N.b.G.C.n. X X X X X X X X X X X X X X X X X X X",
" X X X X X X X X X X X X X X X*.!.).H.!.A.O. X X X X X X X X X X X X X X X X=.b.z G.b.b... X X X X X X X X X X X X X X X X X X X",
" X X X X X X X X X X X X X X Xv ^.U.G.s 3.]  X X X X X X X X X X X X X X X Xa s s b.b.v.f  X X X X X X X X X X X X X X X X X X X",
" X X X X X X X X X X X X X X Xa H.(.G.d a z  X X X X X X X X X X X X X X Xj b.a.i.i.b.v.s  X X X X X X X X X X X X X X X X X X X",
" X X X X X X X X X X X X X X Xd C.Z.V.v.o.o.f  X X X X X X X X X X X X X Xs S.i.o.i.B.y.s  X X X X X X X X X X X X X X X X X X X",
" X X X X X X X X X X X X X X Xa =.g.M.b.b.u. X X X X X X X X X X X X X X X XE v.X.v.c d  X X X X X X X X X X X X X X X X X X X X",
" X X X X X X X X X X X X X X X X Xv m.| o.f  X X X X X X X X X X X X X X X X Xs } { j  X X X X X X X X X X X X X X X X X X X X X",
" X X X X X X X X X X X X X X X X X Xd x  X X X X X X X X X X X X X X X X X X X X X X X X X X X X X X X X X X X X X X X X X X X X",
" X X X X X X X X X X X X X X X X X X X X X X X X X X X X X X X X X X X X X X X X X X X X X X X X X X X X X X X X X X X X X X X X",
" X X X X X X X X X X X X X X X X X X X X X X X X X X X X X X X X X X X X X X X X X X X X X X X X X X X X X X X X X X X X X X X X",
" X X X X X X X X X X X X X X X X X X X X X X X X X X X X X X X X X X X X X X X X X X X X X X X X X X X X X X X X X X X X X X X X",
" X X X X X X X X X X X X X X X X X X X X X X X X X X X X X X X X X X X X X X X X X X X X X X X X X X X X X X X X X X X X X X X X",
" X X X X X X X X X X X X X X X X X X X X X X X X X X X X X X X X X X X X X X X X X X X X X X X X X X X X X X X X X X X X X X X X",
" X X X X X X X X X X X X X X X X X X X X X X X X X X X X X X X X X X X X X X X X X X X X X X X X X X X X X X X X X X X X X X X X",
" X X X X X X X X X X X X X X X X X X X X X X X X X X X X X X X X X X X X X X X X X X X X X X X X X X X X X X X X X X X X X X X X",
" X X X X X X X X X X X X X X X X X X X X X X X X X X X X X X X X X X X X X X X X X X X X X X X X X X X X X X X X X X X X X X X X",
" X X X X X X X X X X X X X X X X X X X X X X X X X X X X X X X X X X X X X X X X X X X X X X X X X X X X X X X X X X X X X X X X",
" X X X X X X X X X X X X X X X X X X X X X X X X X X X X X X X X X X X X X X X X X X X X X X X X X X X X X X X X X X X X X X X X",
" X X X X X X X X X X X X X X X X X X X X X X X X X X X X X X X X X X X X X X X X X X X X X X X X X X X X X X X X X X X X X X X X",
" X X X X X X X X X X X X X X X X X X X X X X X X X X X X X X X X X X X X X X X X X X X X X X X X X X X X X X X X X X X X X X X X",
" X X X X X X X X X X X X X X X X X X X X X X X X X X X X X X X X X X X X X X X X X X X X X X X X X X X X X X X X X X X X X X X X",
" X X X X X X X X X X X X X X X X X X X X X X X X X X X X X X X X X X X X X X X X X X X X X X X X X X X X X X X X X X X X X X X X"
};
