/* XPM */
static char *zombieA[] = {
/* columns rows colors chars-per-pixel */
"64 64 184 2 ",
"   c #161627",
".  c #171A27",
"X  c #1C1A27",
"o  c #161628",
"O  c #171828",
"+  c #191C29",
"@  c #231B2A",
"#  c #291F2A",
"$  c #341F2F",
"%  c #361F31",
"&  c #1D242A",
"*  c #1F292B",
"=  c #1C2227",
"-  c #1E2232",
";  c #202429",
":  c #2B212D",
">  c #212D2C",
",  c #35232D",
"<  c #30282F",
"1  c #24332E",
"2  c #2D342F",
"3  c #27392E",
"4  c #293C2C",
"5  c #37342F",
"6  c #3D3C2F",
"7  c #232636",
"8  c #242739",
"9  c #352630",
"0  c #3B2131",
"q  c #402829",
"w  c #442531",
"e  c #482630",
"r  c #4E2834",
"t  c #522C32",
"y  c #552530",
"u  c #4C3131",
"i  c #573434",
"p  c #5B3231",
"a  c #66352E",
"s  c #6A352E",
"d  c #6D382F",
"f  c #73362F",
"g  c #752932",
"h  c #623535",
"j  c #6B3732",
"k  c #6B3B33",
"l  c #673A32",
"z  c #743732",
"x  c #7D3632",
"c  c #733A31",
"v  c #7A3E32",
"b  c #2D422E",
"n  c #32472B",
"m  c #334C2D",
"M  c #3E4A2F",
"N  c #36512E",
"B  c #39552D",
"V  c #3C5B2D",
"C  c #3F612D",
"Z  c #474E2D",
"A  c #574E2D",
"S  c #46522D",
"D  c #4C532D",
"F  c #445D2E",
"G  c #495B2D",
"H  c #5B5A2D",
"J  c #594031",
"K  c #734D2F",
"L  c #60532D",
"P  c #71522F",
"I  c #654730",
"U  c #6A4031",
"Y  c #6E4A30",
"T  c #62403C",
"R  c #754432",
"E  c #7D4234",
"W  c #714D30",
"Q  c #41632D",
"!  c #466D2D",
"~  c #486E2D",
"^  c #4D632D",
"/  c #50682D",
"(  c #52622D",
")  c #3C3E50",
"_  c #643C47",
"`  c #3E4558",
"'  c #3C4456",
"]  c #6E505C",
"[  c #823B34",
"{  c #8E3E35",
"}  c #9A3E36",
"|  c #913D35",
" . c #A53C36",
".. c #AB3F38",
"X. c #A13C38",
"o. c #BC3A39",
"O. c #C93E3C",
"+. c #834535",
"@. c #894636",
"#. c #844D32",
"$. c #8E4E33",
"%. c #8E4A39",
"&. c #974137",
"*. c #9E4835",
"=. c #944D3A",
"-. c #9B4C3C",
";. c #994735",
":. c #89523F",
">. c #94523C",
",. c #9C533C",
"<. c #9D593F",
"1. c #A94437",
"2. c #A7443A",
"3. c #AC433A",
"4. c #AB4C3D",
"5. c #BB453C",
"6. c #B54D3E",
"7. c #BA493D",
"8. c #A3553E",
"9. c #AD543E",
"0. c #A45A3F",
"q. c #A95A3F",
"w. c #B4523F",
"e. c #C2433D",
"r. c #CA423F",
"t. c #8C4A54",
"y. c #AB5740",
"u. c #A65E41",
"i. c #A95D40",
"p. c #BE5442",
"a. c #B25E43",
"s. c #AC6444",
"d. c #B46946",
"f. c #B76E49",
"g. c #B96E49",
"h. c #BD764C",
"j. c #BA7B51",
"k. c #CB4640",
"l. c #CC4B42",
"z. c #C04D41",
"x. c #CD5245",
"c. c #C65D48",
"v. c #CF5848",
"b. c #C15243",
"n. c #D05B4A",
"m. c #CC624B",
"M. c #D2684E",
"N. c #D36D51",
"B. c #C87651",
"V. c #C27E51",
"C. c #CF7853",
"Z. c #D47453",
"A. c #D47A55",
"S. c #D87856",
"D. c #D77D58",
"F. c #CB8757",
"G. c #CA8956",
"H. c #C38052",
"J. c #D6835A",
"K. c #DB8C5F",
"L. c #CE935D",
"P. c #D3935E",
"I. c #D8925F",
"U. c #D3985E",
"Y. c #D79661",
"T. c #D39C62",
"R. c #DB9562",
"E. c #D9A466",
"W. c #DBA867",
"Q. c #DEA569",
"!. c #DCAB6B",
"~. c #D3A065",
"^. c #DFB16E",
"/. c #DFB36E",
"(. c #DFB470",
"). c #E2AE6F",
"_. c #E1B772",
"`. c #E1BA74",
"'. c #E4BE78",
"]. c #E7C67E",
"[. c #E7C47D",
"{. c #E6C47C",
"}. c None",
"|. c black",
/* pixels */
"}.}.}.}.}.}.}.}.}.}.}.}.}.}.}.}.}.}.}.}.}.}.}.}.}.}.}.}.}.}.}.}.}.}.}.}.}.}.}.}.}.}.}.}.}.}.}.}.}.}.}.}.}.}.}.}.}.}.}.}.}.}.}.}.",
"}.}.}.}.}.}.}.}.}.}.}.}.}.}.}.}.}.}.}.}.}.}.}.}.}.}.}.}.}.}.}.}.}.}.}.}.}.}.}.}.}.}.}.}.}.}.}.}.}.}.}.}.}.}.}.}.}.}.}.}.}.}.}.}.",
"}.}.}.}.}.}.}.}.}.}.}.}.}.}.}.}.}.}.}.}.}.}.}.}.}.}.}.}.}.}.}.}.}.}.}.}.}.}.}.}.}.}.}.}.}.}.}.}.}.}.}.}.}.}.}.}.}.}.}.}.}.}.}.}.",
"}.}.}.}.}.}.}.}.}.}.}.}.}.}.}.}.}.}.}.}.}.}.}.}.}.}.}.}.}.}.}.}.}.}.}.}.}.}.}.}.}.}.}.}.}.}.}.}.}.}.}.}.}.}.}.}.}.}.}.}.}.}.}.}.",
"}.}.}.}.}.}.}.}.}.}.}.}.}.}.}.}.}.}.}.}.}.}.}.}.}.}.}.}.}.}.}.}.}.}.}.}.}.}.}.}.}.}.}.}.}.}.}.}.}.}.}.}.}.}.}.}.}.}.}.}.}.}.}.}.",
"}.}.}.}.}.}.}.}.}.}.}.}.}.}.}.}.}.}.}.}.}.}.}.}.}.}.}.}.}.}.}.}.}.}.}.}.}.}.}.}.}.}.}.}.}.}.}.}.}.}.}.}.}.}.}.}.}.}.}.}.}.}.}.}.",
"}.}.}.}.}.}.}.}.}.}.}.}.}.}.}.}.}.}.}.}.}.}.}.}.}.}.}.}.}.}.}.}.}.}.}.}.}.}.}.}.}.}.}.}.}.}.}.}.}.}.}.}.}.}.}.}.}.}.}.}.}.}.}.}.",
"}.}.}.}.}.}.}.}.}.}.}.}.}.}.}.}.}.}.}.}.}.}.}.}.}.}.}.}.}.}.}.}.}.}.}.}.}.}.}.}.}.}.}.}.}.}.}.}.}.}.}.}.}.}.}.}.}.}.}.}.}.}.}.}.",
"}.}.}.}.}.}.}.}.}.}.}.}.}.}.}.}.}.}.}.}.}.}.}.}.}.}.}.}.}.}.}.}.}.}.}.}.}.}.}.}.}.}.}.}.}.}.}.}.}.}.}.}.}.}.}.}.}.}.}.}.}.}.}.}.",
"}.}.}.}.}.}.}.}.}.}.}.}.}.}.}.}.}.}.}.}.}.}.}.}.}.}.}.}.}.}.}.}.}.}.}.}.}.}.}.}.}.}.}.}.}.}.}.}.}.}.}.}.}.}.}.}.}.}.}.}.}.}.}.}.",
"}.}.}.}.}.}.}.}.}.}.}.}.}.}.}.}.}.}.}.}.}.}.}.}.}.}.}.}.}.}.}.}.}.}.}.}.}.}.}.}.}.}.}.}.}.}.}.}.}.}.}.}.}.}.}.}.}.}.}.}.}.}.}.}.",
"}.}.}.}.}.}.}.}.}.}.}.}.}.}.}.}.}.}.}.}.}.}.}.}.}.}.}.}.}.}.}.}.}.}.  }.}.}.}.}.}.}.}.}.}.}.}.}.}.}.}.}.}.}.}.}.}.}.}.}.}.}.}.}.",
"}.}.}.}.}.}.}.}.}.}.}.}.}.}.}.}.}.}.}.}.}.}.}.}.}.}.}.}.}.}.s a d s ; X   }.}.}.}.}.}.}.}.}.}.}.}.}.}.}.}.}.}.}.}.}.}.}.}.}.}.}.",
"}.}.}.}.}.}.}.}.}.}.}.}.}.}.}.}.}.}.}.}.}.}.}.}.}.s v v s s s.g.d.u.n l 2 > +   }.}.}.}.}.}.}.}.}.}.}.}.}.}.}.}.}.}.}.}.}.}.}.}.",
"}.}.}.}.}.}.}.}.}.}.}.}.}.}.}.}.}.}.}.}.}.s j >.s.V.(./.V.G.{.{._.E m F b 4 . X   }.}.}.}.}.}.}.}.}.}.}.}.}.}.}.}.}.}.}.}.}.}.}.",
"}.}.}.}.}.}.}.}.}.}.}.}.}.}.}.}.s d s z >.V.G.W.).Q.D.Q.{.].].].'.h.. ! Q ! B B 1 >   }.}.}.}.}.}.}.}.}.}.}.}.}.}.}.}.}.}.}.}.}.",
"}.}.}.}.}.}.}.}.}.}.}.}.}.}.}.}.-.m.C.E.T.U.E.N.K.[.[.'.!.!.].].Y.m.U > C C ^ C m b 1 *   }.}.}.}.}.}.}.}.}.}.}.}.}.}.}.}.}.}.}.",
"}.}.}.}.}.}.}.}.}.}.}.}.}.}.}.v p.M.Q.J.!.W.Y.N.M.J.!.E.F.u.g.V.m.O V B ! C ! #.P V B b 1 + }.}.}.}.}.}.}.}.}.}.}.}.}.}.}.}.}.}.",
"}.}.}.}.}.}.}.}.}.}.}.}.}.}.s l.c.n.Z.A.A.E.j.c j s +.+.a a a j >.  A = B b ~ ~ %.;.A B 3 1 . }.}.}.}.}.}.}.}.}.}.}.}.}.}.}.}.}.",
"}.}.}.}.}.}.}.}.}.}.}.}.}.}.x  .l.k.s s T.J.E }.}.}.}.}.}.}.}.  ) * 1   1 C ~ ~ $.1.A B m 1 1 o }.}.}.}.}.}.}.}.}.}.}.}.}.}.}.}.",
"}.}.}.}.}.}.}.}.}.}.}.}.}.}.}.r.l.O.s 2.N.N.a }.}.}.}.}.}.}.}.+   7   > 1 1 B ~ S 3...{ U j 1 1   }.}.}.}.}.}.}.}.}.}.}.}.}.}.}.",
"}.}.}.}.}.}.}.}.}.}.}.}.}.}.}.f e.O.c [ E s }.}.}.}.}.}.}.}.  ` 7 ,   1 3 Q ! ~ / G S 1.@.B m 1 + }.}.}.}.}.}.}.}.}.}.}.}.}.}.}.",
"}.}.}.}.}.}.}.}.}.}.}.}.}.}.}.}.}.z }.}.}.}.}.}.}.}.}.}.}.}.}.+ g 7 & 3 V F ! ! P V V C K I W m 1   }.}.}.}.}.}.}.}.}.}.}.}.}.}.",
"}.}.}.}.}.}.}.}.}.}.}.}.}.}.}.}.}.}.}.}.}.}.}.}.}.}.}.}.}.}.}.o r @ # 9 9 5 3 > = . 1 b ! C Z B z O }.}.}.}.}.}.}.}.}.}.}.}.}.}.",
"}.}.}.}.}.}.}.}.}.}.}.}.}.}.}.}.}.}.}.}.}.}.}.}.}.}.}.}.}.}.}.0 w j s s s x a % M V ! . > B B B 1 & }.}.}.}.}.}.}.}.}.}.}.}.}.}.",
"}.}.}.}.}.}.}.}.}.}.}.}.}.}.}.}.}.}.}.}.}.}.}.}.}.}.}.}.}.% +.=.=.=.4.6.i.6.2.z s t :.+ C & V B 1 1   }.}.}.}.}.}.}.}.}.}.}.}.}.",
"}.}.}.}.}.}.}.}.}.}.}.}.}.}.}.}.}.}.}.}.}.}.}.}.}.}.}.}.0 c t 8.8.0.9.7.7.8.0.7.z w w s.& = 4 B m 3   }.}.}.}.}.}.}.}.}.}.}.}.}.",
"}.}.}.}.}.}.}.}.}.}.}.}.}.}.}.}.}.}.}.}.}.}.}.}.}.}.}.}.$ %.8.,.9.i.i.i.i.q.0.0.u.+.s l u V 1 B N b + }.}.}.}.}.}.}.}.}.}.}.}.}.",
"}.}.}.}.}.}.}.}.}.}.}.}.}.}.}.}.}.}.}.}.}.}.}.}.}.}.}.}.w j v -.=.0.,.8.=.>.>.=.0.,.c T ,.3 - V B m > }.}.}.}.}.}.}.}.}.}.}.}.}.",
"}.}.}.}.}.}.}.}.}.}.}.}.}.}.}.}.}.}.}.}.}.}.}.}.}.}.}.}.% @.,.=.@.v s s p y 0 e @.0.s t s.> & N N m 4   }.}.}.}.}.}.}.}.}.}.}.}.",
"}.}.}.}.}.}.}.}.}.}.}.}.}.}.}.}.}.}.}.}.}.}.}.}.}.}.}.}.9 c v 8.1.3.} s z +.+.v =.,.a e >.4 1 N m m 3 > }.}.}.}.}.}.}.}.}.}.}.}.",
"}.}.}.}.}.}.}.}.}.}.}.}.}.}.}.}.}.}.}.}.}.}.}.}.}.}.}.}.}.% [ 5.5.9.0.,.%.@.@.=.,.v f h @ b 1 m b m 3 & }.}.}.}.}.}.}.}.}.}.}.}.",
"}.}.}.}.}.}.}.}.}.}.}.}.}.}.}.}.}.}.}.}.}.}.}.}.}.}.}.}.% e %.4.5.e.y.i.w.q.9.0.,.E d 0 4 = m m 3 4 >   }.}.}.}.}.}.}.}.}.}.}.}.",
"}.}.}.}.}.}.}.}.}.}.}.}.}.}.}.}.}.}.}.}.}.}.}.}.}.}.}.}.}.}.% 0 } =.7.6.q.u.,.+.c s , m + 3 B m b 1 + |.}.}.}.}.}.}.}.}.}.}.}.}.",
"}.}.}.}.}.}.}.}.}.}.}.}.}.}.}.}.}.}.}.}.}.}.}.}.}.}.}.}.}.}.}.}.$ j =.@.v =.@.s j 0 & * m B V C 3 1   |.}.}.}.}.}.}.}.}.}.}.}.}.",
"}.}.}.}.}.}.}.}.}.}.}.}.}.}.}.}.}.}.}.}.}.}.}.}.}.}.}.}.}.}.}.9 w $ 0 0 0 w w w < 1 b B V Q V V b >   |.}.}.}.}.}.}.}.}.}.}.}.}.",
"}.}.}.}.}.}.}.}.}.}.}.}.}.}.}.}.}.}.}.}.}.}.}.}.}.}.}.}.}.}.}.  ] ` 8 O 2 m +.~ ~ ! C Q ~ V V 4 1 + }.}.}.}.}.}.}.}.}.}.}.}.}.}.",
"}.}.}.}.}.}.}.}.}.}.}.}.}.}.}.}.}.j s }.}.}.}.}.}.}.}.}.}.}.}.. t._ O   1 1 2 B ! ! ~ ~ ~ N N 1 - |.}.}.}.}.}.}.}.}.}.}.}.}.}.}.",
"}.}.}.}.}.}.}.}.}.}.}.}.}.}.}.}.E B.l.s -.E }.}.}.}.}.}.}.}.}.}.@ y + . * i M V C ! ! ! C N 1 1   }.}.}.}.}.}.}.}.}.}.}.}.}.}.}.",
"}.}.}.}.}.}.}.}.}.}.}.}.}.}.}.s k.r.q.s l.v.~.}.}.}.}.}.}.}.}.}.  + .   . [ i ^ C C C C N 1 1   }.}.}.}.}.}.}.}.}.}.}.}.}.}.}.}.",
"}.}.}.}.}.}.}.}.}.}.}.}.}.}.}.| o.O.r.s f v.I.s }.}.}.}.}.}.}.}.}., N 1 = l Y K Q ! C B 1 1 + }.}.}.}.}.}.}.}.}.}.}.}.}.}.}.}.}.",
"}.}.}.}.}.}.}.}.}.}.}.}.}.}.}.} k.k.r.l.Z.l.I.z s a s f s s s +.y.u.n #.V R D ~ ~ C 4 1 1 1   }.}.}.}.}.}.}.}.}.}.}.}.}.}.}.}.}.",
"}.}.}.}.}.}.}.}.}.}.}.}.}.}.}.s c b.l.l.x.Z.E.E.m.T.L.P.V.d.c U.!.L.o Q ! * Q Q ! C V b 1   }.}.}.}.}.}.}.}.}.}.}.}.}.}.}.}.}.}.",
"}.}.}.}.}.}.}.}.}.}.}.}.}.}.}.}.j w.k.r.r.m.A.A.`.).[.S.Q.!.E.].{._.d.# ! ~ ~ Q V V B 3   }.}.}.}.}.}.}.}.}.}.}.}.}.}.}.}.}.}.}.",
"}.}.}.}.}.}.}.}.}.}.}.}.}.}.}.}.}.s s c  .z.c.C._._.`.{.].[.{.[.].S., V H B V n ! n .   }.}.}.}.}.}.}.}.}.}.}.}.}.}.}.}.}.}.}.}.",
"}.}.}.}.}.}.}.}.}.}.}.}.}.}.}.}.}.}.}.}.}.}.s +.s.V.!._._.L./.{.K.l.o *.S  .+.6 *   }.}.}.}.}.}.}.}.}.}.}.}.}.}.}.}.}.}.}.}.}.}.",
"}.}.}.}.}.}.}.}.}.}.}.}.}.}.}.}.}.}.}.}.}.}.}.}.}.s j u.+.s c s.7.s.@  .h p =   }.}.}.}.}.}.}.}.}.}.}.}.}.}.}.}.}.}.}.}.}.}.}.}.",
"}.}.}.}.}.}.}.}.}.}.}.}.}.}.}.}.}.}.}.}.}.}.}.}.}.}.}.}.s }.}.}.s |.@ #   . }.}.}.}.}.}.}.}.}.}.}.}.}.}.}.}.}.}.}.}.}.}.}.}.}.}.",
"}.}.}.}.}.}.}.}.}.}.}.}.}.}.}.}.}.}.}.}.}.}.}.}.}.}.}.}.}.}.}.}.}.}.}.}.}.}.}.}.}.}.}.}.}.}.}.}.}.}.}.}.}.}.}.}.}.}.}.}.}.}.}.}.",
"}.}.}.}.}.}.}.}.}.}.}.}.}.}.}.}.}.}.}.}.}.}.}.}.}.}.}.}.}.}.}.}.}.}.}.}.}.}.}.}.}.}.}.}.}.}.}.}.}.}.}.}.}.}.}.}.}.}.}.}.}.}.}.}.",
"}.}.}.}.}.}.}.}.}.}.}.}.}.}.}.}.}.}.}.}.}.}.}.}.}.}.}.}.}.}.}.}.}.}.}.}.}.}.}.}.}.}.}.}.}.}.}.}.}.}.}.}.}.}.}.}.}.}.}.}.}.}.}.}.",
"}.}.}.}.}.}.}.}.}.}.}.}.}.}.}.}.}.}.}.}.}.}.}.}.}.}.}.}.}.}.}.}.}.}.}.}.}.}.}.}.}.}.}.}.}.}.}.}.}.}.}.}.}.}.}.}.}.}.}.}.}.}.}.}.",
"}.}.}.}.}.}.}.}.}.}.}.}.}.}.}.}.}.}.}.}.}.}.}.}.}.}.}.}.}.}.}.}.}.}.}.}.}.}.}.}.}.}.}.}.}.}.}.}.}.}.}.}.}.}.}.}.}.}.}.}.}.}.}.}.",
"}.}.}.}.}.}.}.}.}.}.}.}.}.}.}.}.}.}.}.}.}.}.}.}.}.}.}.}.}.}.}.}.}.}.}.}.}.}.}.}.}.}.}.}.}.}.}.}.}.}.}.}.}.}.}.}.}.}.}.}.}.}.}.}.",
"}.}.}.}.}.}.}.}.}.}.}.}.}.}.}.}.}.}.}.}.}.}.}.}.}.}.}.}.}.}.}.}.}.}.}.}.}.}.}.}.}.}.}.}.}.}.}.}.}.}.}.}.}.}.}.}.}.}.}.}.}.}.}.}.",
"}.}.}.}.}.}.}.}.}.}.}.}.}.}.}.}.}.}.}.}.}.}.}.}.}.}.}.}.}.}.}.}.}.}.}.}.}.}.}.}.}.}.}.}.}.}.}.}.}.}.}.}.}.}.}.}.}.}.}.}.}.}.}.}.",
"}.}.}.}.}.}.}.}.}.}.}.}.}.}.}.}.}.}.}.}.}.}.}.}.}.}.}.}.}.}.}.}.}.}.}.}.}.}.}.}.}.}.}.}.}.}.}.}.}.}.}.}.}.}.}.}.}.}.}.}.}.}.}.}.",
"}.}.}.}.}.}.}.}.}.}.}.}.}.}.}.}.}.}.}.}.}.}.}.}.}.}.}.}.}.}.}.}.}.}.}.}.}.}.}.}.}.}.}.}.}.}.}.}.}.}.}.}.}.}.}.}.}.}.}.}.}.}.}.}.",
"}.}.}.}.}.}.}.}.}.}.}.}.}.}.}.}.}.}.}.}.}.}.}.}.}.}.}.}.}.}.}.}.}.}.}.}.}.}.}.}.}.}.}.}.}.}.}.}.}.}.}.}.}.}.}.}.}.}.}.}.}.}.}.}.",
"}.}.}.}.}.}.}.}.}.}.}.}.}.}.}.}.}.}.}.}.}.}.}.}.}.}.}.}.}.}.}.}.}.}.}.}.}.}.}.}.}.}.}.}.}.}.}.}.}.}.}.}.}.}.}.}.}.}.}.}.}.}.}.}.",
"}.}.}.}.}.}.}.}.}.}.}.}.}.}.}.}.}.}.}.}.}.}.}.}.}.}.}.}.}.}.}.}.}.}.}.}.}.}.}.}.}.}.}.}.}.}.}.}.}.}.}.}.}.}.}.}.}.}.}.}.}.}.}.}.",
"}.}.}.}.}.}.}.}.}.}.}.}.}.}.}.}.}.}.}.}.}.}.}.}.}.}.}.}.}.}.}.}.}.}.}.}.}.}.}.}.}.}.}.}.}.}.}.}.}.}.}.}.}.}.}.}.}.}.}.}.}.}.}.}.",
"}.}.}.}.}.}.}.}.}.}.}.}.}.}.}.}.}.}.}.}.}.}.}.}.}.}.}.}.}.}.}.}.}.}.}.}.}.}.}.}.}.}.}.}.}.}.}.}.}.}.}.}.}.}.}.}.}.}.}.}.}.}.}.}.",
"}.}.}.}.}.}.}.}.}.}.}.}.}.}.}.}.}.}.}.}.}.}.}.}.}.}.}.}.}.}.}.}.}.}.}.}.}.}.}.}.}.}.}.}.}.}.}.}.}.}.}.}.}.}.}.}.}.}.}.}.}.}.}.}."
};
